<svg xmlns="http://www.w3.org/2000/svg" width="29.058" height="26.678" viewBox="0 0 29.058 26.678">
    <defs>
        <style>
            .prefix__cls-1{fill:#3f566f;stroke:#3f566f;stroke-width:.5px}
        </style>
    </defs>
    <g id="prefix__analytics_1_" data-name="analytics (1)" transform="translate(.25 .25)">
        <g id="prefix__Group_957" data-name="Group 957">
            <g id="prefix__Group_956" data-name="Group 956">
                <path id="prefix__Path_2698" d="M28.558 42.494V20.48H0v22.014h8.924v2.975H6.545v1.19h15.469v-1.19h-2.38v-2.975h8.924zM1.19 21.67h26.178v16.064H1.19zm17.254 23.8h-8.33v-2.976h8.329zM1.19 41.3v-2.38h26.178v2.38z" class="prefix__cls-1" data-name="Path 2698" transform="translate(0 -20.48)"/>
            </g>
        </g>
        <g id="prefix__Group_959" data-name="Group 959" transform="translate(2.852 2.975)">
            <g id="prefix__Group_958" data-name="Group 958">
                <path id="prefix__Path_2699" d="M68.242 71.68v1.19h2.133l-7.785 7.786-3.57-3.57-5.355 5.354-1.785-1.785-2.8 2.8.841.841 1.959-1.959 1.785 1.785 5.355-5.355 3.57 3.57 8.627-8.627v2.133h1.19V71.68z" class="prefix__cls-1" data-name="Path 2699" transform="translate(-49.08 -71.68)"/>
            </g>
        </g>
    </g>
</svg>
