<svg xmlns="http://www.w3.org/2000/svg" id="prefix__calendar" width="22.592" height="22.592" viewBox="0 0 22.592 22.592">
    <defs>
        <style>
            .prefix__cls-1{fill:#3f566f}
        </style>
    </defs>
    <g id="prefix__Group_852" data-name="Group 852">
        <g id="prefix__Group_851" data-name="Group 851">
            <path id="prefix__Path_2683" d="M19.944 1.765h-1.059V0H17.12v1.765H5.471V0H3.706v1.765H2.647A2.65 2.65 0 000 4.412v15.532a2.65 2.65 0 002.647 2.647h17.3a2.65 2.65 0 002.647-2.647V4.412a2.65 2.65 0 00-2.65-2.647zm.882 18.179a.883.883 0 01-.882.882H2.647a.883.883 0 01-.882-.882V8.3h19.062zm0-13.414H1.765V4.412a.883.883 0 01.882-.882h1.059v1.765h1.765V3.53H17.12v1.765h1.765V3.53h1.059a.883.883 0 01.882.882z" class="prefix__cls-1" data-name="Path 2683"/>
        </g>
    </g>
    <g id="prefix__Group_864" data-name="Group 864" transform="translate(4.353 13.679)">
        <g id="prefix__Group_863" data-name="Group 863">
            <path id="prefix__Rectangle_306" d="M0 0H2V2H0z" class="prefix__cls-1" data-name="Rectangle 306" transform="translate(-.353 -.087)"/>
        </g>
    </g>
    <g id="prefix__Group_871" data-name="Group 871" transform="translate(4.353 10.679)">
        <g id="prefix__Group_863-2" data-name="Group 863">
            <path id="prefix__Rectangle_306-2" d="M0 0H2V2H0z" class="prefix__cls-1" data-name="Rectangle 306" transform="translate(-.353 -.087)"/>
        </g>
    </g>
    <g id="prefix__Group_875" data-name="Group 875" transform="translate(4.353 16.679)">
        <g id="prefix__Group_863-3" data-name="Group 863">
            <path id="prefix__Rectangle_306-3" d="M0 0H2V2H0z" class="prefix__cls-1" data-name="Rectangle 306" transform="translate(-.353 -.087)"/>
        </g>
    </g>
    <g id="prefix__Group_866" data-name="Group 866" transform="translate(7.883 13.679)">
        <g id="prefix__Group_865" data-name="Group 865">
            <path id="prefix__Rectangle_307" d="M0 0H2V2H0z" class="prefix__cls-1" data-name="Rectangle 307" transform="translate(.117 -.087)"/>
        </g>
    </g>
    <g id="prefix__Group_872" data-name="Group 872" transform="translate(7.883 10.679)">
        <g id="prefix__Group_865-2" data-name="Group 865">
            <path id="prefix__Rectangle_307-2" d="M0 0H2V2H0z" class="prefix__cls-1" data-name="Rectangle 307" transform="translate(.117 -.087)"/>
        </g>
    </g>
    <g id="prefix__Group_876" data-name="Group 876" transform="translate(7.883 16.679)">
        <g id="prefix__Group_865-3" data-name="Group 865">
            <path id="prefix__Rectangle_307-3" d="M0 0H2V2H0z" class="prefix__cls-1" data-name="Rectangle 307" transform="translate(.117 -.087)"/>
        </g>
    </g>
    <g id="prefix__Group_868" data-name="Group 868" transform="translate(12.413 13.679)">
        <g id="prefix__Group_867" data-name="Group 867">
            <path id="prefix__Rectangle_308" d="M0 0H2V2H0z" class="prefix__cls-1" data-name="Rectangle 308" transform="translate(-.413 -.087)"/>
        </g>
    </g>
    <g id="prefix__Group_873" data-name="Group 873" transform="translate(12.413 10.679)">
        <g id="prefix__Group_867-2" data-name="Group 867">
            <path id="prefix__Rectangle_308-2" d="M0 0H2V2H0z" class="prefix__cls-1" data-name="Rectangle 308" transform="translate(-.413 -.087)"/>
        </g>
    </g>
    <g id="prefix__Group_877" data-name="Group 877" transform="translate(12.413 16.679)">
        <g id="prefix__Group_867-3" data-name="Group 867">
            <path id="prefix__Rectangle_308-3" d="M0 0H2V2H0z" class="prefix__cls-1" data-name="Rectangle 308" transform="translate(-.413 -.087)"/>
        </g>
    </g>
    <g id="prefix__Group_870" data-name="Group 870" transform="translate(15.943 13.679)">
        <g id="prefix__Group_869" data-name="Group 869">
            <path id="prefix__Rectangle_309" d="M0 0H2V2H0z" class="prefix__cls-1" data-name="Rectangle 309" transform="translate(.057 -.087)"/>
        </g>
    </g>
    <g id="prefix__Group_874" data-name="Group 874" transform="translate(15.943 10.679)">
        <g id="prefix__Group_869-2" data-name="Group 869">
            <path id="prefix__Rectangle_309-2" d="M0 0H2V2H0z" class="prefix__cls-1" data-name="Rectangle 309" transform="translate(.057 -.087)"/>
        </g>
    </g>
    <g id="prefix__Group_878" data-name="Group 878" transform="translate(15.943 16.679)">
        <g id="prefix__Group_869-3" data-name="Group 869">
            <path id="prefix__Rectangle_309-3" d="M0 0H2V2H0z" class="prefix__cls-1" data-name="Rectangle 309" transform="translate(.057 -.087)"/>
        </g>
    </g>
</svg>
