<svg xmlns="http://www.w3.org/2000/svg" width="27" height="26" viewBox="0 0 27 26">
    <defs>
        <style>
            .prefix__cls-2{fill:none;stroke:#3f566f;stroke-width:1.5px}
        </style>
    </defs>
    <g id="prefix__Group_954" data-name="Group 954" transform="translate(-.394 -.039)">
        <g id="prefix__Rectangle_353" data-name="Rectangle 353" style="stroke-linecap:round;stroke-linejoin:round;stroke:#3f566f;stroke-width:1.5px;fill:none">
            <path d="M0 0H27V26H0z" style="stroke:none" transform="translate(.394 .039)"/>
            <path d="M0.75 0.75H26.25V25.25H0.75z" style="fill:none" transform="translate(.394 .039)"/>
        </g>
        <path id="prefix__Line_84" d="M0 25.238L0 0" class="prefix__cls-2" data-name="Line 84" transform="translate(17.293 .467)"/>
        <path id="prefix__Line_85" d="M0 0L26.173 0" class="prefix__cls-2" data-name="Line 85" transform="translate(.467 17.293)"/>
        <path id="prefix__Line_86" d="M0 0L26.173 0" class="prefix__cls-2" data-name="Line 86" transform="translate(.467 8.88)"/>
        <g id="prefix__Group_953" data-name="Group 953" transform="translate(4.206 4.674)">
            <path id="prefix__Line_87" d="M0 0L1.869 0" class="prefix__cls-2" data-name="Line 87"/>
            <path id="prefix__Line_88" d="M0 0L5.608 0" class="prefix__cls-2" data-name="Line 88" transform="translate(3.739)"/>
        </g>
        <g id="prefix__Group_951" data-name="Group 951" transform="translate(4.206 13.086)">
            <path id="prefix__Line_90" d="M0 0L1.869 0" class="prefix__cls-2" data-name="Line 90"/>
            <path id="prefix__Line_89" d="M0 0L5.608 0" class="prefix__cls-2" data-name="Line 89" transform="translate(3.739)"/>
        </g>
        <g id="prefix__Group_952" data-name="Group 952" transform="translate(4.206 21.499)">
            <path id="prefix__Line_92" d="M0 0L1.869 0" class="prefix__cls-2" data-name="Line 92"/>
            <path id="prefix__Line_91" d="M0 0L5.608 0" class="prefix__cls-2" data-name="Line 91" transform="translate(3.739)"/>
        </g>
    </g>
</svg>
