<svg xmlns="http://www.w3.org/2000/svg" width="26.387" height="26.673" viewBox="0 0 26.387 26.673">
    <defs>
        <style>
            .prefix__cls-1{fill:#3f566f;stroke:#3f566f;stroke-width:.5px}
        </style>
    </defs>
    <g id="prefix__Group_955" data-name="Group 955" transform="translate(.25 .25)">
        <g id="prefix__Group_310" data-name="Group 310">
            <g id="prefix__Group_309" data-name="Group 309">
                <path id="prefix__Path_993" d="M653.2 40.984H628V15.5h25.2zm-24.774-.424h24.35V15.924h-24.35z" class="prefix__cls-1" data-name="Path 993" transform="translate(-627.656 -15.156)"/>
                <path id="prefix__Path_994" d="M647.042 35.173h-25.2a.344.344 0 01-.344-.344V9.344a.344.344 0 01.346-.344h25.2a.344.344 0 01.344.344v25.484a.344.344 0 01-.346.345zm-24.43-1.113h23.661V10.113h-23.66z" class="prefix__cls-1" data-name="Path 994" transform="translate(-621.5 -9)"/>
            </g>
        </g>
        <g id="prefix__Group_326" data-name="Group 326" transform="translate(0 4.703)">
            <g id="prefix__Group_311" data-name="Group 311" transform="translate(12.191 .005)">
                <path id="prefix__Path_995" d="M862.466 126h-.066a3.457 3.457 0 01-.3 1.4v.853a4.005 4.005 0 00.546-1.1 3.824 3.824 0 01-.18-1.16z" class="prefix__cls-1" data-name="Path 995" transform="translate(-861.756 -125.656)"/>
                <path id="prefix__Path_996" d="M855.944 122.446a.367.367 0 01-.106-.016.347.347 0 01-.238-.328v-.853a.309.309 0 01.032-.138 3.154 3.154 0 00.265-1.266.344.344 0 01.344-.344h.069a.344.344 0 01.344.344 3.59 3.59 0 00.159 1.06.343.343 0 010 .207 4.256 4.256 0 01-.593 1.192.342.342 0 01-.276.142z" class="prefix__cls-1" data-name="Path 996" transform="translate(-855.6 -119.5)"/>
            </g>
            <g id="prefix__Group_312" data-name="Group 312" transform="translate(5.499 .005)">
                <path id="prefix__Path_997" d="M739.3 129.386a3.489 3.489 0 01-3.486-3.486h-.014v1.738a3.907 3.907 0 006.692.519v-.857a3.491 3.491 0 01-3.192 2.086z" class="prefix__cls-1" data-name="Path 997" transform="translate(-735.456 -125.561)"/>
                <path id="prefix__Path_998" d="M733.147 124.094a4.237 4.237 0 01-3.809-2.363.386.386 0 01-.037-.154v-1.732a.344.344 0 01.344-.344h.016a.344.344 0 01.344.344 3.139 3.139 0 006.013 1.266.34.34 0 01.387-.2.346.346 0 01.275.339v.853a.349.349 0 01-.063.2 4.278 4.278 0 01-3.47 1.791z" class="prefix__cls-1" data-name="Path 998" transform="translate(-729.3 -119.5)"/>
            </g>
            <g id="prefix__Group_313" data-name="Group 313" transform="translate(5.288)">
                <path id="prefix__Path_999" d="M731.9 126a3.831 3.831 0 01-.2 1.213 3.749 3.749 0 00.217.525V126z" class="prefix__cls-1" data-name="Path 999" transform="translate(-731.361 -125.65)"/>
                <path id="prefix__Path_1000" d="M725.856 121.827a.347.347 0 01-.307-.191 4.467 4.467 0 01-.233-.572.361.361 0 010-.212 3.583 3.583 0 00.175-1.107.344.344 0 01.344-.344h.021a.344.344 0 01.344.344v1.738a.345.345 0 01-.265.334.205.205 0 01-.079.01z" class="prefix__cls-1" data-name="Path 1000" transform="translate(-725.3 -119.4)"/>
            </g>
            <g id="prefix__Group_314" data-name="Group 314" transform="translate(4.726)">
                <path id="prefix__Path_1001" d="M721.565 126h-.037a3.451 3.451 0 01-.328 1.478v.827a3.945 3.945 0 00.562-1.091 3.832 3.832 0 01-.2-1.213z" class="prefix__cls-1" data-name="Path 1001" transform="translate(-720.856 -125.65)"/>
                <path id="prefix__Path_1002" d="M715.044 122.4a.341.341 0 01-.106-.016.347.347 0 01-.238-.328v-.827a.356.356 0 01.032-.148 3.13 3.13 0 00.3-1.335.344.344 0 01.344-.344h.037a.344.344 0 01.344.344 3.585 3.585 0 00.175 1.107.361.361 0 010 .212 4.2 4.2 0 01-.609 1.187.333.333 0 01-.279.148z" class="prefix__cls-1" data-name="Path 1002" transform="translate(-714.7 -119.4)"/>
            </g>
            <g id="prefix__Group_315" data-name="Group 315" transform="translate(0 1.482)">
                <path id="prefix__Path_1003" d="M633.573 155.9a3.481 3.481 0 01-1.573-.376V156a3.891 3.891 0 004.726-1.272v-.828a3.492 3.492 0 01-3.153 2z" class="prefix__cls-1" data-name="Path 1003" transform="translate(-631.656 -153.554)"/>
                <path id="prefix__Path_1004" d="M627.418 150.48a4.22 4.22 0 01-1.711-.36.34.34 0 01-.207-.313v-.472a.336.336 0 01.164-.291.341.341 0 01.334-.016 3.081 3.081 0 001.42.339 3.153 3.153 0 002.84-1.807.345.345 0 01.657.143v.827a.31.31 0 01-.069.2 4.259 4.259 0 01-3.428 1.75z" class="prefix__cls-1" data-name="Path 1004" transform="translate(-625.5 -147.363)"/>
            </g>
            <g id="prefix__Group_316" data-name="Group 316" transform="translate(5.092 .005)">
                <path id="prefix__Path_1005" d="M728.487 126h-.387a3.829 3.829 0 00.2 1.213 3.98 3.98 0 00.191-1.213z" class="prefix__cls-1" data-name="Path 1005" transform="translate(-727.756 -125.656)"/>
                <path id="prefix__Path_1006" d="M722.14 121.4a.347.347 0 01-.328-.238 4.294 4.294 0 01-.212-1.319.344.344 0 01.344-.344h.387a.344.344 0 01.344.344 4.142 4.142 0 01-.212 1.319.335.335 0 01-.323.238z" class="prefix__cls-1" data-name="Path 1006" transform="translate(-721.6 -119.5)"/>
            </g>
            <g id="prefix__Group_317" data-name="Group 317" transform="translate(19.932 .005)">
                <path id="prefix__Path_1007" d="M1008.216 126h-.016c0 .079.005.154.005.233a1.723 1.723 0 00.011-.233z" class="prefix__cls-1" data-name="Path 1007" transform="translate(-1007.856 -125.656)"/>
                <path id="prefix__Path_1008" d="M1002.055 120.422a.343.343 0 01-.344-.323c-.005-.1-.011-.175-.011-.254a.344.344 0 01.344-.344h.016a.344.344 0 01.344.344c0 .079-.005.159-.011.254a.342.342 0 01-.338.323z" class="prefix__cls-1" data-name="Path 1008" transform="translate(-1001.7 -119.5)"/>
            </g>
            <g id="prefix__Group_318" data-name="Group 318" transform="translate(20.393 .508)">
                <path id="prefix__Path_1009" d="M1020.349 138.478a3.5 3.5 0 01-3.449-2.978v1.33a3.907 3.907 0 003.449 2.066 4.122 4.122 0 00.932-.111v-.44a3.2 3.2 0 01-.932.133z" class="prefix__cls-1" data-name="Path 1009" transform="translate(-1016.556 -135.155)"/>
                <path id="prefix__Path_1010" d="M1014.194 133.079a4.252 4.252 0 01-3.751-2.252.345.345 0 01-.042-.164v-1.33a.344.344 0 01.684-.053 3.15 3.15 0 003.1 2.681 3.05 3.05 0 00.842-.117.358.358 0 01.3.058.344.344 0 01.138.275v.44a.341.341 0 01-.26.334 3.907 3.907 0 01-1.011.128z" class="prefix__cls-1" data-name="Path 1010" transform="translate(-1010.4 -128.988)"/>
            </g>
            <g id="prefix__Group_319" data-name="Group 319" transform="translate(20.15 .238)">
                <path id="prefix__Path_1011" d="M1012.612 130.4a3.882 3.882 0 01-.212 1.06 4.241 4.241 0 00.244.551v-1.33a2.824 2.824 0 01-.032-.281z" class="prefix__cls-1" data-name="Path 1011" transform="translate(-1012.052 -130.056)"/>
                <path id="prefix__Path_1012" d="M1006.412 126.194a.34.34 0 01-.3-.18 4.666 4.666 0 01-.265-.6.335.335 0 010-.228 3.541 3.541 0 00.2-.964.343.343 0 01.345-.323.347.347 0 01.344.323c.005.085.016.17.026.249 0 .016.005.032.005.048v1.33a.341.341 0 01-.26.334.588.588 0 01-.095.011z" class="prefix__cls-1" data-name="Path 1012" transform="translate(-1005.825 -123.9)"/>
            </g>
            <g id="prefix__Group_320" data-name="Group 320" transform="translate(19.566 .233)">
                <path id="prefix__Path_1013" d="M1001.3 131.656v.789a3.844 3.844 0 00.588-1.086 3.882 3.882 0 01-.212-1.06 3.425 3.425 0 01-.376 1.357z" class="prefix__cls-1" data-name="Path 1013" transform="translate(-1000.956 -129.956)"/>
                <path id="prefix__Path_1014" d="M995.144 126.635a.4.4 0 01-.111-.016.349.349 0 01-.233-.328v-.791a.334.334 0 01.037-.159 3.152 3.152 0 00.339-1.219.347.347 0 01.344-.323.347.347 0 01.344.323 3.544 3.544 0 00.2.964.336.336 0 010 .228 4.268 4.268 0 01-.641 1.181.344.344 0 01-.279.14z" class="prefix__cls-1" data-name="Path 1014" transform="translate(-994.8 -123.8)"/>
            </g>
            <g id="prefix__Group_321" data-name="Group 321" transform="translate(20.355 .005)">
                <path id="prefix__Path_1015" d="M1016.211 126.233c.005-.079.005-.154.005-.233h-.016c0 .079.005.154.011.233z" class="prefix__cls-1" data-name="Path 1015" transform="translate(-1015.856 -125.656)"/>
                <path id="prefix__Path_1016" d="M1010.055 120.422a.347.347 0 01-.344-.323c-.005-.1-.011-.18-.011-.254a.344.344 0 01.344-.344h.016a.344.344 0 01.344.344c0 .079-.005.159-.011.254a.339.339 0 01-.339.323z" class="prefix__cls-1" data-name="Path 1016" transform="translate(-1009.7 -119.5)"/>
            </g>
            <g id="prefix__Group_322" data-name="Group 322" transform="translate(12.731)">
                <path id="prefix__Path_1017" d="M872.575 126a3.993 3.993 0 01-.175 1.16 3.843 3.843 0 00.2.5V126z" class="prefix__cls-1" data-name="Path 1017" transform="translate(-872.05 -125.65)"/>
                <path id="prefix__Path_1018" d="M866.346 121.758a.345.345 0 01-.313-.2 4.374 4.374 0 01-.217-.551.343.343 0 010-.207 3.592 3.592 0 00.159-1.06.344.344 0 01.344-.344h.021a.344.344 0 01.344.344v1.669a.34.34 0 01-.27.334.157.157 0 01-.068.015z" class="prefix__cls-1" data-name="Path 1018" transform="translate(-865.8 -119.4)"/>
            </g>
            <g id="prefix__Group_323" data-name="Group 323" transform="translate(12.933 .005)">
                <path id="prefix__Path_1019" d="M879.634 129.386a3.489 3.489 0 01-3.486-3.486h-.048v1.669a3.9 3.9 0 006.633.71v-.789a3.483 3.483 0 01-3.099 1.896z" class="prefix__cls-1" data-name="Path 1019" transform="translate(-875.756 -125.561)"/>
                <path id="prefix__Path_1020" d="M873.478 124.094a4.282 4.282 0 01-3.846-2.437.355.355 0 01-.032-.148v-1.664a.344.344 0 01.344-.344h.048a.344.344 0 01.344.344 3.139 3.139 0 005.934 1.431.336.336 0 01.387-.175.346.346 0 01.265.334v.789a.388.388 0 01-.069.212 4.238 4.238 0 01-3.375 1.658z" class="prefix__cls-1" data-name="Path 1020" transform="translate(-869.6 -119.5)"/>
            </g>
            <g id="prefix__Group_324" data-name="Group 324" transform="translate(12.557)">
                <path id="prefix__Path_1021" d="M869.355 126H869a4 4 0 00.175 1.16 3.824 3.824 0 00.18-1.16z" class="prefix__cls-1" data-name="Path 1021" transform="translate(-868.656 -125.65)"/>
                <path id="prefix__Path_1022" d="M863.019 121.254a.34.34 0 01-.328-.244 4.242 4.242 0 01-.191-1.266.344.344 0 01.344-.344h.355a.344.344 0 01.344.344 4.267 4.267 0 01-.191 1.266.347.347 0 01-.333.244z" class="prefix__cls-1" data-name="Path 1022" transform="translate(-862.5 -119.4)"/>
            </g>
            <g id="prefix__Group_325" data-name="Group 325" transform="translate(19.942 .005)">
                <path id="prefix__Path_1023" d="M1008.719 126h-.408c0 .079-.005.154-.011.233a.551.551 0 10.424 0c0-.079-.005-.154-.005-.233z" class="prefix__cls-1" data-name="Path 1023" transform="translate(-1007.961 -125.656)"/>
                <path id="prefix__Path_1024" d="M1002.456 121.476a.338.338 0 01-.323-.228 4.261 4.261 0 01-.233-1.15v-.042c.005-.079.005-.148.005-.212a.344.344 0 01.344-.344h.408a.344.344 0 01.344.344c0 .064 0 .127.005.212v.042a4.073 4.073 0 01-.233 1.15.331.331 0 01-.317.228z" class="prefix__cls-1" data-name="Path 1024" transform="translate(-1001.9 -119.5)"/>
            </g>
        </g>
        <g id="prefix__Group_328" data-name="Group 328" transform="translate(8.594 14.475)">
            <g id="prefix__Group_327" data-name="Group 327">
                <path id="prefix__Path_1025" d="M802.731 299.4h-.424v-10.376h-6.978l.117 10.257-.424.005-.122-10.686h7.831z" class="prefix__cls-1" data-name="Path 1025" transform="translate(-794.561 -288.261)"/>
                <path id="prefix__Path_1026" d="M796.67 293.686h-.424a.344.344 0 01-.344-.344v-10.035h-6.284l.117 9.913a.347.347 0 01-.339.35l-.424.005a.328.328 0 01-.244-.1.368.368 0 01-.106-.244l-.122-10.686a.344.344 0 01.345-.344h7.831a.344.344 0 01.344.344v10.8a.351.351 0 01-.35.341z" class="prefix__cls-1" data-name="Path 1026" transform="translate(-788.5 -282.2)"/>
            </g>
        </g>
    </g>
</svg>
