<svg xmlns="http://www.w3.org/2000/svg" width="28.391" height="28.318" viewBox="0 0 28.391 28.318">
    <defs>
        <style>
            .prefix__cls-1{fill:#359bdb;stroke:#359bdb;stroke-width:.75px}
        </style>
    </defs>
    <g id="prefix__noun_invoice_2823770" transform="translate(.375 .375)">
        <g id="prefix__Group_975" data-name="Group 975">
            <g id="prefix__Group_968" data-name="Group 968" transform="translate(5.241)">
                <g id="prefix__Group_967" data-name="Group 967">
                    <path id="prefix__Path_2703" d="M246.7 53.647v22.674c0 .054-.006.1-.012.144-.015.144.018-.081 0 .024a2.645 2.645 0 01-.069.3c-.012.045-.027.09-.042.135-.009.021-.057.168-.027.078s-.024.054-.036.072c-.024.048-.048.093-.075.141-.045.081-.1.159-.147.234-.012.015-.024.03-.036.048-.045.066.075-.087.021-.027-.036.039-.069.081-.1.12-.063.066-.126.132-.195.192-.021.018-.084.09-.1.087 0 0 .1-.072.042-.033l-.081.057c-.075.051-.156.1-.237.144l-.123.063c-.006 0-.048.027-.054.024.075-.033.093-.039.051-.021l-.036.015c-.09.03-.177.06-.267.084-.045.012-.093.024-.138.033-.021 0-.039.009-.06.012-.12.021 0 .021.018 0-.027.033-.249.018-.291.018-.1 0-.207-.009-.311-.015-.069-.006.057.009.057.009a.352.352 0 00-.081-.012c-.045-.009-.093-.018-.138-.03a2.626 2.626 0 01-.288-.087.69.69 0 01-.075-.027c0-.006.111.054.051.021-.039-.021-.084-.039-.126-.06-.087-.045-.171-.093-.255-.147-.039-.024-.075-.051-.111-.078-.087-.06.084.075-.015-.015-.072-.066-.144-.129-.213-.2-.03-.033-.063-.066-.09-.1s-.033-.042-.051-.06c-.045-.051.039.045.033.045-.03 0-.147-.216-.162-.243-.045-.078-.081-.165-.126-.243s.039.111.015.033l-.021-.054c-.018-.051-.036-.1-.051-.15a2.128 2.128 0 01-.066-.273.35.35 0 00-.015-.081s.015.126.009.057-.012-.108-.015-.165 0-.114 0-.174v-5.124a1.8 1.8 0 00-1.18-1.722 4.078 4.078 0 00-1.378-.1h-14l.6.6V54.255v-.642a.2.2 0 010-.042c.006-.066 0-.054-.006.039a.589.589 0 00.018-.078.856.856 0 01.036-.114s-.063.126 0 0c.015-.03.033-.054.048-.084.069-.129-.069.063.009-.018a1.15 1.15 0 01.138-.135s-.117.078 0 0c.033-.021.069-.036.1-.057.108-.06-.09.012-.018.009.03 0 .066-.021.1-.027l.039-.009c.066-.012.051-.012-.039 0a.8.8 0 01.123-.006H244.3c.614 0 1.228-.009 1.842 0h.084c.129 0-.09-.033-.018 0a.9.9 0 00.1.024c.012 0 .024.009.039.012.06.021.051.015-.033-.018a.584.584 0 01.1.054c.021.012.045.027.066.042.114.063-.093-.093 0 0a1.444 1.444 0 01.135.138s-.078-.117 0 0c.021.033.039.069.057.1.054.1-.021-.033-.015-.036s.033.1.036.114l.009.039c.012.066.012.051 0-.039.009-.009.009.1.009.114a.6.6 0 101.2 0 1.771 1.771 0 00-1.39-1.713 2.338 2.338 0 00-.455-.039h-18.344c-.183 0-.368-.009-.551 0a1.776 1.776 0 00-1.659 1.587 2.24 2.24 0 00-.012.282v16.1a.609.609 0 00.6.6h14.8c.039 0 .075 0 .114.006.066 0-.057-.006-.06-.009a.591.591 0 00.078.018c.027.006.051.015.075.021.069.018 0 0 0 0s-.06-.033 0 0l.069.036c.021.012.045.027.066.042.084.048-.033-.021-.027-.024a1.169 1.169 0 01.1.09c.018.018.033.039.051.057.048.045-.042-.042-.033-.045a.851.851 0 01.072.114.5.5 0 00.036.069c.036.06-.027-.1-.018-.033a1.3 1.3 0 00.036.135c.027.1-.006-.12 0 .021v4.762a7.108 7.108 0 00.021.839 3.292 3.292 0 001.363 2.312 3.208 3.208 0 002.587.488 3.283 3.283 0 002.468-3.189V53.653a.6.6 0 00-1.2-.006z" class="prefix__cls-1" data-name="Path 2703" transform="translate(-225.5 -51.892)"/>
                </g>
            </g>
            <g id="prefix__Group_970" data-name="Group 970" transform="translate(9.253 5.687)">
                <g id="prefix__Group_969" data-name="Group 969">
                    <path id="prefix__Path_2704" d="M360.081 242.982h11.551c.536 0 1.072.015 1.605 0h.024a.6.6 0 100-1.2h-11.55c-.536 0-1.072-.015-1.605 0h-.024a.6.6 0 100 1.2z" class="prefix__cls-1" data-name="Path 2704" transform="translate(-359.482 -241.778)"/>
                </g>
            </g>
            <g id="prefix__Group_972" data-name="Group 972" transform="translate(9.25 11.526)">
                <g id="prefix__Group_971" data-name="Group 971">
                    <path id="prefix__Path_2705" d="M373.161 436.784h-11.55c-.536 0-1.072-.015-1.605 0h-.024a.6.6 0 100 1.2h11.551c.536 0 1.072.015 1.605 0h.024a.6.6 0 100-1.2z" class="prefix__cls-1" data-name="Path 2705" transform="translate(-359.382 -436.778)"/>
                </g>
            </g>
            <g id="prefix__Group_974" data-name="Group 974" transform="translate(0 17.367)">
                <g id="prefix__Group_973" data-name="Group 973">
                    <path id="prefix__Path_2706" d="M74.933 640.8H53.784c-.072 0-.147 0-.219-.006-.042 0-.129.009-.165-.015.051.033.111.018.039 0l-.081-.015a2.424 2.424 0 01-.347-.1l-.075-.027c-.108-.039.033.015.033.015l-.159-.078a2.49 2.49 0 01-.285-.174c-.012-.009-.108-.09-.033-.024s0 0-.015-.015c-.039-.033-.078-.069-.117-.1-.087-.081-.159-.171-.24-.258-.054-.057.066.1.021.03l-.045-.063c-.033-.048-.066-.1-.1-.147s-.054-.09-.078-.138l-.036-.072-.018-.036c-.027-.06-.021-.048.012.033-.054-.036-.087-.24-.1-.3s-.027-.1-.039-.156l-.015-.081c-.03-.138.012.138 0 0-.009-.1-.015-.21-.015-.315v-5.187-.084c0-.108 0 .024-.006.039a.476.476 0 00.027-.117.753.753 0 01.024-.075c.012 0-.06.117-.015.036.024-.045.051-.09.078-.135.057-.1-.018.036-.024.027l.051-.057a.732.732 0 01.069-.066c.093-.093-.015.012-.015.009a1.259 1.259 0 01.132-.081.751.751 0 01.069-.033c.009.009-.138.042-.015.012.027-.006.051-.015.078-.021.006 0 .012 0 .018-.006.054-.009.051-.009 0 0-.012 0-.027 0-.039.006.021 0 .042 0 .06-.006s.021 0 .063 0H71.246c.1 0-.042.006-.039-.006a1.4 1.4 0 01.153.039c.093.021-.048 0-.033-.018 0 0 .06.03.069.033a.477.477 0 01.066.039.272.272 0 01.048.033q.054.04-.045-.036a1.147 1.147 0 01.114.1l.051.057c-.012.015-.072-.111-.024-.027l.078.135c.054.1-.021-.033-.015-.036s.03.1.036.114c0-.006.018.078.018.078s-.009-.135-.006-.039v5.151a3.324 3.324 0 00.572 1.974 3.273 3.273 0 002.65 1.39.6.6 0 00.6-.6.621.621 0 00-.6-.6c-.063 0-.126 0-.189-.006-.027 0-.054 0-.084-.006s-.084-.039-.021 0 .018 0-.021-.006-.066-.012-.1-.021c-.06-.012-.117-.027-.177-.045s-.114-.036-.171-.057a.357.357 0 01-.075-.03s.135.063.033.012-.21-.108-.311-.171c-.045-.027-.087-.06-.129-.09-.093-.066.027.024.027.021a.418.418 0 01-.06-.051 2.431 2.431 0 01-.252-.246c-.018-.021-.141-.159-.078-.09s-.045-.063-.057-.081a2.606 2.606 0 01-.177-.305l-.033-.072c-.042-.075.051.141.006.015l-.054-.15a3.567 3.567 0 01-.087-.353c-.015-.072-.03-.012 0 .039a.258.258 0 01-.009-.081 1.517 1.517 0 01-.009-.165v-4.115-1.153a1.778 1.778 0 00-1.755-1.779c-.4-.006-.794 0-1.192 0H52.359a1.8 1.8 0 00-1.435.629 1.817 1.817 0 00-.41 1.162v2.165c0 1-.006 2 0 3a3.262 3.262 0 001.315 2.6 3.217 3.217 0 001.938.629h21.172a.6.6 0 00.6-.6.62.62 0 00-.606-.599z" class="prefix__cls-1" data-name="Path 2706" transform="translate(-50.511 -631.811)"/>
                </g>
            </g>
        </g>
    </g>
</svg>
