<svg xmlns="http://www.w3.org/2000/svg" width="22.817" height="27.166" viewBox="0 0 22.817 27.166">
    <defs>
        <style>
            .prefix__cls-1{fill:#3f566f}
        </style>
    </defs>
    <g id="prefix__transfer-2">
        <path id="prefix__Path_2691" d="M12.439 8.035a1.376 1.376 0 00-.2-1.481L6.975.32a.9.9 0 00-1.381 0L.331 6.554a1.376 1.376 0 00-.2 1.481 1.394 1.394 0 001.278.812h1.035l.74 5.912a3.131 3.131 0 006.2 0l.74-5.912h1.035a1.394 1.394 0 001.28-.812zm-2.921-.78a.9.9 0 00-.9.789l-.816 6.517a1.539 1.539 0 01-3.045 0l-.81-6.516a.9.9 0 00-.9-.79H1.821L6.285 1.97l4.464 5.285zm0 0" class="prefix__cls-1" data-name="Path 2691"/>
        <path id="prefix__Path_2692" d="M205.547 192.236a1.394 1.394 0 00-1.278-.812h-1.035l-.74-5.912a3.13 3.13 0 00-6.2 0l-.74 5.912h-1.035a1.394 1.394 0 00-1.278.812 1.376 1.376 0 00.2 1.481l5.265 6.234a.9.9 0 001.38 0l5.265-6.234a1.376 1.376 0 00.196-1.481zm-6.154 6.065l-4.464-5.285h1.23a.9.9 0 00.9-.789l.816-6.517a1.539 1.539 0 013.045 0l.815 6.517a.9.9 0 00.9.79h1.23zm0 0" class="prefix__cls-1" data-name="Path 2692" transform="translate(-182.861 -173.105)"/>
    </g>
</svg>
