<svg xmlns="http://www.w3.org/2000/svg" width="27.417" height="27.417" viewBox="0 0 27.417 27.417">
    <path id="prefix__user_2_" d="M23.4 4.015A13.709 13.709 0 004.015 23.4 13.709 13.709 0 0023.4 4.015zM6.873 23.69a6.942 6.942 0 0113.672 0 12.076 12.076 0 01-13.672 0zm2.477-11.7a4.359 4.359 0 114.359 4.359 4.364 4.364 0 01-4.359-4.361zm12.586 10.585a8.562 8.562 0 00-4.977-5.588 5.965 5.965 0 10-6.5 0 8.56 8.56 0 00-4.977 5.588 12.1 12.1 0 1116.455 0zm0 0" data-name="user (2)" style="fill:#fafafa"/>
</svg>
