<svg xmlns="http://www.w3.org/2000/svg" id="prefix__gear_1_" width="26.125" height="26.125" data-name="gear (1)" viewBox="0 0 26.125 26.125">
    <defs>
        <style>
            .prefix__cls-1{fill:#fafafa}
        </style>
    </defs>
    <path id="prefix__Path_2707" d="M139.854 133.609a6.245 6.245 0 106.245 6.245 6.252 6.252 0 00-6.245-6.245zm0 10.929a4.684 4.684 0 114.684-4.684 4.689 4.689 0 01-4.684 4.684zm0 0" class="prefix__cls-1" data-name="Path 2707" transform="translate(-126.792 -126.792)"/>
    <path id="prefix__Path_2708" d="M25.51 10.088l-2.01-.437a10.928 10.928 0 00-.646-1.558l1.112-1.729a.781.781 0 00-.1-.974l-3.131-3.128a.781.781 0 00-.974-.1l-1.729 1.107a10.928 10.928 0 00-1.558-.646L16.037.615A.781.781 0 0015.274 0h-4.423a.781.781 0 00-.763.615l-.437 2.008a10.928 10.928 0 00-1.558.646L6.364 2.157a.781.781 0 00-.974.1L2.262 5.39a.781.781 0 00-.1.974l1.107 1.729a10.928 10.928 0 00-.646 1.558l-2.008.437a.781.781 0 00-.615.763v4.424a.781.781 0 00.615.763l2.008.437a10.928 10.928 0 00.646 1.558l-1.112 1.728a.781.781 0 00.1.974l3.133 3.128a.781.781 0 00.974.1l1.729-1.112a10.928 10.928 0 001.558.646l.437 2.008a.781.781 0 00.763.615h4.424a.781.781 0 00.763-.615l.437-2.008a10.928 10.928 0 001.558-.646l1.729 1.112a.781.781 0 00.974-.1l3.128-3.128a.781.781 0 00.1-.974l-1.112-1.729a10.928 10.928 0 00.646-1.558l2.008-.437a.781.781 0 00.615-.763v-4.423a.781.781 0 00-.611-.763zm-.947 4.557l-1.841.4a.781.781 0 00-.586.553 9.366 9.366 0 01-.865 2.086.78.78 0 00.023.806l1.02 1.586-2.238 2.238-1.586-1.02a.78.78 0 00-.806-.023 9.372 9.372 0 01-2.086.865.781.781 0 00-.553.586l-.4 1.841H11.48l-.4-1.841a.781.781 0 00-.553-.586 9.366 9.366 0 01-2.086-.865.781.781 0 00-.806.023l-1.586 1.02-2.238-2.238L4.83 18.49a.78.78 0 00.023-.806 9.376 9.376 0 01-.864-2.084.781.781 0 00-.586-.553l-1.841-.4V11.48l1.841-.4a.781.781 0 00.586-.553 9.366 9.366 0 01.865-2.086.78.78 0 00-.023-.806l-1.02-1.586 2.238-2.238L7.635 4.83a.78.78 0 00.806.023 9.372 9.372 0 012.086-.865.781.781 0 00.553-.588l.4-1.841h3.165l.4 1.841a.781.781 0 00.553.586 9.366 9.366 0 012.086.865.781.781 0 00.806-.023l1.586-1.02 2.238 2.238-1.019 1.589a.78.78 0 00-.023.806 9.367 9.367 0 01.865 2.086.781.781 0 00.586.553l1.841.4zm0 0" class="prefix__cls-1" data-name="Path 2708"/>
</svg>
