<svg xmlns="http://www.w3.org/2000/svg" width="29.07" height="27.5" viewBox="0 0 29.07 27.5">
    <g id="prefix__Layer_2" data-name="Layer 2" transform="translate(.5 .539)">
        <g id="prefix__Layer_1" data-name="Layer 1">
            <path id="prefix__Path_990" d="M28.129 12.148V12.1a.451.451 0 000-.071l-.081-.1-.076-.081L14.435.13a.543.543 0 00-.705 0L.2 11.85c-.033.033-.049.054-.038.049a.353.353 0 00-.092.141v.1a.472.472 0 000 .1v13.679a.543.543 0 00.543.543h9.815a.543.543 0 00.543-.543v-5.692H17.2v5.686a.543.543 0 00.543.543h9.853a.543.543 0 00.543-.543V12.148zm-10.39 6.994h-7.314a.543.543 0 00-.543.543v5.686H1.115V12.479l12.967-11.22 12.968 11.22v12.892h-8.768v-5.686a.543.543 0 00-.543-.543z" data-name="Path 990" transform="translate(-.065)" style="fill:#3f566f;stroke:#3e546d"/>
        </g>
    </g>
</svg>
