<svg xmlns="http://www.w3.org/2000/svg" id="_Group_2" width="79.164" height="73.679" data-name="Group 2" viewBox="0 0 79.164 73.679">
    <defs>
        <style>
            .cls-1{fill:#f8ec7d}.cls-2{fill:#6fe3ff}.cls-3{fill:#c16752}.cls-4{fill:#af593c}.cls-5{fill:#e48e66}.cls-6{fill:#2561a1}
        </style>
    </defs>
    <path id="Path_741" d="M343.023 234.906v33.331a3.808 3.808 0 0 1-3.806 3.808h-22.6a3.807 3.807 0 0 1-3.806-3.807v-33.332a3.806 3.806 0 0 1 3.807-3.806h5.14v.012a2.83 2.83 0 0 0 2.831 2.83h6.657a2.83 2.83 0 0 0 2.83-2.831v-.011h5.141a3.807 3.807 0 0 1 3.807 3.806zm-19.639 21.1v-5.439h-5.438v5.439z" class="cls-1" data-name="Path 741" transform="translate(-263.858 -198.367)"/>
    <path id="Path_742" d="M367.06 215.893v-.173a2.83 2.83 0 0 1 2.831-2.83h6.657a2.83 2.83 0 0 1 2.83 2.831v.184a2.83 2.83 0 0 1-2.831 2.83h-6.657a2.83 2.83 0 0 1-2.83-2.831z" class="cls-2" data-name="Path 742" transform="translate(-309.161 -183.161)"/>
    <path id="Path_743" d="M234.6 140.972v11.86h-1.169a2.83 2.83 0 0 0-2.83 2.831v.173h-5.141a3.806 3.806 0 0 0-3.806 3.807v24.54l-18 10.394v-35.741L234.6 140.97z" class="cls-3" data-name="Path 743" transform="translate(-172.702 -123.102)"/>
    <path id="Path_744" d="M123.767 112.707L107.99 103.6l30.945-17.87 15.777 9.11z" class="cls-4" data-name="Path 744" transform="translate(-92.819 -76.972)"/>
    <path id="Rectangle_251" d="M0 0h5.438v5.439H0z" class="cls-2" data-name="Rectangle 251" transform="translate(54.087 52.202)"/>
    <path id="Path_745" d="M62.133 41.388L31.188 59.256 16.02 50.5l30.945-17.87z" class="cls-3" data-name="Path 745" transform="translate(-16.017 -32.63)"/>
    <path id="Path_746" d="M46.948 158.836v35.739L16 176.708v-35.736l15.168 8.758z" class="cls-5" data-name="Path 746" transform="translate(-16 -123.102)"/>
    <path id="Path_747" d="M339.313 285.778H338.1a1.154 1.154 0 0 1-1.154-1.154v-5.439a1.155 1.155 0 0 1 1.155-1.154h5.438a1.154 1.154 0 0 1 1.154 1.154v.777a1.154 1.154 0 0 1-2.246.378h-3.192v3.13h.054a1.154 1.154 0 0 1 0 2.309z" class="cls-2" data-name="Path 747" transform="translate(-284.017 -237.557)"/>
    <path id="Path_748" d="M339.313 414.017H338.1a1.154 1.154 0 0 1-1.154-1.154v-5.438a1.154 1.154 0 0 1 1.155-1.154h5.438a1.155 1.155 0 0 1 1.154 1.155v1.112a1.155 1.155 0 1 1-2.309.043h-3.129v3.129h.054a1.154 1.154 0 0 1 0 2.309z" class="cls-2" data-name="Path 748" transform="translate(-284.017 -344.647)"/>
    <path id="Path_749" d="M357.35 291.052a1.15 1.15 0 0 1-.816-.338l-1.846-1.844a1.155 1.155 0 0 1 1.633-1.633l1.029 1.028 3.381-3.381a1.155 1.155 0 0 1 1.633 1.633l-4.2 4.2a1.151 1.151 0 0 1-.814.335z" class="cls-6" data-name="Path 749" transform="translate(-298.547 -242.999)"/>
    <path id="Path_750" d="M357.35 420.3a1.15 1.15 0 0 1-.816-.338l-1.846-1.844a1.155 1.155 0 0 1 1.633-1.633l1.029 1.028 3.381-3.381a1.155 1.155 0 0 1 1.633 1.633l-4.2 4.2a1.151 1.151 0 0 1-.814.335z" class="cls-6" data-name="Path 750" transform="translate(-298.547 -350.933)"/>
    <path id="Path_751" d="M422.3 296.829h-7.252a1.154 1.154 0 1 1 0-2.309h7.252a1.154 1.154 0 0 1 0 2.309z" class="cls-5" data-name="Path 751" transform="translate(-348.268 -251.328)"/>
    <path id="Path_752" d="M422.3 360.949h-7.252a1.154 1.154 0 0 1 0-2.309h7.252a1.154 1.154 0 1 1 0 2.309z" class="cls-5" data-name="Path 752" transform="translate(-348.268 -304.873)"/>
    <path id="Path_753" d="M422.3 425.069h-7.252a1.154 1.154 0 1 1 0-2.309h7.252a1.154 1.154 0 1 1 0 2.309z" class="cls-5" data-name="Path 753" transform="translate(-348.268 -358.418)"/>
</svg>
