<svg id="basket" xmlns="http://www.w3.org/2000/svg" width="98.896" height="86.814" viewBox="0 0 98.896 86.814">
  <defs>
    <style>
      .cls-1 {
        fill: #80cf00;
      }

      .cls-2 {
        fill: #f5d573;
      }

      .cls-3 {
        fill: #f3cc50;
      }

      .cls-4 {
        fill: #f98091;
      }

      .cls-5 {
        fill: #eb6e6a;
      }

      .cls-6 {
        fill: #be4e4a;
      }

      .cls-7 {
        fill: #771f1f;
      }

      .cls-8 {
        fill: #efe2dd;
      }

      .cls-9 {
        fill: #e1d3ce;
      }

      .cls-10 {
        fill: #c9f0ff;
      }

      .cls-11 {
        fill: #9ae7fd;
      }

      .cls-12 {
        fill: #f78e3c;
      }

      .cls-13 {
        fill: #e8782d;
      }

      .cls-14 {
        fill: #ffe68d;
      }

      .cls-15 {
        fill: #ffd000;
      }

      .cls-16 {
        fill: #566575;
      }

      .cls-17 {
        fill: #3f566f;
      }

      .cls-18 {
        fill: #838383;
      }

      .cls-19 {
        fill: #b98524;
      }
    </style>
  </defs>
  <path id="Path_354" data-name="Path 354" class="cls-1" d="M35.236,34.5a1.537,1.537,0,0,0-2.062.689l-1.548,3.1-1.362-5.62a1.537,1.537,0,1,0-2.988.724l1.362,5.62-2.794-2.047a1.538,1.538,0,1,0-1.817,2.481l6.188,4.532c.011.008.023.014.035.021.042.029.086.054.131.079.029.017.058.034.088.048a1.427,1.427,0,0,0,.133.053c.033.012.066.026.1.035a1.31,1.31,0,0,0,.134.029c.035.007.071.017.106.02l.011,0a1.538,1.538,0,0,0,.212.008.069.069,0,0,1,.013,0h.008a1.642,1.642,0,0,0,.183-.019l.063-.013c.042-.008.083-.018.125-.03l.064-.02c.041-.014.081-.029.121-.047l.056-.025c.044-.021.086-.045.128-.07l.038-.023a1.555,1.555,0,0,0,.3-.25c.013-.014.025-.031.038-.046s.048-.054.069-.084c.006-.008.01-.016.016-.024s.02-.03.03-.046c.027-.041.051-.084.074-.127a.271.271,0,0,0,.015-.025l3.426-6.863A1.539,1.539,0,0,0,35.236,34.5Zm0,0" transform="translate(-18.879 -25.411)"/>
  <path id="Path_355" data-name="Path 355" class="cls-2" d="M394.34,12.811H377.384a1.157,1.157,0,0,1-1.157-1.157V1.157A1.158,1.158,0,0,1,377.384,0H394.34A1.158,1.158,0,0,1,395.5,1.157v10.5A1.157,1.157,0,0,1,394.34,12.811Zm0,0" transform="translate(-303.556 0)"/>
  <path id="Path_356" data-name="Path 356" class="cls-3" d="M448.6,12.811H443.48V0H448.6a1.158,1.158,0,0,1,1.157,1.157v10.5A1.157,1.157,0,0,1,448.6,12.811Zm0,0" transform="translate(-357.819 0)"/>
  <path id="Path_357" data-name="Path 357" class="cls-4" d="M371.113,74.238V66.324H356.7v7.913a5.754,5.754,0,0,1-1.412,3.776l-4.733,5.445a5.754,5.754,0,0,0-1.412,3.776V94.73h29.529V87.235a5.754,5.754,0,0,0-1.412-3.776l-4.733-5.445A5.757,5.757,0,0,1,371.113,74.238Zm0,0" transform="translate(-281.702 -53.513)"/>
  <path id="Path_358" data-name="Path 358" class="cls-5" d="M449.448,87.239v7.495h-5.027V87.239a5.75,5.75,0,0,0-1.413-3.777l-4.732-5.444a5.755,5.755,0,0,1-1.413-3.776V66.328h5.027v7.913a5.755,5.755,0,0,0,1.412,3.776l4.732,5.444A5.749,5.749,0,0,1,449.448,87.239Zm0,0" transform="translate(-352.48 -53.516)"/>
  <path id="Path_359" data-name="Path 359" class="cls-6" d="M181.827,126.621h-30.87l-3.309,5.006a4.783,4.783,0,0,0-.793,2.638v9.069h39.073v-9.069a4.781,4.781,0,0,0-.793-2.638Zm0,0" transform="translate(-118.489 -102.163)"/>
  <path id="Path_360" data-name="Path 360" class="cls-7" d="M310.377,134.266v9.069H305.2v-9.069a4.781,4.781,0,0,0-.793-2.638l-3.308-5.007h5.178l3.309,5.007A4.787,4.787,0,0,1,310.377,134.266Zm0,0" transform="translate(-242.939 -102.163)"/>
  <path id="Path_361" data-name="Path 361" class="cls-8" d="M189.38,93.493H155.6a1.187,1.187,0,0,1-1.187-1.187V86.749a1.187,1.187,0,0,1,1.187-1.187H189.38a1.187,1.187,0,0,1,1.187,1.187v5.557A1.187,1.187,0,0,1,189.38,93.493Zm0,0" transform="translate(-124.588 -69.035)"/>
  <path id="Path_362" data-name="Path 362" class="cls-9" d="M317.391,93.493h-4.32V85.562h4.32a1.187,1.187,0,0,1,1.187,1.187v5.557A1.187,1.187,0,0,1,317.391,93.493Zm0,0" transform="translate(-252.599 -69.035)"/>
  <path id="Path_363" data-name="Path 363" class="cls-10" d="M208.064,175.444H182.926v-8.03a1,1,0,0,1,1-1h23.146a1,1,0,0,1,1,1Zm0,0" transform="translate(-147.592 -134.273)"/>
  <path id="Path_364" data-name="Path 364" class="cls-11" d="M292.31,175.44h-4.97v-9.026h3.974a1,1,0,0,1,1,1Zm0,0" transform="translate(-231.838 -134.27)"/>
  <path id="Path_365" data-name="Path 365" class="cls-12" d="M40.049,90.158a10.4,10.4,0,0,0-8.867-7.58,16.941,16.941,0,0,0-4.736.153,16.926,16.926,0,0,0-4.412,1.729,10.4,10.4,0,0,0-5.152,10.466,53.327,53.327,0,0,0,4.965,15.964l9.972-2.053,9.972-2.052A53.318,53.318,0,0,0,40.049,90.158Zm0,0" transform="translate(-13.543 -66.549)"/>
  <path id="Path_366" data-name="Path 366" class="cls-13" d="M74.193,106.786l-4.651.958a55.316,55.316,0,0,0-1.851-16.453,10.822,10.822,0,0,0-9.226-7.89c-.532-.057-1.044-.088-1.524-.1a14.857,14.857,0,0,1,1.9-.574,16.979,16.979,0,0,1,4.737-.153,10.4,10.4,0,0,1,8.866,7.579A53.294,53.294,0,0,1,74.193,106.786Zm0,0" transform="translate(-45.943 -66.551)"/>
  <path id="Path_367" data-name="Path 367" class="cls-14" d="M73.786,247.523H30.164l5.524,31.811a8.676,8.676,0,0,0,8.549,7.192h59.1a8.676,8.676,0,0,0,8.549-7.192l5.524-31.811Zm0,0" transform="translate(-24.338 -199.713)"/>
  <path id="Path_368" data-name="Path 368" class="cls-15" d="M397.593,247.523l-5.524,31.812a8.675,8.675,0,0,1-8.549,7.191h-6.095a8.675,8.675,0,0,0,8.549-7.191l5.524-31.812Zm0,0" transform="translate(-304.524 -199.713)"/>
  <path id="Path_369" data-name="Path 369" class="cls-16" d="M97.9,206.92H1a1,1,0,0,1-1-1V198.2a1,1,0,0,1,1-1H97.9a1,1,0,0,1,1,1v7.729A1,1,0,0,1,97.9,206.92Zm0,0" transform="translate(0 -159.109)"/>
  <path id="Path_370" data-name="Path 370" class="cls-17" d="M486.666,206.92h-4.83V197.2h4.83a1,1,0,0,1,1,1v7.729A1,1,0,0,1,486.666,206.92Zm0,0" transform="translate(-388.766 -159.109)"/>
  <path id="Path_371" data-name="Path 371" class="cls-18" d="M39.117,127.855a1.48,1.48,0,0,0,.3-.031l4.264-.877a1.494,1.494,0,0,0-.6-2.927l-4.263.878a1.494,1.494,0,0,0,.3,2.957Zm0,0" transform="translate(-30.357 -100.039)"/>
  <path id="Path_372" data-name="Path 372" class="cls-18" d="M89.724,155.608a1.483,1.483,0,0,0,.3-.031l4.264-.878a1.494,1.494,0,0,0-.6-2.927l-4.264.878a1.494,1.494,0,0,0,.3,2.957Zm0,0" transform="translate(-71.188 -122.432)"/>
  <g id="Group_64" data-name="Group 64" transform="translate(18.119 56.578)">
    <path id="Path_373" data-name="Path 373" class="cls-19" d="M103.3,311.857a1.5,1.5,0,0,0,1.469-1.774l-3.839-20.118a1.494,1.494,0,1,0-2.934.56l3.838,20.118A1.5,1.5,0,0,0,103.3,311.857Zm0,0" transform="translate(-97.967 -288.751)"/>
    <path id="Path_374" data-name="Path 374" class="cls-19" d="M198.024,311.858c.042,0,.084,0,.126,0a1.494,1.494,0,0,0,1.364-1.613l-1.68-20.118a1.494,1.494,0,0,0-2.977.249l1.68,20.117A1.493,1.493,0,0,0,198.024,311.858Zm0,0" transform="translate(-176.138 -288.752)"/>
    <path id="Path_375" data-name="Path 375" class="cls-19" d="M380.185,311.857a1.5,1.5,0,0,0,1.466-1.214l3.838-20.118a1.494,1.494,0,1,0-2.934-.56l-3.839,20.118a1.5,1.5,0,0,0,1.469,1.774Zm0,0" transform="translate(-324.466 -288.751)"/>
    <path id="Path_376" data-name="Path 376" class="cls-19" d="M294.48,311.857a1.493,1.493,0,0,0,1.487-1.369l1.68-20.118a1.494,1.494,0,0,0-2.977-.248l-1.68,20.118a1.493,1.493,0,0,0,1.364,1.612C294.4,311.856,294.438,311.857,294.48,311.857Zm0,0" transform="translate(-255.316 -288.752)"/>
  </g>
</svg>
