<svg xmlns="http://www.w3.org/2000/svg" id="computer" width="79.048" height="79.032" viewBox="0 0 79.048 79.032">
    <defs>
        <style>
            .cls-1{fill:#41596b}.cls-2{fill:#fff}.cls-3{fill:#abb2b9}.cls-4{fill:#cdd5df}.cls-5{fill:#99a0a3}.cls-6{fill:#62a5e7}.cls-7{fill:#ffd05c}.cls-8{fill:#f2705b}
        </style>
    </defs>
    <path id="Path_720" d="M75.734.05H3.3A3.3 3.3 0 0 0 0 3.348V59.34a3.3 3.3 0 0 0 3.3 3.3h72.45a3.3 3.3 0 0 0 3.3-3.3V3.348A3.323 3.323 0 0 0 75.734.05z" class="cls-1" data-name="Path 720" transform="translate(0 -.05)"/>
    <path id="Rectangle_245" d="M0 0h68.5v46.782H0z" class="cls-2" data-name="Rectangle 245" transform="translate(5.274 5.274)"/>
    <path id="Rectangle_246" d="M0 0h26.277v9.443H0z" class="cls-3" data-name="Rectangle 246" transform="translate(26.37 62.588)"/>
    <path id="Path_721" d="M140.142 463.05H96.8a3.3 3.3 0 0 0-3.3 3.3v3.7h49.924v-3.718a3.264 3.264 0 0 0-3.282-3.282z" class="cls-4" data-name="Path 721" transform="translate(-78.954 -391.019)"/>
    <ellipse id="Ellipse_37" cx="2.334" cy="2.334" class="cls-2" data-name="Ellipse 37" rx="2.334" ry="2.334" transform="translate(37.183 54.98)"/>
    <path id="Rectangle_247" d="M0 0h26.277v2.194H0z" class="cls-5" data-name="Rectangle 247" transform="translate(26.37 62.588)"/>
    <path id="Rectangle_248" d="M0 0h33.744v36.887H0z" class="cls-6" data-name="Rectangle 248" transform="translate(10.206 10.206)"/>
    <path id="Rectangle_249" d="M0 0h19.929v15.978H0z" class="cls-7" data-name="Rectangle 249" transform="translate(48.897 31.131)"/>
    <path id="Rectangle_250" d="M0 0h19.929v15.978H0z" class="cls-8" data-name="Rectangle 250" transform="translate(48.897 10.206)"/>
</svg>
