<svg xmlns="http://www.w3.org/2000/svg" width="36.486" height="31.189" viewBox="0 0 36.486 31.189"><g transform="translate(0 -36)"><path d="M75.531,364A3.531,3.531,0,1,1,72,367.531,3.533,3.533,0,0,1,75.531,364Zm1.177,3.531a1.177,1.177,0,1,0-1.177,1.177A1.18,1.18,0,0,0,76.708,367.531Z" transform="translate(-66.704 -303.872)" fill="#d3d3d3"/><g transform="translate(7.65 62.482)"><path d="M105.177,396A1.177,1.177,0,1,1,104,397.177,1.18,1.18,0,0,1,105.177,396Z" transform="translate(-104 -396)" fill="#acb3ba"/><path d="M369.177,396A1.177,1.177,0,1,1,368,397.177,1.18,1.18,0,0,1,369.177,396Z" transform="translate(-348.58 -396)" fill="#acb3ba"/></g><path d="M336,367.531a3.531,3.531,0,1,1,3.531,3.531A3.53,3.53,0,0,1,336,367.531Zm4.708,0a1.177,1.177,0,1,0-1.177,1.177A1.18,1.18,0,0,0,340.708,367.531Z" transform="translate(-311.284 -303.872)" fill="#d3d3d3"/><path d="M365.885,180l3.531,7.65h-7.062A2.35,2.35,0,0,1,360,185.3V180Z" transform="translate(-333.518 -133.407)" fill="#f2f2f2"/><path d="M1.177,187.062H23.539V180h2.942v5.3a2.35,2.35,0,0,0,2.354,2.354H35.9v7.062h.588v2.354H31.778a3.531,3.531,0,0,0-7.062,0H12.358a3.531,3.531,0,0,0-7.062,0l-4.119.012v-2.366H0v-7.65Z" transform="translate(0 -133.407)" fill="#e6e6e6"/><path d="M458.354,291.062V284H456v9.416h2.942v-2.354Z" transform="translate(-422.457 -229.757)" fill="#d3d3d3"/><path d="M413.885,187.65,410.354,180H408l3.531,7.65Z" transform="translate(-377.988 -133.407)" fill="#d3d3d3"/><g transform="translate(3.645 36.209)"><rect width="1" height="3" transform="translate(0.355 7.981)" fill="#acb3ba"/><rect width="2" height="3" transform="translate(14.355 -0.019)" fill="#acb3ba"/></g><path d="M216.239,46.593v7.062H208V36h2.942v2.942H213.3V36h2.942Z" transform="translate(-192.7)" fill="#d3d3d3"/><path d="M115.531,100h3.531v7.062H112V100Z" transform="translate(-103.761 -59.292)" fill="#cbcbcb"/><path d="M115.531,196h3.531v5.885H112V196Z" transform="translate(-103.761 -148.23)" fill="#c4c2c2"/><path d="M18.354,156v1.765h2.354V156h2.354v8.827H16V156Z" transform="translate(-14.823 -111.173)" fill="#d3d3d3"/><path d="M472.588,333.177h.589V332h-.589a.588.588,0,0,0,0,1.177Z" transform="translate(-437.28 -274.226)" fill="#e6e9ed"/><g transform="translate(11.181 40.708)"><path d="M152,100v1.177a.588.588,0,1,0,1.177,0V100Z" transform="translate(-152 -100)" fill="#acb3ba"/><path d="M152,197.765a.588.588,0,1,0,1.177,0V196H152Z" transform="translate(-152 -188.938)" fill="#acb3ba"/></g></g></svg>