<svg xmlns="http://www.w3.org/2000/svg" width="40.041" height="34.229" viewBox="0 0 40.041 34.229"><g transform="translate(0 -36)"><path d="M75.875,364A3.875,3.875,0,1,1,72,367.875,3.877,3.877,0,0,1,75.875,364Zm1.292,3.875a1.292,1.292,0,1,0-1.292,1.292A1.3,1.3,0,0,0,77.167,367.875Z" transform="translate(-66.188 -301.521)" fill="#656d78"/><g transform="translate(8.396 65.062)"><path d="M105.292,396A1.292,1.292,0,1,1,104,397.292,1.3,1.3,0,0,1,105.292,396Z" transform="translate(-104 -396)" fill="#ccd1d9"/><path d="M369.292,396A1.292,1.292,0,1,1,368,397.292,1.295,1.295,0,0,1,369.292,396Z" transform="translate(-346.688 -396)" fill="#ccd1d9"/></g><path d="M336,367.875a3.875,3.875,0,1,1,3.875,3.875A3.874,3.874,0,0,1,336,367.875Zm5.167,0a1.292,1.292,0,1,0-1.292,1.292A1.3,1.3,0,0,0,341.167,367.875Z" transform="translate(-308.875 -301.521)" fill="#656d78"/><path d="M366.458,180l3.875,8.4h-7.75A2.578,2.578,0,0,1,360,185.812V180Z" transform="translate(-330.938 -132.375)" fill="#ffd350"/><path d="M1.292,187.75H25.833V180h3.229v5.812a2.578,2.578,0,0,0,2.583,2.583H39.4v7.75h.646v2.583H34.875a3.875,3.875,0,0,0-7.75,0H13.562a3.875,3.875,0,0,0-7.75,0l-4.521.013v-2.6H0v-8.4Z" transform="translate(0 -132.375)" fill="#ff6e51"/><path d="M458.583,291.75V284H456v10.333h3.229V291.75Z" transform="translate(-419.188 -227.979)" fill="#f5694d"/><path d="M414.458,188.4l-3.875-8.4H408l3.875,8.4Z" transform="translate(-375.063 -132.375)" fill="#e0b82b"/><g transform="translate(4.087 36)"><rect width="2" height="3" transform="translate(-0.087 9.229)" fill="#ed5565"/><rect width="2" height="3" transform="translate(15.913 0.229)" fill="#ed5565"/></g><path d="M217.042,47.625v7.75H208V36h3.229v3.229h2.583V36h3.229Z" transform="translate(-191.208)" fill="#ffd2a6"/><path d="M115.875,100h3.875v7.75H112V100Z" transform="translate(-102.958 -58.833)" fill="#f7c292"/><path d="M115.875,196h3.875v6.458H112V196Z" transform="translate(-102.958 -147.083)" fill="#eab081"/><path d="M18.583,156v1.938h2.583V156H23.75v9.687H16V156Z" transform="translate(-14.708 -110.313)" fill="#ffd2a6"/><path d="M472.646,333.292h.646V332h-.646a.646.646,0,0,0,0,1.292Z" transform="translate(-433.896 -272.104)" fill="#e6e9ed"/><g transform="translate(12.271 41.167)"><path d="M152,100v1.292a.646.646,0,0,0,1.292,0V100Z" transform="translate(-152 -100)" fill="#ed5565"/><path d="M152,197.938a.646.646,0,1,0,1.292,0V196H152Z" transform="translate(-152 -188.25)" fill="#ed5565"/></g></g></svg>