<svg xmlns="http://www.w3.org/2000/svg" xmlns:xlink="http://www.w3.org/1999/xlink" id="Group_244" width="86" height="87.487" data-name="Group 244" viewBox="0 0 86 87.487">
    <defs>
        <style>
            .cls-1{fill:url(#linear-gradient)}.cls-2{fill:url(#linear-gradient-2)}.cls-3{fill:url(#linear-gradient-3)}.cls-4{fill:url(#linear-gradient-4)}.cls-5{fill:url(#linear-gradient-5)}.cls-6{fill:url(#linear-gradient-6)}.cls-7{fill:url(#linear-gradient-7)}.cls-8{fill:#f98091}.cls-9{fill:url(#linear-gradient-8)}.cls-10{fill:#fd6d81}.cls-11{fill:url(#linear-gradient-9)}
        </style>
        <linearGradient id="linear-gradient" x1=".815" x2="-.282" y1="-1.465" y2="-.729" gradientUnits="objectBoundingBox">
            <stop offset="0" stop-color="#777"/>
            <stop offset="1" stop-color="#3b4041"/>
        </linearGradient>
        <linearGradient id="linear-gradient-2" x1=".179" x2="1.277" y1="-1.078" y2="-1.813" xlink:href="#linear-gradient"/>
        <linearGradient id="linear-gradient-3" x1=".783" x2=".455" y1="-2.091" y2="-1.303" gradientUnits="objectBoundingBox">
            <stop offset="0" stop-color="#3b4041" stop-opacity="0"/>
            <stop offset="1" stop-color="#3b4041"/>
        </linearGradient>
        <linearGradient id="linear-gradient-4" x1=".181" x2="1.269" y1="-1.668" y2="-2.422" gradientUnits="objectBoundingBox">
            <stop offset="0" stop-color="#35ecff"/>
            <stop offset="1" stop-color="#359bdb"/>
        </linearGradient>
        <linearGradient id="linear-gradient-5" x1=".995" x2=".409" y1="-2.224" y2="-1.62" gradientUnits="objectBoundingBox">
            <stop offset="0" stop-color="#61c6ff" stop-opacity="0"/>
            <stop offset="1" stop-color="#359bdb"/>
        </linearGradient>
        <linearGradient id="linear-gradient-6" x1="1.925" x2="-2.886" y1="-20.354" y2="-18.519" xlink:href="#linear-gradient"/>
        <linearGradient id="linear-gradient-7" x1="3.017" x2="-5.201" y1="-30.185" y2="-28.351" xlink:href="#linear-gradient"/>
        <linearGradient id="linear-gradient-8" x1=".497" x2=".497" y1="-3.629" y2="-4.441" gradientUnits="objectBoundingBox">
            <stop offset="0" stop-color="#fff"/>
            <stop offset="1" stop-color="#f2f2f2"/>
        </linearGradient>
        <linearGradient id="linear-gradient-9" x2="1" y1="-2.172" y2="-2.172" gradientUnits="objectBoundingBox">
            <stop offset="0" stop-color="#d4e3ee"/>
            <stop offset=".52" stop-color="#d2e3ee"/>
            <stop offset=".7" stop-color="#cbe3ee"/>
            <stop offset=".84" stop-color="#c0e3ee"/>
            <stop offset=".94" stop-color="#afe3ee"/>
            <stop offset="1" stop-color="#a2e3ee"/>
        </linearGradient>
    </defs>
    <path id="Path_567" d="M65.3 0h49.478a4.587 4.587 0 0 1 4.6 4.6v78.291a4.587 4.587 0 0 1-4.6 4.6H65.3a4.587 4.587 0 0 1-4.6-4.6V4.6A4.587 4.587 0 0 1 65.3 0z" class="cls-1" data-name="Path 567" transform="translate(-47.024)"/>
    <path id="Path_568" d="M116.59 89.772H68.284a4.481 4.481 0 0 1-4.484-4.484V8.684A4.481 4.481 0 0 1 68.284 4.2h48.306a4.481 4.481 0 0 1 4.484 4.484v76.6a4.481 4.481 0 0 1-4.484 4.484z" class="cls-2" data-name="Path 568" transform="translate(-49.425 -3.254)"/>
    <path id="Path_569" d="M119.37 54.142v68.336a4.587 4.587 0 0 1-4.6 4.6h-10.721L60.723 83.747l-.023-.023V54.142l1.059-1.374a4.281 4.281 0 0 1 3.4-1.667h49.771a4.281 4.281 0 0 1 3.4 1.667z" class="cls-3" data-name="Path 569" transform="translate(-47.024 -39.587)"/>
    <path id="Path_570" d="M134.265 115.178H94.588a2.39 2.39 0 0 1-2.388-2.388v-59.3a2.391 2.391 0 0 1 2.388-2.39h39.677a2.391 2.391 0 0 1 2.388 2.388v59.324a2.37 2.37 0 0 1-2.388 2.366z" class="cls-4" data-name="Path 570" transform="translate(-71.427 -39.587)"/>
    <path id="Path_571" d="M134.265 51.1H94.588a2.39 2.39 0 0 0-2.388 2.388v37.334l24.356 24.356h17.709a2.39 2.39 0 0 0 2.388-2.388v-59.3a2.375 2.375 0 0 0-2.388-2.388z" class="cls-5" data-name="Path 571" transform="translate(-71.427 -39.587)"/>
    <path id="Path_572" d="M174.095 23.575h-9.057a1.938 1.938 0 0 1-1.938-1.938 1.938 1.938 0 0 1 1.938-1.938h9.057a1.938 1.938 0 0 1 1.938 1.938 1.951 1.951 0 0 1-1.938 1.938z" class="cls-6" data-name="Path 572" transform="translate(-126.352 -15.261)"/>
    <circle id="Ellipse_29" cx="3.785" cy="3.785" r="3.785" class="cls-7" data-name="Ellipse 29" transform="translate(39.226 77.393)"/>
    <path id="Path_573" d="M71.287 52.767a4.281 4.281 0 0 0-3.4-1.667H18.115a4.281 4.281 0 0 0-3.4 1.667L0 71.806l1.059 5.5h83.206l1.735-5.5z" class="cls-8" data-name="Path 573" transform="translate(0 -39.587)"/>
    <path id="Path_574" d="M119.086 52.767a2.444 2.444 0 0 0-2.05-1.667H87.182a2.471 2.471 0 0 0-2.05 1.667L76.3 71.806l.293 5.137h50.717l.586-5.137z" class="cls-9" data-name="Path 574" transform="translate(-59.109 -39.587)"/>
    <path id="Path_575" d="M166.962 52.767c-.158-1.059-.406-1.667-.676-1.667h-9.959c-.27 0-.518.608-.676 1.667L152.7 71.806h17.191z" class="cls-8" data-name="Path 575" transform="translate(-118.295 -39.587)"/>
    <path id="Path_576" d="M8.607 156.509A8.607 8.607 0 0 1 0 147.9v-5h17.191v5a8.562 8.562 0 0 1-8.584 8.607z" class="cls-10" data-name="Path 576" transform="translate(0 -110.703)"/>
    <path id="Path_577" d="M85.007 156.509A8.607 8.607 0 0 1 76.4 147.9v-5h17.191v5a8.587 8.587 0 0 1-8.584 8.607z" class="cls-11" data-name="Path 577" transform="translate(-59.186 -110.703)"/>
    <path id="Path_578" d="M161.307 156.509a8.607 8.607 0 0 1-8.607-8.609v-5h17.191v5a8.562 8.562 0 0 1-8.584 8.607z" class="cls-10" data-name="Path 578" transform="translate(-118.295 -110.703)"/>
    <path id="Path_579" d="M237.607 156.509A8.607 8.607 0 0 1 229 147.9v-5h17.191v5a8.562 8.562 0 0 1-8.584 8.607z" class="cls-11" data-name="Path 579" transform="translate(-177.405 -110.703)"/>
    <path id="Path_580" d="M313.907 156.509a8.607 8.607 0 0 1-8.607-8.609v-5h17.191v5a8.562 8.562 0 0 1-8.584 8.607z" class="cls-10" data-name="Path 580" transform="translate(-236.514 -110.703)"/>
</svg>
