<svg xmlns="http://www.w3.org/2000/svg" xmlns:xlink="http://www.w3.org/1999/xlink" width="154.822" height="67.531" viewBox="0 0 154.822 67.531">
    <defs>
        <style>
            .cls-1{isolation:isolate}.cls-2{fill:#fafafa}.cls-3{fill:url(#linear-gradient)}.cls-4{fill:url(#linear-gradient-2)}.cls-5{fill:url(#linear-gradient-3)}.cls-6{fill:url(#linear-gradient-4)}.cls-7{fill:url(#linear-gradient-5)}.cls-8{fill:url(#linear-gradient-6)}.cls-9{fill:url(#linear-gradient-7)}.cls-10{fill:#f98091}.cls-11{fill:url(#linear-gradient-8)}.cls-12{fill:#fd6d81}.cls-13{fill:url(#linear-gradient-9)}.cls-14{filter:url(#Path_568)}.cls-15{filter:url(#Path_440)}.cls-16{filter:url(#Path_439)}.cls-17{filter:url(#Path_438)}.cls-18{filter:url(#Path_437)}.cls-19{filter:url(#Path_436)}.cls-20{filter:url(#Path_435)}.cls-21{filter:url(#Path_434)}
        </style>
        <filter id="Path_434" width="31.534" height="33.158" x="42.037" y="33.933" filterUnits="userSpaceOnUse">
            <feOffset dy="3"/>
            <feGaussianBlur result="blur" stdDeviation="3"/>
            <feFlood flood-opacity=".161"/>
            <feComposite in2="blur" operator="in"/>
            <feComposite in="SourceGraphic"/>
        </filter>
        <filter id="Path_435" width="33.688" height="39.179" x="57.167" y="27.913" filterUnits="userSpaceOnUse">
            <feOffset dy="3"/>
            <feGaussianBlur result="blur-2" stdDeviation="3"/>
            <feFlood flood-opacity=".161"/>
            <feComposite in2="blur-2" operator="in"/>
            <feComposite in="SourceGraphic"/>
        </filter>
        <filter id="Path_436" width="29.935" height="35.953" x="73.233" y="31.139" filterUnits="userSpaceOnUse">
            <feOffset dy="3"/>
            <feGaussianBlur result="blur-3" stdDeviation="3"/>
            <feFlood flood-opacity=".161"/>
            <feComposite in2="blur-3" operator="in"/>
            <feComposite in="SourceGraphic"/>
        </filter>
        <filter id="Path_437" width="32.615" height="33.163" x="85.722" y="33.927" filterUnits="userSpaceOnUse">
            <feOffset dy="3"/>
            <feGaussianBlur result="blur-4" stdDeviation="3"/>
            <feFlood flood-opacity=".161"/>
            <feComposite in2="blur-4" operator="in"/>
            <feComposite in="SourceGraphic"/>
        </filter>
        <filter id="Path_438" width="27.991" height="32.897" x="103.418" y="33.933" filterUnits="userSpaceOnUse">
            <feOffset dy="3"/>
            <feGaussianBlur result="blur-5" stdDeviation="3"/>
            <feFlood flood-opacity=".161"/>
            <feComposite in2="blur-5" operator="in"/>
            <feComposite in="SourceGraphic"/>
        </filter>
        <filter id="Path_439" width="22.532" height="39.352" x="114.773" y="27.478" filterUnits="userSpaceOnUse">
            <feOffset dy="3"/>
            <feGaussianBlur result="blur-6" stdDeviation="3"/>
            <feFlood flood-opacity=".161"/>
            <feComposite in2="blur-6" operator="in"/>
            <feComposite in="SourceGraphic"/>
        </filter>
        <filter id="Path_440" width="34.296" height="39.788" x="120.525" y="27.042" filterUnits="userSpaceOnUse">
            <feOffset dy="3"/>
            <feGaussianBlur result="blur-7" stdDeviation="3"/>
            <feFlood flood-opacity=".161"/>
            <feComposite in2="blur-7" operator="in"/>
            <feComposite in="SourceGraphic"/>
        </filter>
        <linearGradient id="linear-gradient" x1=".815" x2="-.282" y1="-1.465" y2="-.729" gradientUnits="objectBoundingBox">
            <stop offset="0" stop-color="#777"/>
            <stop offset="1" stop-color="#3b4041"/>
        </linearGradient>
        <linearGradient id="linear-gradient-2" x1=".179" x2="1.277" y1="-1.078" y2="-1.813" xlink:href="#linear-gradient"/>
        <filter id="Path_568" width="51.151" height="67.531" x="0" y="0" filterUnits="userSpaceOnUse">
            <feOffset dy="3"/>
            <feGaussianBlur result="blur-8" stdDeviation="3"/>
            <feFlood flood-opacity=".161"/>
            <feComposite in2="blur-8" operator="in"/>
            <feComposite in="SourceGraphic"/>
        </filter>
        <linearGradient id="linear-gradient-3" x1=".783" x2=".455" y1="-2.091" y2="-1.303" gradientUnits="objectBoundingBox">
            <stop offset="0" stop-color="#3b4041" stop-opacity="0"/>
            <stop offset="1" stop-color="#3b4041"/>
        </linearGradient>
        <linearGradient id="linear-gradient-4" x1=".181" x2="1.269" y1="-1.668" y2="-2.422" gradientUnits="objectBoundingBox">
            <stop offset="0" stop-color="#35ecff"/>
            <stop offset="1" stop-color="#359bdb"/>
        </linearGradient>
        <linearGradient id="linear-gradient-5" x1=".995" x2=".409" y1="-2.224" y2="-1.62" gradientUnits="objectBoundingBox">
            <stop offset="0" stop-color="#61c6ff" stop-opacity="0"/>
            <stop offset="1" stop-color="#359bdb"/>
        </linearGradient>
        <linearGradient id="linear-gradient-6" x1="1.925" x2="-2.886" y1="-20.354" y2="-18.519" xlink:href="#linear-gradient"/>
        <linearGradient id="linear-gradient-7" x1="3.017" x2="-5.201" y1="-30.185" y2="-28.351" xlink:href="#linear-gradient"/>
        <linearGradient id="linear-gradient-8" x1=".497" x2=".497" y1="-3.629" y2="-4.441" gradientUnits="objectBoundingBox">
            <stop offset="0" stop-color="#fff"/>
            <stop offset="1" stop-color="#f2f2f2"/>
        </linearGradient>
        <linearGradient id="linear-gradient-9" x2="1" y1="-2.172" y2="-2.172" gradientUnits="objectBoundingBox">
            <stop offset="0" stop-color="#d4e3ee"/>
            <stop offset=".52" stop-color="#d2e3ee"/>
            <stop offset=".7" stop-color="#cbe3ee"/>
            <stop offset=".84" stop-color="#c0e3ee"/>
            <stop offset=".94" stop-color="#afe3ee"/>
            <stop offset="1" stop-color="#a2e3ee"/>
        </linearGradient>
    </defs>
    <g id="Group_817" data-name="Group 817" transform="translate(-141.556 -6435.548)">
        <g id="Group_141" data-name="Group 141" transform="translate(192.593 6468.59)">
            <g id="Group_69" class="cls-1" data-name="Group 69">
                <g class="cls-21" transform="translate(-51.04 -33.04)">
                    <path id="Path_434-2" d="M394.285 273.618a8.909 8.909 0 0 1-4.11-.886 6.236 6.236 0 0 1-2.659-2.544 7.977 7.977 0 0 1-.925-3.951 8.294 8.294 0 0 1 .959-4.047 6.98 6.98 0 0 1 6.33-3.731 5.686 5.686 0 0 1 5.011 2.312q1.612 2.312 1.118 6.377h-9.819a3.383 3.383 0 0 0 1.249 2.47 5.194 5.194 0 0 0 4.982.518 4.114 4.114 0 0 0 1.612-1.249l2.063 2.092a6.958 6.958 0 0 1-2.4 1.946 7.68 7.68 0 0 1-3.411.693zm-.347-12.487a3.37 3.37 0 0 0-2.44.925 4.347 4.347 0 0 0-1.22 2.5h6.682a3.347 3.347 0 0 0-.784-2.614 3.088 3.088 0 0 0-2.24-.813z" class="cls-2" data-name="Path 434" transform="translate(-335.55 -218.53)"/>
                </g>
                <g class="cls-20" transform="translate(-51.04 -33.04)">
                    <path id="Path_435-2" d="M525.44 227.569a8.848 8.848 0 0 1-5.666-1.627 6.562 6.562 0 0 1-2.324-4.764l3.544-.523q.523 3.718 4.619 3.718a4.653 4.653 0 0 0 2.76-.712 2.31 2.31 0 0 0 .988-1.99 1.928 1.928 0 0 0-.988-1.757 11.847 11.847 0 0 0-3.167-1.118 18.5 18.5 0 0 1-3.486-1.177 5.248 5.248 0 0 1-2.222-1.85 5.522 5.522 0 0 1-.77-3.079 5.749 5.749 0 0 1 .945-3.254 6.461 6.461 0 0 1 2.6-2.237 8.628 8.628 0 0 1 3.834-.809 7.151 7.151 0 0 1 4.706 1.51 6.1 6.1 0 0 1 2.149 4.154l-3.308.554a3.422 3.422 0 0 0-3.721-3.026 3.714 3.714 0 0 0-2.455.784 2.551 2.551 0 0 0-.945 2.063 2.3 2.3 0 0 0 .925 1.966 8.937 8.937 0 0 0 3.172 1.2 20.617 20.617 0 0 1 3.457 1.089 5.275 5.275 0 0 1 2.251 1.729 5.06 5.06 0 0 1 .8 3.021 5.38 5.38 0 0 1-.973 3.181 6.5 6.5 0 0 1-2.7 2.164 9.716 9.716 0 0 1-4.025.79z" class="cls-2" data-name="Path 435" transform="translate(-451.28 -172.48)"/>
                </g>
                <g class="cls-19" transform="translate(-51.04 -33.04)">
                    <path id="Path_436-2" d="M664.332 252.243a5.591 5.591 0 0 1-4.111-1.452 5.028 5.028 0 0 1-1.439-3.805l.116-6.706h-2.5v-2.968h2.556l.029-3.021h3.544l-.058 3.021h4.794v2.958h-4.823l-.087 6.333a2.574 2.574 0 0 0 .6 1.874 2.416 2.416 0 0 0 1.874.682 4.329 4.329 0 0 0 1.249-.175 4.132 4.132 0 0 0 1.22-.639l1.041 2.731a4.336 4.336 0 0 1-1.709.872 8.573 8.573 0 0 1-2.296.295z" class="cls-2" data-name="Path 436" transform="translate(-574.17 -197.15)"/>
                </g>
                <g class="cls-18" transform="translate(-51.04 -33.04)">
                    <path id="Path_437-2" d="M771.994 258.41a6.786 6.786 0 0 1 5.157 1.966 7.364 7.364 0 0 1 1.874 5.3 8.5 8.5 0 0 1-.945 4.047 7.09 7.09 0 0 1-2.659 2.818 7.571 7.571 0 0 1-3.98 1.031 6.824 6.824 0 0 1-5.157-1.946 7.346 7.346 0 0 1-1.874-5.319 8.5 8.5 0 0 1 .945-4.047 7.125 7.125 0 0 1 2.645-2.816 7.561 7.561 0 0 1 3.994-1.034zm-.436 12.056a3.362 3.362 0 0 0 2.76-1.308 5.394 5.394 0 0 0 1.041-3.486 4.573 4.573 0 0 0-.915-3.05 3.124 3.124 0 0 0-2.512-1.075 3.419 3.419 0 0 0-2.818 1.308 5.356 5.356 0 0 0-1.041 3.457 4.63 4.63 0 0 0 .916 3.065 3.174 3.174 0 0 0 2.57 1.089z" class="cls-2" data-name="Path 437" transform="translate(-669.69 -218.48)"/>
                </g>
                <g class="cls-17" transform="translate(-51.04 -33.04)">
                    <path id="Path_438-2" d="M926.87 262.114a4.567 4.567 0 0 0-1.485-.2 3.132 3.132 0 0 0-2.527 1.147 7.907 7.907 0 0 0-1.4 3.661 39.032 39.032 0 0 0-.45 6.638h-3.515v-9.47l-.029-5.2H921l-.175 4.1a6.379 6.379 0 0 1 2.1-3.333 4.847 4.847 0 0 1 2.89-.987 6.188 6.188 0 0 1 .872.058 4.37 4.37 0 0 1 .755.175z" class="cls-2" data-name="Path 438" transform="translate(-805.04 -218.53)"/>
                </g>
                <g class="cls-16" transform="translate(-51.04 -33.04)">
                    <path id="Path_439-2" d="M1017.94 206.988a2.19 2.19 0 0 1-1.656-.639 2.247 2.247 0 0 1 0-3.079 2.463 2.463 0 0 1 3.311 0 2.248 2.248 0 0 1 0 3.079 2.179 2.179 0 0 1-1.655.639zm1.772 2.324v14.67h-3.544v-14.67z" class="cls-2" data-name="Path 439" transform="translate(-891.9 -169.15)"/>
                </g>
                <g class="cls-15" transform="translate(-51.04 -33.04)">
                    <path id="Path_440-2" d="M1068.209 220.649v-11.713h-2.789v-2.958h2.789v-.639a7.177 7.177 0 0 1 .784-3.457 5.537 5.537 0 0 1 2.16-2.236 6.262 6.262 0 0 1 3.152-.784 4.717 4.717 0 0 1 3.021.843l-1.481 2.556a2.9 2.9 0 0 0-1.54-.407 2.4 2.4 0 0 0-1.888.784 3.443 3.443 0 0 0-.694 2.353v.987h4.357v2.958h-4.3v11.713zm11.242-17a2.189 2.189 0 0 1-1.656-.639 2.247 2.247 0 0 1 0-3.079 2.463 2.463 0 0 1 3.311 0 2.248 2.248 0 0 1 0 3.079 2.175 2.175 0 0 1-1.656.642zm1.772 2.324v14.673h-3.544v-14.67z" class="cls-2" data-name="Path 440" transform="translate(-935.89 -165.82)"/>
                </g>
            </g>
        </g>
        <g id="Group_252" data-name="Group 252" transform="translate(142.236 6441)">
            <path id="Path_567" d="M63.36 0H92a2.655 2.655 0 0 1 2.66 2.66v45.319a2.655 2.655 0 0 1-2.66 2.66H63.36a2.655 2.655 0 0 1-2.66-2.66V2.66A2.655 2.655 0 0 1 63.36 0z" class="cls-3" data-name="Path 567" transform="translate(-52.784)"/>
            <g class="cls-14" transform="translate(-.68 -5.45)">
                <path id="Path_568-2" d="M94.356 53.731H66.4a2.594 2.594 0 0 1-2.6-2.6V6.8a2.594 2.594 0 0 1 2.6-2.6h27.956a2.594 2.594 0 0 1 2.6 2.6v44.336a2.594 2.594 0 0 1-2.6 2.6z" class="cls-4" data-name="Path 568" transform="translate(-54.8 1.8)"/>
            </g>
            <path id="Path_569" d="M94.66 52.861v39.554a2.655 2.655 0 0 1-2.66 2.66h-6.208L60.713 70l-.013-.013V52.861l.613-.8a2.478 2.478 0 0 1 1.969-.965h28.809a2.478 2.478 0 0 1 1.969.965z" class="cls-5" data-name="Path 569" transform="translate(-52.784 -44.436)"/>
            <path id="Path_570" d="M116.548 88.19H93.582a1.384 1.384 0 0 1-1.382-1.383V52.482a1.384 1.384 0 0 1 1.382-1.382h22.966a1.384 1.384 0 0 1 1.382 1.382V86.82a1.372 1.372 0 0 1-1.382 1.369z" class="cls-6" data-name="Path 570" transform="translate(-80.176 -44.436)"/>
            <path id="Path_571" d="M116.548 51.1H93.582a1.384 1.384 0 0 0-1.382 1.382v21.61l14.1 14.1h10.251a1.384 1.384 0 0 0 1.382-1.382V52.482a1.375 1.375 0 0 0-1.382-1.382z" class="cls-7" data-name="Path 571" transform="translate(-80.176 -44.436)"/>
            <path id="Path_572" d="M169.464 21.943h-5.243a1.122 1.122 0 0 1-1.122-1.122 1.122 1.122 0 0 1 1.122-1.122h5.243a1.122 1.122 0 0 1 1.122 1.122 1.129 1.129 0 0 1-1.122 1.122z" class="cls-8" data-name="Path 572" transform="translate(-141.83 -17.131)"/>
            <ellipse id="Ellipse_29" cx="2.191" cy="2.191" class="cls-9" data-name="Ellipse 29" rx="2.191" ry="2.191" transform="translate(22.705 44.797)"/>
            <path id="Path_573" d="M41.263 52.065a2.478 2.478 0 0 0-1.969-.965H10.485a2.478 2.478 0 0 0-1.969.965L0 63.085l.613 3.182h48.162l1-3.182z" class="cls-10" data-name="Path 573" transform="translate(0 -44.436)"/>
            <path id="Path_574" d="M101.066 52.065a1.415 1.415 0 0 0-1.187-.965H82.6a1.43 1.43 0 0 0-1.187.965L76.3 63.085l.17 2.973h29.356l.339-2.973z" class="cls-11" data-name="Path 574" transform="translate(-66.349 -44.436)"/>
            <path id="Path_575" d="M160.955 52.065c-.091-.613-.235-.965-.391-.965H154.8c-.157 0-.3.352-.391.965l-1.709 11.02h9.951z" class="cls-10" data-name="Path 575" transform="translate(-132.786 -44.436)"/>
            <path id="Path_576" d="M4.982 150.777A4.982 4.982 0 0 1 0 145.8v-2.9h9.951v2.9a4.956 4.956 0 0 1-4.969 4.982z" class="cls-12" data-name="Path 576" transform="translate(0 -124.264)"/>
            <path id="Path_577" d="M81.382 150.777A4.982 4.982 0 0 1 76.4 145.8v-2.9h9.951v2.9a4.97 4.97 0 0 1-4.969 4.982z" class="cls-13" data-name="Path 577" transform="translate(-66.436 -124.264)"/>
            <path id="Path_578" d="M157.682 150.777a4.982 4.982 0 0 1-4.982-4.977v-2.9h9.951v2.9a4.956 4.956 0 0 1-4.969 4.982z" class="cls-12" data-name="Path 578" transform="translate(-132.786 -124.264)"/>
            <path id="Path_579" d="M233.982 150.777A4.982 4.982 0 0 1 229 145.8v-2.9h9.951v2.9a4.956 4.956 0 0 1-4.969 4.982z" class="cls-13" data-name="Path 579" transform="translate(-199.135 -124.264)"/>
            <path id="Path_580" d="M310.282 150.777a4.982 4.982 0 0 1-4.982-4.977v-2.9h9.951v2.9a4.956 4.956 0 0 1-4.969 4.982z" class="cls-12" data-name="Path 580" transform="translate(-265.485 -124.264)"/>
        </g>
    </g>
</svg>
