<svg xmlns="http://www.w3.org/2000/svg" width="58.171" height="55.501" viewBox="0 0 58.171 55.501">
    <defs>
        <style>
            .cls-1{fill:#99a1a8}.cls-2{fill:#ffe99a}.cls-3{fill:#566575}.cls-4{fill:#ffd000}.cls-5{fill:#f98091}
        </style>
    </defs>
    <g id="tools-and-utensils-2" transform="translate(0 -11.749)">
        <path id="Path_780" d="M189.751 171.078l-.117 6.676-4.594-1.965-1.37-1.37-5.545-5.545-10.34-10.34-.041-.042 1.313-1.314 3.4-3.4 1.31 1.311 3.885 3.886.6.6 4.583 4.583 3.155 3.155 3.76 3.758z" class="cls-1" data-name="Path 780" transform="translate(-148.686 -125.894)"/>
        <path id="Path_781" d="M336.938 323.13a4.459 4.459 0 0 1-6.21-.132l-1.715-1.716-2.276-2.275-10.482-10.483a.749.749 0 0 1 0-1.058l.229-.229 1.715-1.715 3-3 .229-.229a.747.747 0 0 1 1.058 0l14.532 14.531a4.409 4.409 0 0 1-.08 6.306z" class="cls-2" data-name="Path 781" transform="translate(-280.13 -257.343)"/>
        <path id="Path_782" d="M185.041 202.283l-1.37-1.37-5.545-5.545-10.34-10.34-.041-.042 1.313-1.314 1.31 1.311 3.885 3.886.6.6 4.583 4.583 3.155 3.155 3.76 3.758z" class="cls-3" data-name="Path 782" transform="translate(-148.686 -152.389)"/>
        <path id="Path_783" d="M165.35 29.517a11.583 11.583 0 0 1 14.059-1.9c-4.306 1.911-9.163 6.333-10.951 9.426l-5.012.15-.3-5.469z" class="cls-3" data-name="Path 783" transform="translate(-144.609 -12.674)"/>
        <path id="Path_784" d="M336.938 350a4.459 4.459 0 0 1-6.21-.132l-1.715-1.716-2.276-2.275-10.482-10.477a.749.749 0 0 1 0-1.058l.229-.229 1.716-1.713a69.926 69.926 0 0 0 18.738 17.6z" class="cls-4" data-name="Path 784" transform="translate(-280.13 -284.217)"/>
        <path id="Path_785" d="M39.829 133.514l6.626 2.389 2.091 6.328a3.041 3.041 0 0 0-3.1-.267 4.072 4.072 0 0 0-1.8 1.784 3.061 3.061 0 0 0 .256 3.121l-6.443-1.369-2.268-7.343a3.107 3.107 0 0 0 3.282.181 4.081 4.081 0 0 0 1.631-1.716 3.037 3.037 0 0 0-.275-3.1z" class="cls-3" data-name="Path 785" transform="translate(-31.193 -107.931)"/>
        <path id="Path_786" d="M12.715 183.058l-4 4L0 178.339l4-4s8.555 8.554 8.715 8.719z" class="cls-1" data-name="Path 786" transform="translate(0 -144.119)"/>
        <g id="Group_266" data-name="Group 266" transform="translate(7.01 27.886)">
            <path id="Path_787" d="M65.8 236.145l1.5 1.5s.069.064.1.1l-4 4-1.7-1.706 4-4c.035.034.1.106.1.106z" class="cls-3" data-name="Path 787" transform="translate(-61.701 -226.695)"/>
            <path id="Path_788" d="M173.763 155.091l-4.709 4.709-1.269-1.269-.041-.042 4.709-4.71z" class="cls-3" data-name="Path 788" transform="translate(-155.696 -153.78)"/>
        </g>
        <path id="Path_789" d="M76.3 51.418l21.715-21.712a10.871 10.871 0 0 1 4.449-2.651 7.891 7.891 0 0 0 3.016-13.283l-1.49 4.775a3.489 3.489 0 0 1-4.37 2.292 3.489 3.489 0 0 1-2.292-4.37l1.472-4.72a7.879 7.879 0 0 0-6.317 9.912 6.042 6.042 0 0 1-1.508 5.919L69.264 49.293a10.871 10.871 0 0 1-4.449 2.651A7.891 7.891 0 0 0 61.8 65.226l1.49-4.775a3.489 3.489 0 0 1 4.37-2.292 3.489 3.489 0 0 1 2.292 4.37l-1.474 4.721a7.879 7.879 0 0 0 6.317-9.912 6.042 6.042 0 0 1 1.505-5.92z" class="cls-1" data-name="Path 789" transform="translate(-52.565)"/>
        <path id="Path_790" d="M228.073 209.409l-4.711 4.709-4.582-4.582 4.709-4.711z" class="cls-3" data-name="Path 790" transform="translate(-193.924 -171.141)"/>
        <path id="Rectangle_271" d="M0 0h27.231v6.48H0z" class="cls-5" data-name="Rectangle 271" transform="rotate(135 14.835 24.985)"/>
        <path id="Path_791" d="M84.238 61.175l1.68 1.684L89.55 66.5l1.682 1.682L92.95 69.9l-1.8 1.8-4.71 4.71-1.7 1.7c-.161-.156-8.56-8.557-8.717-8.717z" class="cls-1" data-name="Path 791" transform="translate(-67.382 -43.81)"/>
    </g>
</svg>
