<svg id="living-room" xmlns="http://www.w3.org/2000/svg" width="86.944" height="86.945" viewBox="0 0 86.944 86.945">
  <defs>
    <style>
      .cls-1 {
        fill: #9689d0;
      }

      .cls-2 {
        fill: #7c6cc4;
      }

      .cls-3 {
        fill: #b1a7dc;
      }

      .cls-4 {
        fill: #c1b8c4;
      }

      .cls-5 {
        fill: #a195a7;
      }

      .cls-6 {
        fill: #e0dce2;
      }

      .cls-7 {
        fill: #ffd982;
      }

      .cls-8 {
        fill: #ffc02e;
      }

      .cls-9 {
        fill: #928398;
      }

      .cls-10 {
        fill: #e98f6d;
      }

      .cls-11 {
        fill: #efedf0;
      }

      .cls-12 {
        fill: #d0cad3;
      }

      .cls-13 {
        fill: #e96fa7;
      }
    </style>
  </defs>
  <path id="Path_387" data-name="Path 387" class="cls-1" d="M87.4,200H57.51A9.52,9.52,0,0,0,48,209.51v42.114a1.359,1.359,0,0,0,1.359,1.359H95.548a1.359,1.359,0,0,0,1.359-1.359V209.51A9.52,9.52,0,0,0,87.4,200Zm0,0" transform="translate(-39.849 -166.037)"/>
  <path id="Path_388" data-name="Path 388" class="cls-2" d="M57.51,232.6a1.359,1.359,0,0,1-1.359-1.359V209.51a9.52,9.52,0,0,1,9.51-9.51H57.51A9.52,9.52,0,0,0,48,209.51v42.114a1.359,1.359,0,0,0,1.359,1.359H95.548a1.359,1.359,0,0,0,1.359-1.359V232.6Zm0,0" transform="translate(-39.849 -166.037)"/>
  <path id="Path_389" data-name="Path 389" class="cls-3" d="M116.68,416H81.359A1.359,1.359,0,0,0,80,417.359v13.585a1.359,1.359,0,0,0,1.359,1.358H116.68a1.359,1.359,0,0,0,1.359-1.358V417.359A1.359,1.359,0,0,0,116.68,416Zm0,0" transform="translate(-66.415 -345.357)"/>
  <path id="Path_390" data-name="Path 390" class="cls-1" d="M8.151,312A8.16,8.16,0,0,0,0,320.151V344.6a1.359,1.359,0,0,0,1.359,1.359H14.944A1.359,1.359,0,0,0,16.3,344.6V320.151A8.16,8.16,0,0,0,8.151,312Zm0,0" transform="translate(0 -259.018)"/>
  <path id="Path_391" data-name="Path 391" class="cls-2" d="M5.434,344.6V320.151a8.163,8.163,0,0,1,5.434-7.683A8.147,8.147,0,0,0,0,320.151V344.6a1.359,1.359,0,0,0,1.359,1.359H6.793A1.359,1.359,0,0,1,5.434,344.6Zm0,0" transform="translate(0 -259.018)"/>
  <path id="Path_392" data-name="Path 392" class="cls-1" d="M296.151,312A8.16,8.16,0,0,0,288,320.151V344.6a1.359,1.359,0,0,0,1.358,1.359h13.585A1.359,1.359,0,0,0,304.3,344.6V320.151A8.16,8.16,0,0,0,296.151,312Zm0,0" transform="translate(-239.094 -259.018)"/>
  <g id="Group_67" data-name="Group 67" transform="translate(17.661 43.473)">
    <path id="Path_393" data-name="Path 393" class="cls-2" d="M293.434,344.6V320.151a8.163,8.163,0,0,1,5.434-7.683A8.147,8.147,0,0,0,288,320.151V344.6a1.359,1.359,0,0,0,1.358,1.359h5.434A1.359,1.359,0,0,1,293.434,344.6Zm0,0" transform="translate(-256.754 -302.49)"/>
    <path id="Path_394" data-name="Path 394" class="cls-2" d="M110.793,258.717h-1.359v-1.358a1.359,1.359,0,1,0-2.717,0v1.358h-1.359a1.359,1.359,0,0,0,0,2.717h1.359v1.359a1.359,1.359,0,0,0,2.717,0v-1.359h1.359a1.359,1.359,0,0,0,0-2.717Zm0,0" transform="translate(-104 -256)"/>
    <path id="Path_395" data-name="Path 395" class="cls-2" d="M238.793,258.717h-1.359v-1.358a1.359,1.359,0,1,0-2.717,0v1.358h-1.358a1.359,1.359,0,1,0,0,2.717h1.358v1.359a1.359,1.359,0,0,0,2.717,0v-1.359h1.359a1.359,1.359,0,0,0,0-2.717Zm0,0" transform="translate(-210.264 -256)"/>
  </g>
  <path id="Path_396" data-name="Path 396" class="cls-4" d="M385.359,142.944A1.359,1.359,0,0,1,384,141.585V129.359a1.359,1.359,0,1,1,2.717,0v12.227A1.359,1.359,0,0,1,385.359,142.944Zm0,0" transform="translate(-318.792 -106.264)"/>
  <path id="Path_397" data-name="Path 397" class="cls-5" d="M380.076,170.717h-2.717a1.359,1.359,0,1,1,0-2.717h2.717a1.359,1.359,0,0,1,0,2.717Zm0,0" transform="translate(-312.15 -139.471)"/>
  <path id="Path_398" data-name="Path 398" class="cls-6" d="M424,136h2.717v57.058H424Zm0,0" transform="translate(-351.999 -112.905)"/>
  <path id="Path_399" data-name="Path 399" class="cls-7" d="M379.149,22.845,375.074,1.108A1.359,1.359,0,0,0,373.738,0h-16.3A1.359,1.359,0,0,0,356.1,1.108l-4.076,21.736a1.372,1.372,0,0,0,1.335,1.609h24.453A1.372,1.372,0,0,0,379.149,22.845Zm0,0" transform="translate(-292.228 0)"/>
  <path id="Path_400" data-name="Path 400" class="cls-8" d="M357.459,22.845l4.076-21.736A1.359,1.359,0,0,1,362.87,0h-5.433A1.358,1.358,0,0,0,356.1,1.108l-4.076,21.736a1.372,1.372,0,0,0,1.335,1.609h5.433A1.372,1.372,0,0,1,357.459,22.845Zm0,0" transform="translate(-292.228 0)"/>
  <path id="Path_401" data-name="Path 401" class="cls-9" d="M381.628,462.969l-12.057-6.793a1.358,1.358,0,0,0-1.355.013l-11.547,6.793a1.358,1.358,0,0,0,.689,2.529h23.6a1.358,1.358,0,0,0,.667-2.542Zm0,0" transform="translate(-295.545 -378.566)"/>
  <path id="Path_402" data-name="Path 402" class="cls-10" d="M121.963,0h-32.6A1.359,1.359,0,0,0,88,1.359V25.812a1.359,1.359,0,0,0,1.359,1.359h32.6a1.359,1.359,0,0,0,1.358-1.359V1.359A1.359,1.359,0,0,0,121.963,0Zm0,0" transform="translate(-73.056 0)"/>
  <path id="Path_403" data-name="Path 403" class="cls-11" d="M104,16h29.887V37.736H104Zm0,0" transform="translate(-86.339 -13.283)"/>
  <path id="Path_404" data-name="Path 404" class="cls-12" d="M106.717,35.019V16H104V37.736h29.887V35.019Zm0,0" transform="translate(-86.339 -13.283)"/>
  <path id="Path_405" data-name="Path 405" class="cls-13" d="M163.589,49.59c-.938-.5-2.5-.781-4.8.5-2.293-1.286-3.859-1.006-4.8-.5a4,4,0,0,0-2,3.456c0,2.811,4.674,5.767,6.106,6.606a1.369,1.369,0,0,0,1.373,0c1.433-.839,6.106-3.795,6.106-6.606A4,4,0,0,0,163.589,49.59Zm0,0" transform="translate(-126.188 -40.82)"/>
</svg>
