<svg xmlns="http://www.w3.org/2000/svg" xmlns:xlink="http://www.w3.org/1999/xlink" width="154.22" height="49.801" viewBox="0 0 154.22 49.801">
  <defs>
    <style>
      .cls-1 {
        fill: url(#linear-gradient);
      }

      .cls-2 {
        fill: url(#linear-gradient-2);
      }

      .cls-3 {
        fill: url(#linear-gradient-3);
      }

      .cls-4 {
        fill: url(#linear-gradient-4);
      }

      .cls-5 {
        fill: url(#linear-gradient-5);
      }

      .cls-6 {
        fill: url(#linear-gradient-6);
      }

      .cls-7 {
        fill: url(#linear-gradient-7);
      }

      .cls-8 {
        fill: #f98091;
      }

      .cls-9 {
        fill: url(#linear-gradient-8);
      }

      .cls-10 {
        fill: #fd6d81;
      }

      .cls-11 {
        fill: url(#linear-gradient-9);
      }

      .cls-12 {
        isolation: isolate;
      }

      .cls-13 {
        fill: #359bdb;
      }
    </style>
    <linearGradient id="linear-gradient" x1="0.815" y1="-1.465" x2="-0.282" y2="-0.729" gradientUnits="objectBoundingBox">
      <stop offset="0" stop-color="#777"/>
      <stop offset="1" stop-color="#3b4041"/>
    </linearGradient>
    <linearGradient id="linear-gradient-2" x1="0.179" y1="-1.078" x2="1.277" y2="-1.813" xlink:href="#linear-gradient"/>
    <linearGradient id="linear-gradient-3" x1="0.783" y1="-2.091" x2="0.455" y2="-1.303" gradientUnits="objectBoundingBox">
      <stop offset="0" stop-color="#3b4041" stop-opacity="0"/>
      <stop offset="1" stop-color="#3b4041"/>
    </linearGradient>
    <linearGradient id="linear-gradient-4" x1="0.181" y1="-1.668" x2="1.269" y2="-2.422" gradientUnits="objectBoundingBox">
      <stop offset="0" stop-color="#35ecff"/>
      <stop offset="1" stop-color="#359bdb"/>
    </linearGradient>
    <linearGradient id="linear-gradient-5" x1="0.995" y1="-2.224" x2="0.409" y2="-1.62" gradientUnits="objectBoundingBox">
      <stop offset="0" stop-color="#61c6ff" stop-opacity="0"/>
      <stop offset="1" stop-color="#359bdb"/>
    </linearGradient>
    <linearGradient id="linear-gradient-6" x1="1.925" y1="-20.354" x2="-2.886" y2="-18.519" xlink:href="#linear-gradient"/>
    <linearGradient id="linear-gradient-7" x1="3.017" y1="-30.185" x2="-5.201" y2="-28.351" xlink:href="#linear-gradient"/>
    <linearGradient id="linear-gradient-8" x1="0.497" y1="-3.629" x2="0.497" y2="-4.441" gradientUnits="objectBoundingBox">
      <stop offset="0" stop-color="#fff"/>
      <stop offset="1" stop-color="#f2f2f2"/>
    </linearGradient>
    <linearGradient id="linear-gradient-9" y1="-2.172" x2="1" y2="-2.172" gradientUnits="objectBoundingBox">
      <stop offset="0" stop-color="#d4e3ee"/>
      <stop offset="0.52" stop-color="#d2e3ee"/>
      <stop offset="0.7" stop-color="#cbe3ee"/>
      <stop offset="0.84" stop-color="#c0e3ee"/>
      <stop offset="0.94" stop-color="#afe3ee"/>
      <stop offset="1" stop-color="#a2e3ee"/>
    </linearGradient>
  </defs>
  <g id="Layer_2" data-name="Layer 2" transform="translate(0 0)">
    <g id="Capa_1" data-name="Capa 1" transform="translate(0 0)">
      <g id="Group_207" data-name="Group 207" transform="translate(0 0)">
        <g id="Group_204" data-name="Group 204">
          <path id="Path_567" data-name="Path 567" class="cls-1" d="M63.308,0H91.381a2.6,2.6,0,0,1,2.608,2.608V47.032a2.6,2.6,0,0,1-2.608,2.608H63.308A2.6,2.6,0,0,1,60.7,47.032V2.608A2.6,2.6,0,0,1,63.308,0Z" transform="translate(-52.94 0)"/>
          <path id="Path_568" data-name="Path 568" class="cls-2" d="M93.753,52.753H66.344A2.543,2.543,0,0,1,63.8,50.209V6.744A2.543,2.543,0,0,1,66.344,4.2H93.753A2.543,2.543,0,0,1,96.3,6.744V50.209a2.543,2.543,0,0,1-2.544,2.544Z" transform="translate(-55.644 -3.663)"/>
          <path id="Path_569" data-name="Path 569" class="cls-3" d="M93.989,52.826V91.6a2.6,2.6,0,0,1-2.608,2.608H85.3L60.713,69.624l-.013-.013V52.826l.6-.78a2.429,2.429,0,0,1,1.93-.946H91.471a2.429,2.429,0,0,1,1.93.946Z" transform="translate(-52.94 -44.567)"/>
          <path id="Path_570" data-name="Path 570" class="cls-4" d="M116.067,87.457H93.555A1.356,1.356,0,0,1,92.2,86.1V52.455A1.356,1.356,0,0,1,93.555,51.1h22.512a1.356,1.356,0,0,1,1.355,1.355v33.66a1.345,1.345,0,0,1-1.355,1.342Z" transform="translate(-80.413 -44.567)"/>
          <path id="Path_571" data-name="Path 571" class="cls-5" d="M116.067,51.1H93.555A1.356,1.356,0,0,0,92.2,52.455V73.638l13.819,13.819h10.048a1.356,1.356,0,0,0,1.355-1.355V52.455a1.347,1.347,0,0,0-1.355-1.355Z" transform="translate(-80.413 -44.567)"/>
          <path id="Path_572" data-name="Path 572" class="cls-6" d="M169.338,21.9H164.2a1.1,1.1,0,0,1-1.1-1.1h0a1.1,1.1,0,0,1,1.1-1.1h5.139a1.1,1.1,0,0,1,1.1,1.1h0a1.107,1.107,0,0,1-1.1,1.1Z" transform="translate(-142.25 -17.182)"/>
          <circle id="Ellipse_29" data-name="Ellipse 29" class="cls-7" cx="2.148" cy="2.148" r="2.148" transform="translate(22.257 43.912)"/>
          <path id="Path_573" data-name="Path 573" class="cls-8" d="M40.448,52.046a2.429,2.429,0,0,0-1.93-.946H10.278a2.429,2.429,0,0,0-1.93.946L0,62.848l.6,3.119H47.812l.984-3.119Z" transform="translate(0 -44.567)"/>
          <path id="Path_574" data-name="Path 574" class="cls-9" d="M100.576,52.046a1.387,1.387,0,0,0-1.163-.946H82.475a1.4,1.4,0,0,0-1.163.946L76.3,62.848l.166,2.915h28.776l.332-2.915Z" transform="translate(-66.546 -44.567)"/>
          <path id="Path_575" data-name="Path 575" class="cls-8" d="M160.792,52.046c-.089-.6-.23-.946-.384-.946h-5.65c-.153,0-.294.345-.384.946l-1.675,10.8h9.754Z" transform="translate(-133.179 -44.567)"/>
          <path id="Path_576" data-name="Path 576" class="cls-10" d="M4.883,150.621h0A4.883,4.883,0,0,1,0,145.738V142.9H9.754v2.838a4.858,4.858,0,0,1-4.871,4.883Z" transform="translate(0 -124.632)"/>
          <path id="Path_577" data-name="Path 577" class="cls-11" d="M81.283,150.621h0a4.883,4.883,0,0,1-4.883-4.883V142.9h9.754v2.838a4.872,4.872,0,0,1-4.871,4.883Z" transform="translate(-66.633 -124.632)"/>
          <path id="Path_578" data-name="Path 578" class="cls-10" d="M157.583,150.621h0a4.883,4.883,0,0,1-4.883-4.883V142.9h9.754v2.838a4.858,4.858,0,0,1-4.871,4.883Z" transform="translate(-133.179 -124.632)"/>
          <path id="Path_579" data-name="Path 579" class="cls-11" d="M233.883,150.621h0A4.883,4.883,0,0,1,229,145.738V142.9h9.754v2.838a4.858,4.858,0,0,1-4.871,4.883Z" transform="translate(-199.725 -124.632)"/>
          <path id="Path_580" data-name="Path 580" class="cls-10" d="M310.183,150.621h0a4.883,4.883,0,0,1-4.883-4.883V142.9h9.754v2.838a4.858,4.858,0,0,1-4.871,4.883Z" transform="translate(-266.271 -124.632)"/>
        </g>
        <g id="Group_205" data-name="Group 205" class="cls-12" transform="translate(49.421 25.422)">
          <path id="Path_581" data-name="Path 581" class="cls-13" d="M395.1,275.22a9.852,9.852,0,0,1-4.545-.979,6.9,6.9,0,0,1-2.94-2.812,8.822,8.822,0,0,1-1.023-4.368,9.171,9.171,0,0,1,1.06-4.474,7.717,7.717,0,0,1,7-4.125,6.286,6.286,0,0,1,5.54,2.557q1.782,2.557,1.236,7.05H390.57a3.74,3.74,0,0,0,1.381,2.731,5.743,5.743,0,0,0,5.509.573,4.55,4.55,0,0,0,1.782-1.381l2.281,2.313a7.691,7.691,0,0,1-2.65,2.152A8.491,8.491,0,0,1,395.1,275.22Zm-.384-13.807a3.725,3.725,0,0,0-2.7,1.023,4.805,4.805,0,0,0-1.349,2.763h7.388a3.7,3.7,0,0,0-.867-2.89,3.414,3.414,0,0,0-2.476-.9Z" transform="translate(-386.59 -250.841)"/>
          <path id="Path_582" data-name="Path 582" class="cls-13" d="M526.284,229.806a9.782,9.782,0,0,1-6.264-1.8,7.255,7.255,0,0,1-2.57-5.267l3.918-.578q.578,4.111,5.107,4.111a5.146,5.146,0,0,0,3.052-.787,2.554,2.554,0,0,0,1.092-2.2,2.132,2.132,0,0,0-1.092-1.943,13.1,13.1,0,0,0-3.5-1.236,20.453,20.453,0,0,1-3.854-1.3,5.8,5.8,0,0,1-2.457-2.045,6.107,6.107,0,0,1-.851-3.4,6.357,6.357,0,0,1,1.044-3.6,7.144,7.144,0,0,1,2.875-2.474,9.54,9.54,0,0,1,4.239-.895,7.906,7.906,0,0,1,5.2,1.67,6.742,6.742,0,0,1,2.376,4.593l-3.657.612a3.783,3.783,0,0,0-4.114-3.346,4.106,4.106,0,0,0-2.714.867,2.82,2.82,0,0,0-1.044,2.281,2.544,2.544,0,0,0,1.023,2.173,9.879,9.879,0,0,0,3.507,1.327,22.791,22.791,0,0,1,3.822,1.2,5.834,5.834,0,0,1,2.489,1.911,5.594,5.594,0,0,1,.883,3.34,5.948,5.948,0,0,1-1.076,3.517,7.19,7.19,0,0,1-2.988,2.393A10.743,10.743,0,0,1,526.284,229.806Z" transform="translate(-500.721 -205.427)"/>
          <path id="Path_583" data-name="Path 583" class="cls-13" d="M665.17,254.139a6.181,6.181,0,0,1-4.545-1.606,5.559,5.559,0,0,1-1.592-4.207l.128-7.415H656.4V237.63h2.827l.032-3.34h3.918l-.064,3.34h5.3v3.27h-5.332l-.1,7a2.845,2.845,0,0,0,.658,2.072,2.672,2.672,0,0,0,2.072.754,4.787,4.787,0,0,0,1.381-.193,4.566,4.566,0,0,0,1.349-.707l1.151,3.02a4.794,4.794,0,0,1-1.889.964A9.479,9.479,0,0,1,665.17,254.139Z" transform="translate(-621.908 -229.761)"/>
          <path id="Path_584" data-name="Path 584" class="cls-13" d="M772.8,258.41a7.5,7.5,0,0,1,5.7,2.173,8.142,8.142,0,0,1,2.072,5.861,9.4,9.4,0,0,1-1.044,4.474,7.843,7.843,0,0,1-2.94,3.115,8.37,8.37,0,0,1-4.4,1.14,7.545,7.545,0,0,1-5.7-2.152,8.122,8.122,0,0,1-2.072-5.881,9.4,9.4,0,0,1,1.044-4.474,7.877,7.877,0,0,1,2.922-3.115A8.36,8.36,0,0,1,772.8,258.41Zm-.482,13.33a3.717,3.717,0,0,0,3.052-1.446,5.965,5.965,0,0,0,1.15-3.854,5.057,5.057,0,0,0-1.011-3.372,3.453,3.453,0,0,0-2.778-1.189,3.78,3.78,0,0,0-3.116,1.446,5.92,5.92,0,0,0-1.15,3.822,5.117,5.117,0,0,0,1.013,3.389,3.509,3.509,0,0,0,2.842,1.2Z" transform="translate(-716.11 -250.797)"/>
          <path id="Path_585" data-name="Path 585" class="cls-13" d="M927.864,262.5a5.047,5.047,0,0,0-1.641-.225,3.463,3.463,0,0,0-2.795,1.268,8.741,8.741,0,0,0-1.552,4.047,43.153,43.153,0,0,0-.5,7.339h-3.886V264.46l-.032-5.753h3.918l-.193,4.529a7.054,7.054,0,0,1,2.327-3.686,5.36,5.36,0,0,1,3.2-1.092,6.839,6.839,0,0,1,.964.064,4.839,4.839,0,0,1,.835.193Z" transform="translate(-849.595 -250.84)"/>
          <path id="Path_586" data-name="Path 586" class="cls-13" d="M1018.179,207.448a2.422,2.422,0,0,1-1.831-.707,2.485,2.485,0,0,1,0-3.4,2.724,2.724,0,0,1,3.661,0,2.485,2.485,0,0,1,0,3.4A2.409,2.409,0,0,1,1018.179,207.448Zm1.96,2.57v16.22h-3.918v-16.22Z" transform="translate(-935.253 -202.148)"/>
          <path id="Path_587" data-name="Path 587" class="cls-13" d="M1068.5,222.95V210h-3.083v-3.27h3.083v-.707a7.94,7.94,0,0,1,.867-3.822,6.126,6.126,0,0,1,2.388-2.472,6.925,6.925,0,0,1,3.485-.867,5.217,5.217,0,0,1,3.34.932l-1.638,2.827a3.211,3.211,0,0,0-1.7-.45,2.65,2.65,0,0,0-2.088.867,3.807,3.807,0,0,0-.767,2.6v1.092h4.818V210h-4.753v12.95Zm12.43-18.792a2.421,2.421,0,0,1-1.83-.707,2.485,2.485,0,0,1,0-3.4,2.724,2.724,0,0,1,3.661,0,2.485,2.485,0,0,1,0,3.4,2.4,2.4,0,0,1-1.831.709Zm1.96,2.57V222.95h-3.918V206.73Z" transform="translate(-978.64 -198.861)"/>
        </g>
      </g>
    </g>
  </g>
</svg>
