<svg xmlns="http://www.w3.org/2000/svg" id="megaphone" width="71.83" height="73.679" viewBox="0 0 71.83 73.679">
    <defs>
        <style>
            .cls-1{fill:#566575}.cls-2{fill:#ffc300}.cls-3{fill:#edf0f5}.cls-4{fill:#ff7b41}.cls-5{fill:#e1effb}
        </style>
    </defs>
    <path id="Path_682" d="M125.226 312.127l-11.268-28.555-9.723 3.837 10.828 27.438a2.522 2.522 0 0 0 2.742 1.565l5.471-.868a2.522 2.522 0 0 0 1.95-3.417z" class="cls-1" data-name="Path 682" transform="translate(-90.16 -242.765)"/>
    <path id="Path_684" d="M27.373 206.912l-13.348 2.118a5.3 5.3 0 0 1-6.069-4.406L6.491 195.4a5.3 5.3 0 0 1 4.406-6.069l13.348-2.118z" class="cls-2" data-name="Path 684" transform="translate(-6.425 -160.268)"/>
    <path id="Path_686" d="M100.616 42.276l2.664 16.783a2.827 2.827 0 0 0 2.879 2.384c7.406-.227 30.435-.185 49.556 8.234a2.152 2.152 0 0 0 2.985-2.313l-7.959-50.144a2.152 2.152 0 0 0-3.554-1.276c-15.575 13.926-37.459 21.1-44.572 23.173a2.827 2.827 0 0 0-1.999 3.159z" class="cls-3" data-name="Path 686" transform="translate(-87.031 -13.182)"/>
    <path id="Path_688" d="M79.029 163.654L62.414 166.3a2.478 2.478 0 0 1-2.836-2.058l-4.486-28.213a2.478 2.478 0 0 1 2.058-2.836l16.615-2.642A2.478 2.478 0 0 1 76.6 132.6l4.486 28.213a2.478 2.478 0 0 1-2.057 2.841z" class="cls-4" data-name="Path 688" transform="translate(-48.062 -111.734)"/>
    <path id="Path_690" d="M405.143 59.44a4.069 4.069 0 0 0 3.38-4.658l-8.166-51.351A4.069 4.069 0 0 0 395.7.051a4.069 4.069 0 0 0-3.38 4.658l8.166 51.352a4.069 4.069 0 0 0 4.657 3.379z" class="cls-2" data-name="Path 690" transform="translate(-336.744)"/>
    <g id="Group_238" data-name="Group 238" transform="translate(11.995 28.156)">
        <path id="Path_692" d="M91.03 199.544l10.908-1.734a1.082 1.082 0 1 0-.34-2.137l-10.908 1.734a1.082 1.082 0 0 0 .169 2.15 1.1 1.1 0 0 0 .171-.013z" class="cls-5" data-name="Path 692" transform="translate(-89.779 -195.66)"/>
        <path id="Path_693" d="M109.057 242.092a1.082 1.082 0 1 0-.34-2.137L97.81 241.69a1.082 1.082 0 1 0 .34 2.137z" class="cls-5" data-name="Path 693" transform="translate(-95.873 -233.569)"/>
        <path id="Path_694" d="M117.749 289.016a1.081 1.081 0 0 0-1.238-.9l-10.911 1.736a1.082 1.082 0 1 0 .34 2.137l10.908-1.734a1.082 1.082 0 0 0 .901-1.239z" class="cls-5" data-name="Path 694" transform="translate(-102.546 -274.801)"/>
    </g>
</svg>
