<svg xmlns="http://www.w3.org/2000/svg" xmlns:xlink="http://www.w3.org/1999/xlink" width="31" height="31.195" viewBox="0 0 31 31.195"><defs><linearGradient id="a" x1="0.497" y1="-3.629" x2="0.497" y2="-4.441" gradientUnits="objectBoundingBox"><stop offset="0" stop-color="#fff"/><stop offset="1" stop-color="#f2f2f2"/></linearGradient></defs><g transform="translate(0 -0.341)"><path d="M82.829,35.046H65.416A1.615,1.615,0,0,1,63.8,33.43V5.816A1.615,1.615,0,0,1,65.416,4.2H82.829a1.615,1.615,0,0,1,1.616,1.616V33.43a1.615,1.615,0,0,1-1.616,1.616Z" transform="translate(-58.618 -3.859)" fill="#e6e6e6"/><path d="M81.849,52.2V76.829a1.654,1.654,0,0,1-1.657,1.657H76.326L60.708,62.868,60.7,62.86V52.2l.382-.5a1.543,1.543,0,0,1,1.226-.6H80.249a1.543,1.543,0,0,1,1.226.6Z" transform="translate(-55.77 -46.95)" fill="#d3d3d3"/><path d="M107.363,74.2h-14.3a.862.862,0,0,1-.861-.861V51.961a.862.862,0,0,1,.861-.861h14.3a.862.862,0,0,1,.861.861V73.345a.854.854,0,0,1-.861.853Z" transform="translate(-84.712 -46.95)" fill="#d3d3d3"/><path d="M107.363,51.1h-14.3a.862.862,0,0,0-.861.861V65.418l8.779,8.779h6.384a.862.862,0,0,0,.861-.861V51.961a.856.856,0,0,0-.861-.861Z" transform="translate(-84.712 -46.95)" fill="#acb3ba"/><path d="M167.063,21.1H163.8a.7.7,0,0,1-.7-.7h0a.7.7,0,0,1,.7-.7h3.265a.7.7,0,0,1,.7.7h0a.7.7,0,0,1-.7.7Z" transform="translate(-149.854 -18.1)" fill="#acb3ba"/><circle cx="1.364" cy="1.364" r="1.364" transform="translate(14.14 27.898)" fill="#acb3ba"/><path d="M25.7,51.7a1.543,1.543,0,0,0-1.226-.6H6.53a1.543,1.543,0,0,0-1.226.6L0,58.564l.382,1.982H30.375L31,58.564Z" transform="translate(0 -46.95)" fill="#e6e6e6"/><path d="M91.723,51.7a.881.881,0,0,0-.739-.6H80.223a.891.891,0,0,0-.739.6L76.3,58.564l.106,1.852H94.687l.211-1.852Z" transform="translate(-70.103 -46.95)" fill="url(#a)"/><path d="M157.841,51.7c-.057-.382-.146-.6-.244-.6h-3.59c-.1,0-.187.219-.244.6L152.7,58.564h6.2Z" transform="translate(-140.298 -46.95)" fill="#e6e6e6"/><path d="M3.1,147.805h0A3.1,3.1,0,0,1,0,144.7v-1.8H6.2v1.8a3.086,3.086,0,0,1-3.094,3.1Z" transform="translate(0 -131.294)" fill="#d3d3d3"/><path d="M79.5,147.805h0a3.1,3.1,0,0,1-3.1-3.1v-1.8h6.2v1.8a3.1,3.1,0,0,1-3.094,3.1Z" transform="translate(-70.195 -131.294)" fill="#e6e6e6"/><path d="M155.8,147.805h0a3.1,3.1,0,0,1-3.1-3.1v-1.8h6.2v1.8a3.086,3.086,0,0,1-3.094,3.1Z" transform="translate(-140.298 -131.294)" fill="#d3d3d3"/><path d="M232.1,147.805h0a3.1,3.1,0,0,1-3.1-3.1v-1.8h6.2v1.8a3.086,3.086,0,0,1-3.094,3.1Z" transform="translate(-210.402 -131.294)" fill="#e6e6e6"/><path d="M308.4,147.805h0a3.1,3.1,0,0,1-3.1-3.1v-1.8h6.2v1.8a3.086,3.086,0,0,1-3.094,3.1Z" transform="translate(-280.505 -131.294)" fill="#d3d3d3"/></g></svg>