<svg xmlns="http://www.w3.org/2000/svg" xmlns:xlink="http://www.w3.org/1999/xlink" width="31" height="31.536" viewBox="0 0 31 31.536"><defs><linearGradient id="a" x1="0.815" y1="-1.465" x2="-0.282" y2="-0.729" gradientUnits="objectBoundingBox"><stop offset="0" stop-color="#777"/><stop offset="1" stop-color="#3b4041"/></linearGradient><linearGradient id="b" x1="0.179" y1="-1.078" x2="1.277" y2="-1.813" xlink:href="#a"/><linearGradient id="c" x1="0.783" y1="-2.091" x2="0.455" y2="-1.303" gradientUnits="objectBoundingBox"><stop offset="0" stop-color="#3b4041" stop-opacity="0"/><stop offset="1" stop-color="#3b4041"/></linearGradient><linearGradient id="d" x1="0.181" y1="-1.668" x2="1.269" y2="-2.422" gradientUnits="objectBoundingBox"><stop offset="0" stop-color="#35ecff"/><stop offset="1" stop-color="#359bdb"/></linearGradient><linearGradient id="e" x1="0.995" y1="-2.224" x2="0.409" y2="-1.62" gradientUnits="objectBoundingBox"><stop offset="0" stop-color="#61c6ff" stop-opacity="0"/><stop offset="1" stop-color="#359bdb"/></linearGradient><linearGradient id="f" x1="1.925" y1="-20.354" x2="-2.886" y2="-18.519" xlink:href="#a"/><linearGradient id="g" x1="3.017" y1="-30.185" x2="-5.201" y2="-28.351" xlink:href="#a"/><linearGradient id="h" x1="0.497" y1="-3.629" x2="0.497" y2="-4.441" gradientUnits="objectBoundingBox"><stop offset="0" stop-color="#fff"/><stop offset="1" stop-color="#f2f2f2"/></linearGradient><linearGradient id="i" y1="-2.172" x2="1" y2="-2.172" gradientUnits="objectBoundingBox"><stop offset="0" stop-color="#d4e3ee"/><stop offset="0.52" stop-color="#d2e3ee"/><stop offset="0.7" stop-color="#cbe3ee"/><stop offset="0.84" stop-color="#c0e3ee"/><stop offset="0.94" stop-color="#afe3ee"/><stop offset="1" stop-color="#a2e3ee"/></linearGradient></defs><path d="M62.357,0H80.192a1.654,1.654,0,0,1,1.657,1.657V29.879a1.654,1.654,0,0,1-1.657,1.657H62.357A1.654,1.654,0,0,1,60.7,29.879V1.657A1.654,1.654,0,0,1,62.357,0Z" transform="translate(-55.77 0)" fill="url(#a)"/><path d="M82.829,35.046H65.416A1.615,1.615,0,0,1,63.8,33.43V5.816A1.615,1.615,0,0,1,65.416,4.2H82.829a1.615,1.615,0,0,1,1.616,1.616V33.43a1.615,1.615,0,0,1-1.616,1.616Z" transform="translate(-58.618 -3.859)" fill="url(#b)"/><path d="M81.849,52.2V76.829a1.654,1.654,0,0,1-1.657,1.657H76.326L60.708,62.868,60.7,62.86V52.2l.382-.5a1.543,1.543,0,0,1,1.226-.6H80.249a1.543,1.543,0,0,1,1.226.6Z" transform="translate(-55.77 -46.95)" fill="url(#c)"/><path d="M107.363,74.2h-14.3a.862.862,0,0,1-.861-.861V51.961a.862.862,0,0,1,.861-.861h14.3a.862.862,0,0,1,.861.861V73.345a.854.854,0,0,1-.861.853Z" transform="translate(-84.712 -46.95)" fill="url(#d)"/><path d="M107.363,51.1h-14.3a.862.862,0,0,0-.861.861V65.418l8.779,8.779h6.384a.862.862,0,0,0,.861-.861V51.961a.856.856,0,0,0-.861-.861Z" transform="translate(-84.712 -46.95)" fill="url(#e)"/><path d="M167.063,21.1H163.8a.7.7,0,0,1-.7-.7h0a.7.7,0,0,1,.7-.7h3.265a.7.7,0,0,1,.7.7h0a.7.7,0,0,1-.7.7Z" transform="translate(-149.854 -18.1)" fill="url(#f)"/><circle cx="1.364" cy="1.364" r="1.364" transform="translate(14.14 27.898)" fill="url(#g)"/><path d="M25.7,51.7a1.543,1.543,0,0,0-1.226-.6H6.53a1.543,1.543,0,0,0-1.226.6L0,58.564l.382,1.982H30.375L31,58.564Z" transform="translate(0 -46.95)" fill="#f98091"/><path d="M91.723,51.7a.881.881,0,0,0-.739-.6H80.223a.891.891,0,0,0-.739.6L76.3,58.564l.106,1.852H94.687l.211-1.852Z" transform="translate(-70.103 -46.95)" fill="url(#h)"/><path d="M157.841,51.7c-.057-.382-.146-.6-.244-.6h-3.59c-.1,0-.187.219-.244.6L152.7,58.564h6.2Z" transform="translate(-140.298 -46.95)" fill="#f98091"/><path d="M3.1,147.805h0A3.1,3.1,0,0,1,0,144.7v-1.8H6.2v1.8a3.086,3.086,0,0,1-3.094,3.1Z" transform="translate(0 -131.294)" fill="#fd6d81"/><path d="M79.5,147.805h0a3.1,3.1,0,0,1-3.1-3.1v-1.8h6.2v1.8a3.1,3.1,0,0,1-3.094,3.1Z" transform="translate(-70.195 -131.294)" fill="url(#i)"/><path d="M155.8,147.805h0a3.1,3.1,0,0,1-3.1-3.1v-1.8h6.2v1.8a3.086,3.086,0,0,1-3.094,3.1Z" transform="translate(-140.298 -131.294)" fill="#fd6d81"/><path d="M232.1,147.805h0a3.1,3.1,0,0,1-3.1-3.1v-1.8h6.2v1.8a3.086,3.086,0,0,1-3.094,3.1Z" transform="translate(-210.402 -131.294)" fill="url(#i)"/><path d="M308.4,147.805h0a3.1,3.1,0,0,1-3.1-3.1v-1.8h6.2v1.8a3.086,3.086,0,0,1-3.094,3.1Z" transform="translate(-280.505 -131.294)" fill="#fd6d81"/></svg>