<svg id="_Group_2" data-name=" Group 2" xmlns="http://www.w3.org/2000/svg" width="79.164" height="73.679" viewBox="0 0 79.164 73.679">
  <defs>
    <style>
      .cls-1 {
        fill: #f8ec7d;
      }

      .cls-2 {
        fill: #6fe3ff;
      }

      .cls-3 {
        fill: #c16752;
      }

      .cls-4 {
        fill: #af593c;
      }

      .cls-5 {
        fill: #e48e66;
      }

      .cls-6 {
        fill: #2561a1;
      }
    </style>
  </defs>
  <path id="Path_741" data-name="Path 741" class="cls-1" d="M343.023,234.906v33.331a3.808,3.808,0,0,1-3.806,3.808h-22.6a3.807,3.807,0,0,1-3.806-3.807V234.906a3.806,3.806,0,0,1,3.807-3.806h5.14v.012a2.83,2.83,0,0,0,2.831,2.83h6.657a2.83,2.83,0,0,0,2.83-2.831V231.1h5.141a3.807,3.807,0,0,1,3.807,3.806Zm-19.639,21.1v-5.439h-5.438v5.439Z" transform="translate(-263.858 -198.367)"/>
  <path id="Path_742" data-name="Path 742" class="cls-2" d="M367.06,215.893v-.173a2.83,2.83,0,0,1,2.831-2.83h6.657a2.83,2.83,0,0,1,2.83,2.831v.184a2.83,2.83,0,0,1-2.831,2.83H369.89a2.83,2.83,0,0,1-2.83-2.831Z" transform="translate(-309.161 -183.161)"/>
  <path id="Path_743" data-name="Path 743" class="cls-3" d="M234.6,140.972v11.86h-1.169a2.83,2.83,0,0,0-2.83,2.831v.173H225.46a3.806,3.806,0,0,0-3.806,3.807v24.54l-18,10.394V158.836L234.6,140.97Z" transform="translate(-172.702 -123.102)"/>
  <path id="Path_744" data-name="Path 744" class="cls-4" d="M123.767,112.707,107.99,103.6,138.935,85.73h0l15.777,9.11Z" transform="translate(-92.819 -76.972)"/>
  <rect id="Rectangle_251" data-name="Rectangle 251" class="cls-2" width="5.438" height="5.439" transform="translate(54.087 52.202)"/>
  <path id="Path_745" data-name="Path 745" class="cls-3" d="M62.133,41.388,31.188,59.256,16.02,50.5,46.965,32.63Z" transform="translate(-16.017 -32.63)"/>
  <path id="Path_746" data-name="Path 746" class="cls-5" d="M46.948,158.836v35.739L16,176.708V140.972l0,0,15.168,8.758Z" transform="translate(-16 -123.102)"/>
  <path id="Path_747" data-name="Path 747" class="cls-2" d="M339.313,285.778H338.1a1.154,1.154,0,0,1-1.154-1.154v-5.439a1.155,1.155,0,0,1,1.155-1.154h5.438a1.154,1.154,0,0,1,1.154,1.154v.777a1.154,1.154,0,0,1-2.246.378h-3.192v3.13h.054a1.154,1.154,0,0,1,0,2.309Z" transform="translate(-284.017 -237.557)"/>
  <path id="Path_748" data-name="Path 748" class="cls-2" d="M339.313,414.017H338.1a1.154,1.154,0,0,1-1.154-1.154v-5.438a1.154,1.154,0,0,1,1.155-1.154h5.438a1.155,1.155,0,0,1,1.154,1.155v1.112a1.155,1.155,0,1,1-2.309.043h-3.129v3.129h.054a1.154,1.154,0,0,1,0,2.309Z" transform="translate(-284.017 -344.647)"/>
  <path id="Path_749" data-name="Path 749" class="cls-6" d="M357.35,291.052a1.15,1.15,0,0,1-.816-.338l-1.846-1.844a1.155,1.155,0,0,1,1.633-1.633l1.029,1.028,3.381-3.381a1.155,1.155,0,0,1,1.633,1.633l-4.2,4.2A1.151,1.151,0,0,1,357.35,291.052Z" transform="translate(-298.547 -242.999)"/>
  <path id="Path_750" data-name="Path 750" class="cls-6" d="M357.35,420.3a1.15,1.15,0,0,1-.816-.338l-1.846-1.844a1.155,1.155,0,0,1,1.633-1.633l1.029,1.028,3.381-3.381a1.155,1.155,0,0,1,1.633,1.633l-4.2,4.2A1.151,1.151,0,0,1,357.35,420.3Z" transform="translate(-298.547 -350.933)"/>
  <path id="Path_751" data-name="Path 751" class="cls-5" d="M422.3,296.829h-7.252a1.154,1.154,0,1,1,0-2.309H422.3a1.154,1.154,0,0,1,0,2.309Z" transform="translate(-348.268 -251.328)"/>
  <path id="Path_752" data-name="Path 752" class="cls-5" d="M422.3,360.949h-7.252a1.154,1.154,0,0,1,0-2.309H422.3a1.154,1.154,0,1,1,0,2.309Z" transform="translate(-348.268 -304.873)"/>
  <path id="Path_753" data-name="Path 753" class="cls-5" d="M422.3,425.069h-7.252a1.154,1.154,0,1,1,0-2.309H422.3a1.154,1.154,0,1,1,0,2.309Z" transform="translate(-348.268 -358.418)"/>
</svg>
