<svg xmlns="http://www.w3.org/2000/svg" id="surface1" width="74.972" height="73.679" viewBox="0 0 74.972 73.679">
    <defs>
        <style>
            .cls-1{fill:#bddbff}.cls-2{fill:#9bc9ff}.cls-3{fill:#57a4ff}.cls-4{fill:#2488ff}.cls-5{fill:#6ac741}.cls-6{fill:#f1f2f2}
        </style>
    </defs>
    <path id="Path_754" d="M62.046 9.048c0-5-13.889-9.048-31.023-9.048S0 4.051 0 9.048 13.889 18.1 31.023 18.1s31.023-4.054 31.023-9.052zm0 0" class="cls-1" data-name="Path 754"/>
    <path id="Path_755" d="M31.023 83.145c17.127 0 31.023-4.046 31.023-9.048V56c0 5-13.9 9.048-31.023 9.048S0 61 0 56v18.1c0 5 13.9 9.045 31.023 9.045zm0 0" class="cls-2" data-name="Path 755" transform="translate(0 -46.952)"/>
    <path id="Path_756" d="M31.023 195.145a102.383 102.383 0 0 0 10.638-.543 16.8 16.8 0 0 1 20.385-13.223V168c0 5-13.9 9.048-31.023 9.048S0 173 0 168v18.1c0 5 13.9 9.045 31.023 9.045zm0 0" class="cls-3" data-name="Path 756" transform="translate(0 -140.855)"/>
    <path id="Path_757" d="M41.364 291.634a16.567 16.567 0 0 1 .3-3.128 102.387 102.387 0 0 1-10.638.543C13.9 289.048 0 285 0 280v18.1c0 5 13.9 9.048 31.023 9.048a90.863 90.863 0 0 0 17.7-1.616 16.8 16.8 0 0 1-7.359-13.898zm0 0" class="cls-4" data-name="Path 757" transform="translate(0 -234.758)"/>
    <path id="Path_758" d="M276.682 248.441a16.8 16.8 0 1 0 12.926 16.352 16.8 16.8 0 0 0-12.926-16.352zm-7.756 24.107l-7.313-7.312 7.313 7.312 11.621-11.621 3-3zm0 0" class="cls-5" data-name="Path 758" transform="translate(-214.636 -207.918)"/>
    <path id="Path_759" d="M288.647 313.122a.874.874 0 0 1-.618-.256l-4.943-4.943a.874.874 0 0 1 1.235-1.236l4.326 4.325 9.268-9.268a.874.874 0 0 1 1.237 1.237l-9.886 9.885a.874.874 0 0 1-.619.256zm0 0" class="cls-6" data-name="Path 759" transform="translate(-231.864 -250.751)"/>
</svg>
