<svg id="tablet" xmlns="http://www.w3.org/2000/svg" width="93.94" height="87.586" viewBox="0 0 93.94 87.586">
  <defs>
    <style>
      .cls-1 {
        fill: #c3c8d1;
      }

      .cls-2 {
        fill: #b0b3b7;
      }

      .cls-3 {
        fill: #707487;
      }

      .cls-4 {
        fill: #5e6377;
      }

      .cls-5 {
        fill: #e4eaf8;
      }

      .cls-6 {
        fill: #d8dce5;
      }

      .cls-7 {
        fill: #00c3ff;
      }

      .cls-8 {
        fill: #ff5050;
      }

      .cls-9 {
        fill: #ed3a3a;
      }

      .cls-10 {
        fill: #5bddfc;
      }
    </style>
  </defs>
  <rect id="Rectangle_115" data-name="Rectangle 115" class="cls-1" width="19.951" height="11.152" transform="translate(41.774 70.627)"/>
  <rect id="Rectangle_116" data-name="Rectangle 116" class="cls-2" width="3.781" height="11.152" transform="translate(41.774 70.627)"/>
  <path id="Path_317" data-name="Path 317" class="cls-3" d="M130.469,17.314H58.095a6.01,6.01,0,0,0-6,6V82.638a6.01,6.01,0,0,0,6,6h72.375a6.011,6.011,0,0,0,6-6V23.318A6.011,6.011,0,0,0,130.469,17.314Z" transform="translate(-42.534 -17.314)"/>
  <path id="Path_318" data-name="Path 318" class="cls-4" d="M55.871,82.638V23.318a6.011,6.011,0,0,1,6-6h-3.78a6.01,6.01,0,0,0-6,6V82.638a6.01,6.01,0,0,0,6,6h3.781A6.01,6.01,0,0,1,55.871,82.638Z" transform="translate(-42.534 -17.314)"/>
  <path id="Path_319" data-name="Path 319" class="cls-5" d="M88.448,106.355v47.784a.536.536,0,0,0,.536.536h69.967a.536.536,0,0,0,.536-.536V106.355Z" transform="translate(-72.22 -90.018)"/>
  <path id="Path_320" data-name="Path 320" class="cls-6" d="M92.229,154.14V106.356H88.448V154.14a.536.536,0,0,0,.536.536h3.781A.536.536,0,0,1,92.229,154.14Z" transform="translate(-72.22 -90.019)"/>
  <path id="Path_321" data-name="Path 321" class="cls-7" d="M209.546,53.672H150.41V63.716h59.672V54.209A.536.536,0,0,0,209.546,53.672Z" transform="translate(-122.813 -47.001)"/>
  <path id="Path_322" data-name="Path 322" class="cls-8" d="M100.194,53.672H88.985a.537.537,0,0,0-.537.537v9.508h11.746Z" transform="translate(-72.22 -47.001)"/>
  <path id="Path_323" data-name="Path 323" class="cls-9" d="M92.766,53.672H88.985a.537.537,0,0,0-.536.537v9.508H92.23V54.209A.536.536,0,0,1,92.766,53.672Z" transform="translate(-72.221 -47.001)"/>
  <path id="Path_324" data-name="Path 324" class="cls-5" d="M216.5,464.446H184.391a2.282,2.282,0,0,1-2.282-2.282v-2.23a2.282,2.282,0,0,1,2.282-2.282H216.5a2.282,2.282,0,0,1,2.282,2.282v2.23A2.282,2.282,0,0,1,216.5,464.446Z" transform="translate(-148.696 -376.859)"/>
  <path id="Path_325" data-name="Path 325" class="cls-6" d="M216.429,467.373H184.46a2.35,2.35,0,0,1-2.193-1.507,2.34,2.34,0,0,0-.159.844V468.8a2.351,2.351,0,0,0,2.351,2.351h31.969a2.351,2.351,0,0,0,2.351-2.351V466.71a2.339,2.339,0,0,0-.159-.844A2.35,2.35,0,0,1,216.429,467.373Z" transform="translate(-148.696 -383.567)"/>
  <path id="Path_326" data-name="Path 326" class="cls-5" d="M24.437,281.374H3.538A3.548,3.548,0,0,1,0,277.836V236.98a3.548,3.548,0,0,1,3.538-3.538h20.9a3.548,3.548,0,0,1,3.538,3.538v40.857A3.548,3.548,0,0,1,24.437,281.374Z" transform="translate(0 -193.788)"/>
  <path id="Path_327" data-name="Path 327" class="cls-6" d="M4.4,277.729V237.087a3.655,3.655,0,0,1,3.645-3.645h-4.4A3.656,3.656,0,0,0,0,237.087v40.643a3.655,3.655,0,0,0,3.645,3.645h4.4A3.655,3.655,0,0,1,4.4,277.729Z" transform="translate(0 -193.788)"/>
  <rect id="Rectangle_117" data-name="Rectangle 117" class="cls-10" width="27.975" height="21.927" transform="translate(0 55.306)"/>
  <g id="Group_58" data-name="Group 58" transform="translate(0 49.439)">
    <rect id="Rectangle_118" data-name="Rectangle 118" class="cls-7" width="4.399" height="21.927" transform="translate(0 5.868)"/>
    <rect id="Rectangle_119" data-name="Rectangle 119" class="cls-7" width="22.246" height="6.301" transform="translate(5.73)"/>
  </g>
  <rect id="Rectangle_120" data-name="Rectangle 120" class="cls-8" width="6.363" height="6.301" transform="translate(0 49.439)"/>
  <rect id="Rectangle_121" data-name="Rectangle 121" class="cls-9" width="4.399" height="6.301" transform="translate(0 49.439)"/>
  <g id="Group_59" data-name="Group 59" transform="translate(11.635 25.144)">
    <path id="Path_328" data-name="Path 328" class="cls-1" d="M66.7,461.547H64.83a1.418,1.418,0,0,1,0-2.835H66.7a1.418,1.418,0,0,1,0,2.835Z" transform="translate(-63.412 -402.869)"/>
    <path id="Path_329" data-name="Path 329" class="cls-1" d="M66.7,256.122H64.83a1.418,1.418,0,0,1,0-2.835H66.7a1.418,1.418,0,0,1,0,2.835Z" transform="translate(-63.412 -235.135)"/>
    <path id="Path_330" data-name="Path 330" class="cls-1" d="M184.06,162.171H133.022a2.208,2.208,0,0,1-2.2-2.2v-3.414a2.208,2.208,0,0,1,2.2-2.2H184.06a2.208,2.208,0,0,1,2.2,2.2v3.414A2.208,2.208,0,0,1,184.06,162.171Z" transform="translate(-118.452 -154.354)"/>
  </g>
  <path id="Path_331" data-name="Path 331" class="cls-2" d="M183.995,167.189H133.089a2.275,2.275,0,0,1-2.249-1.99,2.251,2.251,0,0,0-.019.278v3.281a2.275,2.275,0,0,0,2.268,2.268h50.905a2.275,2.275,0,0,0,2.268-2.268v-3.281a2.255,2.255,0,0,0-.019-.278A2.275,2.275,0,0,1,183.995,167.189Z" transform="translate(-106.818 -138.066)"/>
  <path id="Path_332" data-name="Path 332" class="cls-1" d="M154.672,248.685h22.635a2.208,2.208,0,0,0,2.2-2.2V232.438a2.208,2.208,0,0,0-2.2-2.2H154.672a2.208,2.208,0,0,0-2.2,2.2v14.045A2.208,2.208,0,0,0,154.672,248.685Z" transform="translate(-124.495 -191.17)"/>
  <path id="Path_333" data-name="Path 333" class="cls-2" d="M156.342,246.416V232.5a2.275,2.275,0,0,1,2.268-2.268h-3.871a2.275,2.275,0,0,0-2.268,2.268v13.912a2.275,2.275,0,0,0,2.268,2.268h3.871A2.275,2.275,0,0,1,156.342,246.416Z" transform="translate(-124.496 -191.17)"/>
  <g id="Group_60" data-name="Group 60" transform="translate(60.455 39.518)">
    <path id="Path_334" data-name="Path 334" class="cls-1" d="M346.561,235.534H330.917a1.418,1.418,0,0,1,0-2.835h15.645a1.418,1.418,0,0,1,0,2.835Z" transform="translate(-329.499 -232.699)"/>
    <path id="Path_335" data-name="Path 335" class="cls-1" d="M346.561,275.62H330.917a1.418,1.418,0,0,1,0-2.835h15.645a1.418,1.418,0,0,1,0,2.835Z" transform="translate(-329.499 -265.43)"/>
    <path id="Path_336" data-name="Path 336" class="cls-1" d="M346.561,315.707H330.917a1.418,1.418,0,0,1,0-2.835h15.645a1.418,1.418,0,0,1,0,2.835Z" transform="translate(-329.499 -298.162)"/>
  </g>
</svg>
