<svg xmlns="http://www.w3.org/2000/svg" id="tax" width="68.438" height="78.306" viewBox="0 0 68.438 78.306">
    <defs>
        <style>
            .cls-1{fill:#ffe99a}.cls-2{fill:#f59d9a}.cls-3{fill:#eb6e6a}.cls-4{fill:#abde97}.cls-5{fill:#82cd64}.cls-6{fill:#6dc54a}.cls-7{fill:#5db33a}.cls-8{fill:#e5646e}.cls-9{fill:#e04955}.cls-10{fill:#495959}
        </style>
    </defs>
    <path id="Path_722" d="M121.5 78.306H64.52V1.592A1.592 1.592 0 0 1 66.111 0H121.5a1.592 1.592 0 0 1 1.592 1.592v75.122a1.592 1.592 0 0 1-1.592 1.592zm0 0" class="cls-1" data-name="Path 722" transform="translate(-54.652)"/>
    <path id="Path_723" d="M118.951 0v30.858a1.589 1.589 0 0 1-2.486 1.316 14.318 14.318 0 0 0-22.5 11.755v.3a1.586 1.586 0 0 1-1.59 1.613H64.52v32.464h45.2V59.554a1.587 1.587 0 0 1 1.28-1.561 14.246 14.246 0 0 0 5.437-2.3 1.591 1.591 0 0 1 2.512 1.293v21.32h2.551a1.591 1.591 0 0 0 1.592-1.592V1.592A1.591 1.591 0 0 0 121.5 0zm0 0" class="cls-1" data-name="Path 723" transform="translate(-54.652)"/>
    <path id="Path_724" d="M148.457 43.707h-16.234a3.183 3.183 0 0 0-3.184 3.183V60.9a3.183 3.183 0 0 0 3.184 3.183h32.467a3.183 3.183 0 0 0 3.184-3.183V46.89a3.183 3.183 0 0 0-3.184-3.183zm0 0" class="cls-2" data-name="Path 724" transform="translate(-109.304 -37.022)"/>
    <path id="Path_725" d="M345.4 43.707h-3.024a3.183 3.183 0 0 1 3.183 3.183V60.9a3.183 3.183 0 0 1-3.183 3.183h3.024a3.183 3.183 0 0 0 3.184-3.183V46.89a3.184 3.184 0 0 0-3.184-3.183zm0 0" class="cls-3" data-name="Path 725" transform="translate(-290.012 -37.022)"/>
    <path id="Path_726" d="M1.592 320.52A1.592 1.592 0 0 0 0 322.111v26.1a1.591 1.591 0 0 0 1.592 1.589h48.7a1.591 1.591 0 0 0 1.592-1.591V320.52zm0 0" class="cls-4" data-name="Path 726" transform="translate(0 -271.499)"/>
    <path id="Path_727" d="M321.563 320.52v29.28h1.114a1.592 1.592 0 0 0 1.592-1.592V320.52zm0 0" class="cls-5" data-name="Path 727" transform="translate(-272.383 -271.499)"/>
    <path id="Path_728" d="M55.034 373.078h-15.6A1.573 1.573 0 0 1 37.931 372a3.72 3.72 0 0 0-2.461-2.515 1.6 1.6 0 0 1-1.126-1.521v-9.1a1.589 1.589 0 0 1 1.066-1.485 4.164 4.164 0 0 0 2.514-2.516 1.574 1.574 0 0 1 1.491-1.037h31.208a1.6 1.6 0 0 1 1.523 1.064 3.963 3.963 0 0 0 2.514 2.51 1.6 1.6 0 0 1 1.064 1.523v9.041a1.57 1.57 0 0 1-1.09 1.51 3.688 3.688 0 0 0-2.507 2.489 1.557 1.557 0 0 1-1.478 1.117H55.034zm0 0" class="cls-6" data-name="Path 728" transform="translate(-29.091 -299.707)"/>
    <path id="Path_729" d="M90.566 359.241l.045.019a.308.308 0 0 1 .19.282v7.815a.307.307 0 0 1-.19.282 5.939 5.939 0 0 0-3.14 3.141.308.308 0 0 1-.282.19H54.633a4.134 4.134 0 0 1 .468.979 1.611 1.611 0 0 0 1.521 1.13h31.213a1.558 1.558 0 0 0 1.478-1.117 3.689 3.689 0 0 1 2.507-2.489 1.57 1.57 0 0 0 1.09-1.51v-9.041a1.6 1.6 0 0 0-1.064-1.523 3.963 3.963 0 0 1-2.514-2.514 1.6 1.6 0 0 0-1.523-1.064h-.415v.486a5.359 5.359 0 0 0 3.172 4.934zm0 0" class="cls-7" data-name="Path 729" transform="translate(-46.277 -299.707)"/>
    <path id="Path_730" d="M300.134 225.516a11.141 11.141 0 1 1-11.141-11.141 11.141 11.141 0 0 1 11.141 11.141zm0 0" class="cls-8" data-name="Path 730" transform="translate(-235.357 -181.588)"/>
    <path id="Path_731" d="M308.5 229.4a11.138 11.138 0 0 1-15.616 15.617A11.139 11.139 0 1 0 308.5 229.4zm0 0" class="cls-9" data-name="Path 731" transform="translate(-248.089 -194.317)"/>
    <path id="Path_732" d="M161.056 68.164h-6.366a1.194 1.194 0 0 0 0 2.387h1.989v9.311a1.194 1.194 0 0 0 2.387 0v-9.311h1.989a1.194 1.194 0 1 0 0-2.387zm0 0" class="cls-10" data-name="Path 732" transform="translate(-130.02 -57.739)"/>
    <path id="Path_733" d="M233.351 68.164h-3.183a2.788 2.788 0 0 0-2.785 2.785v8.912a1.194 1.194 0 0 0 2.387 0V75.8h3.979v4.058a1.194 1.194 0 0 0 2.387 0v-8.909a2.788 2.788 0 0 0-2.785-2.785zm-3.581 5.252v-2.467a.4.4 0 0 1 .4-.4h3.183a.4.4 0 0 1 .4.4v2.467zm0 0" class="cls-10" data-name="Path 733" transform="translate(-192.607 -57.739)"/>
    <path id="Path_734" d="M307.039 74.608l2.809-4.634a1.194 1.194 0 0 0-2.042-1.237l-2.162 3.563-2.163-3.568a1.194 1.194 0 0 0-2.041 1.237l2.808 4.634-2.808 4.634a1.194 1.194 0 0 0 2.041 1.237l2.163-3.568 2.162 3.568a1.194 1.194 0 0 0 2.042-1.237zm0 0" class="cls-10" data-name="Path 734" transform="translate(-255.191 -57.737)"/>
    <path id="Path_735" d="M132.615 382.454h-.825a5.969 5.969 0 0 0-11.7 0h-.845a1.194 1.194 0 0 0 0 2.387h.845a5.969 5.969 0 0 0 11.7 0h.825a1.194 1.194 0 1 0 0-2.387zm-6.673 4.775a3.581 3.581 0 1 1 3.581-3.581 3.585 3.585 0 0 1-3.581 3.581zm0 0" class="cls-7" data-name="Path 735" transform="translate(-99.999 -319.917)"/>
    <path id="Path_736" d="M237.354 408.9h-4.007a1.194 1.194 0 1 0 0 2.387h4.007a1.194 1.194 0 1 0 0-2.387zm0 0" class="cls-7" data-name="Path 736" transform="translate(-196.647 -346.361)"/>
    <path id="Path_737" d="M70.486 408.9h-4.007a1.194 1.194 0 1 0 0 2.387h4.008a1.194 1.194 0 1 0 0-2.387zm0 0" class="cls-7" data-name="Path 737" transform="translate(-55.3 -346.361)"/>
    <g id="Group_242" data-name="Group 242" transform="translate(47.827 37.046)">
        <path id="Path_738" d="M317.74 245.9v-1.154a2.512 2.512 0 0 0-5.025 0v1.154a2.512 2.512 0 0 0 5.025 0zm0 0" class="cls-10" data-name="Path 738" transform="translate(-312.715 -242.23)"/>
        <path id="Path_739" d="M358.341 291.809a2.516 2.516 0 0 0-2.513 2.512v1.154a2.512 2.512 0 0 0 5.025 0v-1.154a2.515 2.515 0 0 0-2.512-2.512zm0 0" class="cls-10" data-name="Path 739" transform="translate(-349.234 -284.226)"/>
        <path id="Path_740" d="M331.173 242.363a1.194 1.194 0 0 0-1.611.507l-5.934 11.374a1.194 1.194 0 1 0 2.117 1.1l5.934-11.374a1.194 1.194 0 0 0-.506-1.607zm0 0" class="cls-10" data-name="Path 740" transform="translate(-321.845 -242.227)"/>
    </g>
</svg>
