<svg xmlns="http://www.w3.org/2000/svg" xmlns:xlink="http://www.w3.org/1999/xlink" width="97" height="97" viewBox="0 0 97 97">
  <defs>
    <style>
      .cls-1 {
        fill: #f98091;
      }

      .cls-2 {
        fill: #f0f7ff;
      }

      .cls-3 {
        fill: #47568c;
      }

      .cls-4 {
        fill: #61729b;
      }

      .cls-5 {
        fill: #eb6e6a;
      }

      .cls-6 {
        filter: url(#Ellipse_35);
      }
    </style>
    <filter id="Ellipse_35" x="0" y="0" width="97" height="97" filterUnits="userSpaceOnUse">
      <feOffset dy="3" input="SourceAlpha"/>
      <feGaussianBlur stdDeviation="3" result="blur"/>
      <feFlood flood-opacity="0.141"/>
      <feComposite operator="in" in2="blur"/>
      <feComposite in="SourceGraphic"/>
    </filter>
  </defs>
  <g id="wall-clock" transform="translate(9.348 5.825)">
    <g class="cls-6" transform="matrix(1, 0, 0, 1, -9.35, -5.82)">
      <circle id="Ellipse_35-2" data-name="Ellipse 35" class="cls-1" cx="39.5" cy="39.5" r="39.5" transform="translate(9 6)"/>
    </g>
    <path id="Path_644" data-name="Path 644" class="cls-2" d="M121.13,89.153a29.641,29.641,0,0,0-7.079-17.072l-4.1-.481.862-2.76A29.641,29.641,0,0,0,93.738,61.76l-2.292,4.469L89.153,61.76a29.641,29.641,0,0,0-17.072,7.079l.862,5.053-4.1-1.811A29.641,29.641,0,0,0,61.76,89.153l4.469,2.292L61.76,93.738a29.641,29.641,0,0,0,7.079,17.072l5.053-.862-1.811,4.1a29.64,29.64,0,0,0,17.072,7.079l2.292-4.469,2.292,4.469a29.641,29.641,0,0,0,17.072-7.079L109.948,109l4.1,1.811a29.64,29.64,0,0,0,7.079-17.072l-4.469-2.292Z" transform="translate(-52.321 -52.321)"/>
    <path id="Path_646" data-name="Path 646" class="cls-3" d="M340.858,344.1l6.4,6.4a29.965,29.965,0,0,0,3.242-3.242l-6.4-6.4Z" transform="translate(-288.765 -288.765)"/>
    <path id="Path_647" data-name="Path 647" class="cls-4" d="M117.718,114.476l-6.4-6.4a29.968,29.968,0,0,0-3.242,3.242l6.4,6.4Z" transform="translate(-91.562 -91.562)"/>
    <path id="Path_648" data-name="Path 648" class="cls-4" d="M114.476,340.858l-6.4,6.4a29.968,29.968,0,0,0,3.242,3.242l6.4-6.4Z" transform="translate(-91.562 -288.765)"/>
    <path id="Path_649" data-name="Path 649" class="cls-3" d="M344.1,117.718l6.4-6.4a29.965,29.965,0,0,0-3.242-3.242l-6.4,6.4Z" transform="translate(-288.765 -91.562)"/>
    <path id="Path_650" data-name="Path 650" class="cls-4" d="M70.17,241H61.116c-.058.759-.116,1.519-.116,2.292s.058,1.533.116,2.292H70.17Z" transform="translate(-51.678 -204.169)"/>
    <path id="Path_651" data-name="Path 651" class="cls-3" d="M391,245.585h9.054c.058-.759.116-1.519.116-2.292s-.058-1.533-.116-2.292H391Z" transform="translate(-331.244 -204.169)"/>
    <path id="Path_652" data-name="Path 652" class="cls-5" d="M256,241l2.292,4.585h9.17V241Z" transform="translate(-216.876 -204.169)"/>
    <path id="Path_653" data-name="Path 653" class="cls-4" d="M196.185,151h-2.292v16.441l-8.5,8.5,3.242,3.242,7.549-7.549,2.292-2.292V151Z" transform="translate(-157.062 -127.923)"/>
    <path id="Path_654" data-name="Path 654" class="cls-3" d="M258.292,151H256v20.632l2.292-2.292Z" transform="translate(-216.876 -127.923)"/>
    <path id="Path_655" data-name="Path 655" class="cls-4" d="M243.292,61c-.774,0-1.533.058-2.292.116V70.17h4.585V61.116C244.826,61.058,244.066,61,243.292,61Z" transform="translate(-204.169 -51.678)"/>
    <path id="Path_656" data-name="Path 656" class="cls-3" d="M258.292,61.116C257.533,61.058,256.774,61,256,61v9.17h2.292Z" transform="translate(-216.876 -51.678)"/>
    <path id="Path_657" data-name="Path 657" class="cls-4" d="M243.292,391H241v9.054c.759.058,1.519.116,2.292.116s1.533-.058,2.292-.116V391Z" transform="translate(-204.169 -331.244)"/>
    <path id="Path_658" data-name="Path 658" class="cls-3" d="M258.292,391H256v9.17c.774,0,1.533-.058,2.292-.116Z" transform="translate(-216.876 -331.244)"/>
  </g>
</svg>
