<svg xmlns="http://www.w3.org/2000/svg" width="97" height="97" viewBox="0 0 97 97">
    <defs>
        <style>
            .cls-1{fill:#f98091}.cls-2{fill:#f0f7ff}.cls-3{fill:#47568c}.cls-4{fill:#61729b}.cls-5{fill:#eb6e6a}.cls-6{filter:url(#Ellipse_35)}
        </style>
        <filter id="Ellipse_35" width="97" height="97" x="0" y="0" filterUnits="userSpaceOnUse">
            <feOffset dy="3"/>
            <feGaussianBlur result="blur" stdDeviation="3"/>
            <feFlood flood-opacity=".141"/>
            <feComposite in2="blur" operator="in"/>
            <feComposite in="SourceGraphic"/>
        </filter>
    </defs>
    <g id="wall-clock" transform="translate(9.348 5.825)">
        <g class="cls-6" transform="translate(-9.35 -5.82)">
            <circle id="Ellipse_35-2" cx="39.5" cy="39.5" r="39.5" class="cls-1" data-name="Ellipse 35" transform="translate(9 6)"/>
        </g>
        <path id="Path_644" d="M121.13 89.153a29.641 29.641 0 0 0-7.079-17.072l-4.1-.481.862-2.76a29.641 29.641 0 0 0-17.075-7.08l-2.292 4.469-2.293-4.469a29.641 29.641 0 0 0-17.072 7.079l.862 5.053-4.1-1.811a29.641 29.641 0 0 0-7.083 17.072l4.469 2.292-4.469 2.293a29.641 29.641 0 0 0 7.079 17.072l5.053-.862-1.811 4.1a29.64 29.64 0 0 0 17.072 7.079l2.292-4.469 2.292 4.469a29.641 29.641 0 0 0 17.072-7.079l-.861-5.048 4.1 1.811a29.64 29.64 0 0 0 7.079-17.072l-4.469-2.292z" class="cls-2" data-name="Path 644" transform="translate(-52.321 -52.321)"/>
        <path id="Path_646" d="M340.858 344.1l6.4 6.4a29.965 29.965 0 0 0 3.242-3.242l-6.4-6.4z" class="cls-3" data-name="Path 646" transform="translate(-288.765 -288.765)"/>
        <path id="Path_647" d="M117.718 114.476l-6.4-6.4a29.968 29.968 0 0 0-3.242 3.242l6.4 6.4z" class="cls-4" data-name="Path 647" transform="translate(-91.562 -91.562)"/>
        <path id="Path_648" d="M114.476 340.858l-6.4 6.4a29.968 29.968 0 0 0 3.242 3.242l6.4-6.4z" class="cls-4" data-name="Path 648" transform="translate(-91.562 -288.765)"/>
        <path id="Path_649" d="M344.1 117.718l6.4-6.4a29.965 29.965 0 0 0-3.242-3.242l-6.4 6.4z" class="cls-3" data-name="Path 649" transform="translate(-288.765 -91.562)"/>
        <path id="Path_650" d="M70.17 241h-9.054c-.058.759-.116 1.519-.116 2.292s.058 1.533.116 2.292h9.054z" class="cls-4" data-name="Path 650" transform="translate(-51.678 -204.169)"/>
        <path id="Path_651" d="M391 245.585h9.054c.058-.759.116-1.519.116-2.292s-.058-1.533-.116-2.292H391z" class="cls-3" data-name="Path 651" transform="translate(-331.244 -204.169)"/>
        <path id="Path_652" d="M256 241l2.292 4.585h9.17V241z" class="cls-5" data-name="Path 652" transform="translate(-216.876 -204.169)"/>
        <path id="Path_653" d="M196.185 151h-2.292v16.441l-8.5 8.5 3.242 3.242 7.549-7.549 2.292-2.292V151z" class="cls-4" data-name="Path 653" transform="translate(-157.062 -127.923)"/>
        <path id="Path_654" d="M258.292 151H256v20.632l2.292-2.292z" class="cls-3" data-name="Path 654" transform="translate(-216.876 -127.923)"/>
        <path id="Path_655" d="M243.292 61c-.774 0-1.533.058-2.292.116v9.054h4.585v-9.054c-.759-.058-1.519-.116-2.293-.116z" class="cls-4" data-name="Path 655" transform="translate(-204.169 -51.678)"/>
        <path id="Path_656" d="M258.292 61.116c-.759-.058-1.518-.116-2.292-.116v9.17h2.292z" class="cls-3" data-name="Path 656" transform="translate(-216.876 -51.678)"/>
        <path id="Path_657" d="M243.292 391H241v9.054c.759.058 1.519.116 2.292.116s1.533-.058 2.292-.116V391z" class="cls-4" data-name="Path 657" transform="translate(-204.169 -331.244)"/>
        <path id="Path_658" d="M258.292 391H256v9.17c.774 0 1.533-.058 2.292-.116z" class="cls-3" data-name="Path 658" transform="translate(-216.876 -331.244)"/>
    </g>
</svg>
