<svg xmlns="http://www.w3.org/2000/svg" width="368" height="398" viewBox="0 0 368 398">
    <defs>
        <style>
            .cls-1{fill:#fff}.cls-2{clip-path:url(#clip-path)}.cls-3{fill:#ffd000}.cls-4{fill:#ffe99a}
        </style>
        <clipPath id="clip-path">
            <path id="Rectangle_290" d="M0 0h368v398H0z" class="cls-1" data-name="Rectangle 290" transform="translate(0 853)"/>
        </clipPath>
    </defs>
    <g id="Mask_Group_4" class="cls-2" data-name="Mask Group 4" transform="translate(0 -853)">
        <g id="Group_818" data-name="Group 818">
            <path id="Path_706" d="M588.491 370.274c-4.681 74.559-86.106 117.62-152.29 82.973a222.135 222.135 0 0 1-40.574-27.747c-88.729-75.315-217.6-32.86-285.6-62.7-73.8-32.382-84.505-167.531 53.665-174.392 125.292-6.222 134.447-102.727 236.639-98.9 74.37 2.788 73.558 59.38 92.506 124.53 17.229 59.25 100.447 79.931 95.654 156.236z" class="cls-3" data-name="Path 706" transform="rotate(-165.02 262.328 690.492)"/>
            <path id="Path_705" d="M493.092 397.147c-28.634 63.4-113.74 74.093-159.977 22.114a206.791 206.791 0 0 1-26.2-37.528c-52.485-94.827-178.72-100.292-228.123-148.675C25.174 180.544 60.362 59.3 182.971 98.829c111.185 35.846 150.942-45.2 238.695-8.2 63.862 26.923 44.518 75.946 39.562 138.937-4.503 57.275 61.172 102.696 31.864 167.581z" class="cls-4" data-name="Path 705" transform="rotate(150 93.386 622.723)"/>
        </g>
    </g>
</svg>
