<svg xmlns="http://www.w3.org/2000/svg" width="611.333" height="573.639" viewBox="0 0 611.333 573.639">
  <defs>
    <style>
      .cls-1 {
        fill: #ffd000;
      }

      .cls-2 {
        fill: #ffe99a;
      }
    </style>
  </defs>
  <g id="Group_253" data-name="Group 253" transform="translate(208.592 -750.82)">
    <path id="Path_706" data-name="Path 706" class="cls-1" d="M588.491,370.274c-4.681,74.559-86.106,117.62-152.29,82.973A222.135,222.135,0,0,1,395.627,425.5c-88.729-75.315-217.6-32.86-285.6-62.7-73.8-32.382-84.505-167.531,53.665-174.392,125.292-6.222,134.447-102.727,236.639-98.9,74.37,2.788,73.558,59.38,92.506,124.53C510.066,273.288,593.284,293.969,588.491,370.274Z" transform="matrix(-0.966, -0.259, 0.259, -0.966, 336.9, 1425.45)"/>
    <path id="Path_705" data-name="Path 705" class="cls-2" d="M493.092,397.147c-28.634,63.4-113.74,74.093-159.977,22.114a206.791,206.791,0,0,1-26.2-37.528C254.43,286.906,128.195,281.441,78.792,233.058,25.174,180.544,60.362,59.3,182.971,98.829c111.185,35.846,150.942-45.2,238.695-8.2,63.862,26.923,44.518,75.946,39.562,138.937C456.725,286.841,522.4,332.262,493.092,397.147Z" transform="translate(485.622 1115.323) rotate(150)"/>
  </g>
</svg>
