<svg xmlns="http://www.w3.org/2000/svg" viewBox="0 0 862.641 250"><title>announcement-reports2</title><path d="M196.75 183.234c-7.2-41.286-7.35-98.113-.443-139.45 1.524-9.117 3.456-18.364 8.09-26.363s12.437-14.663 21.62-15.737a14.33 14.33 0 0 1 7.97 1.074c6.8 3.338 7.822 12.43 7.94 20 .8 51.935 1.606 108.542 2.41 160.477" fill="#ebedf5"/><path d="M195.567 183.44q-2.074-11.96-3.352-24.024c-.8-8.042-1.49-16.1-1.853-24.17a453.54 453.54 0 0 1 .186-48.455l.394-6.046c.136-2.015.257-4.03.463-6.042l.627-6.028c.252-2.005.462-4.014.672-6.023.887-8.03 2-16.035 3.5-23.994 1.508-7.936 3.81-15.96 8.272-22.91a36.976 36.976 0 0 1 8.27-9.083 27.118 27.118 0 0 1 11.1-5.245 21.117 21.117 0 0 1 6.2-.4 13.238 13.238 0 0 1 3.09.684 11.57 11.57 0 0 1 2.816 1.5 13.135 13.135 0 0 1 4.014 4.856 22.753 22.753 0 0 1 1.913 5.91 70.11 70.11 0 0 1 .876 12.164L243 38.214l1.02 48.33c.167 8.056.37 16.11.426 24.168l.18 24.17q.03 6.044.18 12.085l.244 12.083.487 24.166-2.4.037-.9-48.333c-.05-4.028-.146-8.056-.16-12.084l-.054-12.086c-.022-8.057-.18-16.113-.305-24.17l-.77-48.334-.194-12.084a68.34 68.34 0 0 0-.792-11.83c-.69-3.778-2.2-7.49-5.123-9.59-2.867-2.16-6.908-2.3-10.6-1.46a25.13 25.13 0 0 0-10.21 5.025 34.607 34.607 0 0 0-7.632 8.655c-4.124 6.623-6.137 14.38-7.79 22.156-1.55 7.846-2.768 15.8-3.763 23.764-.235 1.995-.5 3.987-.653 5.99l-.42 6.014c-.363 4-.62 8.013-.9 12.023-.207 4.014-.466 8.027-.56 12.048-.144 4.02-.26 8.04-.24 12.062 0 2.01.046 4.022.1 6.032l.162 6.03.275 6.025c.08 2.008.154 4.017.27 6.023.343 8.032 1.013 16.044 1.785 24.04q1.255 11.985 3.27 23.858z" fill="#ebedf5"/><path d="M189.516 113.48l6.562 71.453c5.227-2.763 6.99-9.5 6.644-15.4s-2.24-11.686-2.03-17.595c.3-8.37 4.758-16.06 5.9-24.358 1.307-9.517-1.823-19.023-4.91-28.12-3.678-10.847-5.844-18.906-9.523-29.752z" fill="#e1e5f1"/><path d="M226.954 8.333a357.934 357.934 0 0 0-8.732 44.115l-.708 5.585c-.27 1.858-.59 3.71-.77 5.58l-1.06 11.217c-.252 3.748-.607 7.49-.91 11.235l-.7 11.254c-.578 15.025-.63 30.065-.608 45.105.006 3.76.036 7.522-.033 11.282l-.2 11.283-.2 22.575a.8.8 0 1 1-1.6-.014v-.02l.134-11.276.07-11.278c0-3.76.1-7.52.18-11.28s.09-7.522.114-11.283c.087-15.046.28-30.1.876-45.15l.45-11.29c.23-3.76.428-7.523.796-11.273.384-3.75.832-7.492 1.26-11.234.272-1.865.438-3.742.627-5.616l.74-5.6c1.2-7.442 2.3-14.89 3.567-22.324l2.36-11.062 2.8-10.963a.8.8 0 0 1 1.55.4v.012z" fill="#fff"/><path d="M212.492 167.19a46.477 46.477 0 0 1 5.84-3.118l.756-.333a6.52 6.52 0 0 0 .772-.3l1.508-.672c1.006-.446 2.052-.8 3.065-1.223l6.02-2.694a31.193 31.193 0 0 1 3.083-1.174c1.03-.384 2.035-.83 3.063-1.23l.275.75-3.05 1.224c-1.015.412-2.084.69-3.083 1.144-2.028.832-4.056 1.667-6.055 2.564-.993.465-1.956.992-2.98 1.383l-1.542.58a4.438 4.438 0 0 0-.736.363l-.76.316q-.762.31-1.5.67c-.482.26-.938.57-1.42.828-.966.51-1.908 1.06-2.848 1.612zM213.536 153.614a70.64 70.64 0 0 1 6.92-3.79l.887-.426c.3-.126.618-.232.907-.387l1.768-.863c1.182-.57 2.4-1.062 3.59-1.618l7.03-3.54c1.157-.62 2.38-1.1 3.582-1.625s2.363-1.137 3.552-1.7l.33.73-3.547 1.69c-1.18.566-2.426 1-3.592 1.6-2.367 1.123-4.732 2.25-7.08 3.415-1.166.6-2.3 1.26-3.5 1.778l-1.808.773a6.017 6.017 0 0 0-.872.453l-.893.41c-.595.276-1.194.543-1.773.847-.57.322-1.116.69-1.692 1q-1.72.944-3.4 1.944zM213.536 138.992c1.72-1.05 3.41-2.156 5.2-3.08l.666-.36a5.455 5.455 0 0 0 .685-.327l1.315-.745c.87-.507 1.806-.9 2.676-1.412l5.135-3.2a27.958 27.958 0 0 1 2.634-1.485c.873-.5 1.718-1.056 2.578-1.58l.4.692-2.58 1.574c-.862.522-1.8.914-2.646 1.462l-5.2 3.078c-.853.54-1.684 1.113-2.578 1.58l-1.37.65a3.262 3.262 0 0 0-.647.392l-.674.344c-.45.23-.9.46-1.337.705-.43.264-.82.596-1.257.845-.864.518-1.715 1.057-2.593 1.553zM212.492 125.415c1.72-1.05 3.41-2.156 5.2-3.08l.666-.36a5.452 5.452 0 0 0 .685-.327l1.315-.745c.87-.507 1.806-.9 2.676-1.412l5.135-3.2a27.99 27.99 0 0 1 2.633-1.484c.873-.5 1.718-1.056 2.578-1.58l.4.692-2.58 1.582c-.86.523-1.8.915-2.645 1.463l-5.2 3.078c-.852.54-1.683 1.114-2.577 1.582l-1.37.65a3.256 3.256 0 0 0-.647.39l-.673.345c-.45.23-.9.46-1.338.705-.43.263-.82.595-1.258.844-.864.518-1.715 1.057-2.593 1.553zM213.536 107.66c1.72-1.05 3.41-2.154 5.2-3.08l.666-.36a5.455 5.455 0 0 0 .685-.326l1.315-.745c.87-.508 1.806-.9 2.676-1.413l5.135-3.2a27.958 27.958 0 0 1 2.634-1.485c.873-.5 1.718-1.056 2.578-1.58l.4.692-2.58 1.574c-.862.523-1.8.915-2.646 1.463l-5.2 3.08c-.853.538-1.684 1.112-2.578 1.58l-1.37.65a3.267 3.267 0 0 0-.647.39l-.674.345c-.45.23-.9.46-1.337.705-.43.263-.82.595-1.257.844-.864.518-1.715 1.057-2.593 1.552zM213.536 86.773c1.72-1.05 3.41-2.156 5.2-3.08l.666-.36a5.455 5.455 0 0 0 .685-.327l1.315-.745c.87-.506 1.806-.9 2.676-1.41l5.135-3.2a27.958 27.958 0 0 1 2.634-1.486c.873-.5 1.718-1.056 2.578-1.58l.4.692-2.58 1.574c-.862.523-1.8.915-2.646 1.463l-5.2 3.078c-.853.54-1.684 1.114-2.578 1.582l-1.37.65a3.262 3.262 0 0 0-.647.39l-.674.345c-.45.23-.9.46-1.337.705-.43.263-.82.595-1.257.844-.864.518-1.715 1.057-2.593 1.553zM215.625 66.93c1.72-1.05 3.41-2.157 5.2-3.082l.666-.36a5.452 5.452 0 0 0 .686-.326l1.315-.745c.872-.507 1.807-.9 2.677-1.412l5.135-3.2a27.985 27.985 0 0 1 2.634-1.485c.873-.5 1.718-1.056 2.578-1.58l.4.692-2.58 1.574c-.862.523-1.8.915-2.646 1.463l-5.2 3.077c-.852.54-1.683 1.113-2.577 1.58l-1.37.65a3.276 3.276 0 0 0-.646.392l-.674.343c-.45.23-.9.46-1.338.705-.43.263-.82.595-1.257.844-.864.518-1.716 1.057-2.593 1.553zM218.758 45c1.72-1.05 3.41-2.156 5.2-3.08l.666-.36a5.44 5.44 0 0 0 .685-.327l1.314-.745c.87-.507 1.806-.9 2.676-1.412l5.135-3.2a27.99 27.99 0 0 1 2.634-1.485c.872-.5 1.717-1.055 2.577-1.58l.4.693-2.58 1.574c-.862.523-1.8.915-2.646 1.463l-5.2 3.078c-.85.54-1.682 1.113-2.576 1.58l-1.37.65a3.256 3.256 0 0 0-.647.392l-.674.344c-.45.23-.9.46-1.338.705-.43.262-.82.594-1.257.843-.864.518-1.715 1.057-2.593 1.553zM221.89 26.2a19.422 19.422 0 0 1 2.48-1.5l.326-.162a1.12 1.12 0 0 0 .345-.128l.636-.35c.417-.244.9-.378 1.315-.622.814-.523 1.615-1.067 2.414-1.615a6.45 6.45 0 0 1 1.272-.694q.625-.367 1.217-.79l.4.69c-.407.26-.807.533-1.22.784s-.892.388-1.284.673l-2.482 1.5a7.44 7.44 0 0 1-1.215.792c-.223.1-.47.152-.692.25a.823.823 0 0 0-.3.2l-.333.148a4.986 4.986 0 0 0-.658.31c-.2.132-.363.337-.577.45-.41.254-.808.53-1.232.76zM211.337 166.755c-1.8-1.226-3.71-2.292-5.535-3.5l-.695-.437a6.443 6.443 0 0 0-.676-.47l-1.42-.827c-.947-.547-1.86-1.16-2.82-1.7-1.943-1.015-3.924-1.96-5.91-2.89-1.01-.434-1.956-.992-2.927-1.5s-1.99-.923-2.988-1.372l.34-.725c1.005.453 2.008.9 3 1.38s1.92 1.077 2.92 1.532q2.952 1.473 5.868 3.018a30.238 30.238 0 0 1 2.918 1.544l1.38.917a4.5 4.5 0 0 0 .717.408l.69.454c.464.3.914.618 1.382.907.478.272.99.493 1.45.8.94.577 1.856 1.192 2.772 1.812zM211.46 153.138c-2.148-1.477-4.412-2.794-6.572-4.274l-.82-.542a8.518 8.518 0 0 0-.8-.568l-1.664-1.043c-1.115-.686-2.184-1.45-3.3-2.13-2.268-1.314-4.564-2.58-6.866-3.832-1.17-.6-2.266-1.316-3.388-1.993s-2.3-1.26-3.45-1.884l.392-.7 3.453 1.89c1.148.636 2.218 1.4 3.377 2.02l6.807 3.952c1.143.642 2.314 1.243 3.4 1.98l1.616 1.13a6.722 6.722 0 0 0 .844.508l.813.558 1.632 1.1c.56.34 1.157.628 1.706.99q1.66 1.063 3.29 2.185zM212.714 138.57c-1.67-1.127-3.378-2.2-4.964-3.448l-.6-.456a5.478 5.478 0 0 0-.58-.486l-1.225-.886c-.823-.58-1.573-1.266-2.4-1.846l-5.04-3.34a27.943 27.943 0 0 1-2.446-1.777c-.822-.583-1.675-1.122-2.51-1.685l.458-.656 2.505 1.692c.834.566 1.58 1.256 2.432 1.8l4.964 3.453c.844.55 1.712 1.07 2.51 1.687l1.16.977a3.265 3.265 0 0 0 .625.424l.593.47c.4.314.792.626 1.2.924.418.282.882.5 1.29.793.832.572 1.677 1.122 2.492 1.715z" fill="#fff"/><path d="M214.918 125.133c-1.67-1.128-3.377-2.2-4.964-3.45l-.6-.455a5.44 5.44 0 0 0-.58-.486l-1.225-.886c-.824-.58-1.574-1.266-2.4-1.846l-5.042-3.34a27.98 27.98 0 0 1-2.445-1.778c-.82-.584-1.674-1.123-2.51-1.686l.46-.656 2.504 1.693c.834.566 1.58 1.256 2.432 1.8l4.963 3.453c.844.55 1.713 1.07 2.51 1.687l1.16.977a3.278 3.278 0 0 0 .626.425l.592.47c.4.314.792.626 1.2.924.418.28.882.5 1.29.792.832.57 1.677 1.12 2.492 1.713zM211.767 107.634a39.087 39.087 0 0 1-4.314-3.26l-.505-.45a4.368 4.368 0 0 0-.478-.48l-1.018-.885c-.684-.585-1.276-1.274-1.946-1.87l-4.078-3.532a19.64 19.64 0 0 1-1.9-1.91l-1.95-1.872.58-.553 1.927 1.86c.647.617 1.2 1.336 1.876 1.92 1.3 1.228 2.62 2.44 3.968 3.615.692.568 1.414 1.1 2.064 1.713l.94.965a2.574 2.574 0 0 0 .523.42l.49.46c.33.3.662.6 1 .89s.768.47 1.117.748l2.167 1.572zM213.333 85.18a37.7 37.7 0 0 1-4.554-3.546l-.527-.494a4.944 4.944 0 0 0-.5-.522l-1.058-.975c-.714-.642-1.32-1.4-2.016-2.053-1.41-1.3-2.813-2.6-4.194-3.935a21.6 21.6 0 0 1-1.945-2.118l-1.985-2.086.6-.526L199.12 71c.662.686 1.22 1.47 1.918 2.123 1.334 1.363 2.686 2.71 4.077 4.012.72.627 1.46 1.228 2.137 1.9l.976 1.05a2.924 2.924 0 0 0 .545.462l.51.5c.346.327.695.653 1.054.967s.8.523 1.17.822c.746.592 1.54 1.116 2.29 1.694zM214.9 66.38c-1.552-1.06-3.13-2.09-4.573-3.3l-.548-.443a4.773 4.773 0 0 0-.526-.474l-1.11-.866c-.75-.568-1.415-1.243-2.158-1.816l-4.546-3.33a23.238 23.238 0 0 1-2.178-1.787c-.73-.59-1.495-1.137-2.24-1.713l.5-.62 2.23 1.714c.743.57 1.395 1.26 2.16 1.8 1.48 1.152 2.958 2.306 4.456 3.434.765.543 1.554 1.054 2.272 1.657l1.042.953a2.833 2.833 0 0 0 .57.413l.535.458c.36.3.72.6 1.09.892s.813.475 1.187.757c.76.547 1.544 1.06 2.3 1.62zM218.7 45.52a29.062 29.062 0 0 1-4-3.122c-.154-.145-.315-.282-.46-.435a3.856 3.856 0 0 0-.428-.472c-.306-.29-.62-.57-.92-.867-.61-.58-1.13-1.254-1.72-1.853-1.212-1.165-2.41-2.35-3.575-3.568A16.07 16.07 0 0 1 206 33.25l-1.63-1.943.643-.477c.513.645 1.063 1.28 1.6 1.916.275.313.52.652.766.99s.53.644.8.96c1.112 1.244 2.254 2.462 3.447 3.63.61.568 1.266 1.088 1.838 1.7l.833.94a2.24 2.24 0 0 0 .472.41l.444.442c.3.293.6.584.91.863.327.26.713.446 1.033.71.65.524 1.356.967 2.01 1.482zM221.37 25.476a7.39 7.39 0 0 1-2.122-1.956l-.208-.29a1.21 1.21 0 0 0-.175-.314l-.418-.567c-.283-.374-.458-.824-.735-1.2a23.158 23.158 0 0 0-1.852-2.056 8.834 8.834 0 0 1-.917-1 6.468 6.468 0 0 0-1.085-.8l.46-.654a10.69 10.69 0 0 1 1.163.87c.366.318.6.754.954 1.075.64.7 1.21 1.454 1.783 2.19a7.252 7.252 0 0 1 .888 1.07c.115.2.2.425.318.624.04.115.146.176.23.255l.186.29a3.818 3.818 0 0 0 .404.556c.164.16.4.25.544.42.334.3.7.557 1.046.832z" fill="#fff"/><path d="M159.465 183.234a347.33 347.33 0 0 1-5.187-56.314c-.13-12.53.653-25.817 7.687-36.188 3.41-5.026 9.67-9.39 15.246-6.984 4.55 1.965 6.3 7.392 7.452 12.214 5.97 25.117 9.328 61.463 10 87.272" fill="#ebedf5"/><path d="M158.283 183.44A302.6 302.6 0 0 1 153 129.78c-.01-2.25-.035-4.5.03-6.758.1-2.258.294-4.512.42-6.773a69.7 69.7 0 0 1 2.1-13.46 41.95 41.95 0 0 1 2.293-6.47 41.035 41.035 0 0 1 3.41-5.968 22.424 22.424 0 0 1 4.825-4.987 15.91 15.91 0 0 1 3-1.792 11.54 11.54 0 0 1 3.388-1.006 9.34 9.34 0 0 1 6.833 1.65 13.337 13.337 0 0 1 4.183 5.61 38.02 38.02 0 0 1 2.057 6.526c.51 2.19 1.047 4.376 1.494 6.58 1.874 8.8 3.36 17.663 4.586 26.564.615 4.45 1.21 8.9 1.59 13.38.418 4.473.683 8.958 1.01 13.435.676 8.952 1.32 17.91 1.634 26.9l-2.4.06c-.306-8.933-.9-17.86-1.606-26.773l-1.048-13.38c-.346-4.46-.892-8.9-1.462-13.334-1.14-8.868-2.52-17.706-4.315-26.445-.427-2.19-.94-4.358-1.43-6.53a36.107 36.107 0 0 0-1.9-6.214 11.446 11.446 0 0 0-3.52-4.85 7.052 7.052 0 0 0-5.427-1.295 12.07 12.07 0 0 0-5.405 2.573 20.04 20.04 0 0 0-4.2 4.6 38.716 38.716 0 0 0-3.03 5.683 58.455 58.455 0 0 0-2.157 6.12 67.8 67.8 0 0 0-2.353 12.96c-.113 1.1-.19 2.21-.22 3.32l.026 3.338c-.054 2.224-.074 4.458-.08 6.693 0 4.47.088 8.94.315 13.407.286 4.464.907 8.9 1.31 13.347q1.336 13.337 3.7 26.54z" fill="#ebedf5"/><path d="M174.047 100.093c-.485 7.16-.674 14.33-1.11 21.493l-.122 2.688c-.078.9-.188 1.79-.2 2.687l-.115 5.383c0 1.794-.084 3.588-.144 5.383s-.047 3.59-.073 5.386c.172 7.18.584 14.35 1.16 21.5.364 3.572.484 7.158.7 10.742.3 3.576.75 7.138 1.174 10.7a.8.8 0 1 1-1.59.188v-.014c-.42-3.575-.833-7.153-1.16-10.74s-.33-7.2-.654-10.78c-.47-7.186-.744-14.382-.9-21.582-.12-3.6-.283-7.2-.167-10.8l.337-5.4c.033-.45.075-.9.074-1.348l-.026-1.35.155-2.7c.126-1.8.247-3.593.334-5.39.07-1.8-.028-3.6.078-5.4l.294-5.392.357-5.388a.8.8 0 0 1 1.6.106z" fill="#fff"/><path d="M173.823 168.314a19.2 19.2 0 0 1 3.267-1.765l.428-.178a1.794 1.794 0 0 0 .444-.142l.847-.368c.56-.255 1.174-.386 1.737-.63l3.337-1.58a9.69 9.69 0 0 1 1.73-.635c.574-.223 1.14-.463 1.7-.72l.277.752-1.69.705c-.563.237-1.182.337-1.73.61-1.13.47-2.26.938-3.373 1.444a13.5 13.5 0 0 1-1.646.805c-.29.1-.6.16-.887.26a1.312 1.312 0 0 0-.406.212l-.43.16a6.55 6.55 0 0 0-.85.345c-.27.147-.5.368-.77.5-.537.29-1.045.62-1.578.91zM173.165 168.366c-1.012-.666-2.1-1.22-3.09-1.933l-.38-.253a1.76 1.76 0 0 0-.364-.287l-.787-.468c-.53-.3-1.006-.707-1.545-1-1.095-.548-2.213-1.053-3.335-1.544a11.17 11.17 0 0 1-1.623-.857c-.55-.27-1.11-.516-1.68-.736l.34-.725c.566.246 1.133.484 1.69.75s1.05.647 1.62.883c1.1.545 2.2 1.106 3.288 1.676a10.793 10.793 0 0 1 1.652.832c.254.178.484.4.738.572a1.338 1.338 0 0 0 .406.22l.377.27c.253.18.492.38.76.535a8.51 8.51 0 0 1 .835.408c.53.318 1.062.64 1.564 1.005zM171.35 154.71a20.182 20.182 0 0 1 3.343-1.938l.44-.2a2.244 2.244 0 0 0 .457-.164l.87-.41c.576-.28 1.21-.44 1.79-.71l3.43-1.728a10.43 10.43 0 0 1 1.785-.71c.593-.24 1.164-.53 1.755-.788l.293.744-1.743.776c-.58.26-1.22.386-1.785.683-1.163.518-2.328 1.034-3.47 1.6a17.417 17.417 0 0 1-1.692.882l-.912.306a1.308 1.308 0 0 0-.417.228l-.443.18c-.3.118-.587.25-.873.39-.275.16-.51.388-.787.543l-1.613 1zM170.673 154.683c-1.034-.735-2.146-1.356-3.162-2.132l-.39-.276a2.225 2.225 0 0 0-.372-.31l-.81-.514c-.545-.332-1.03-.767-1.585-1.09-1.127-.61-2.28-1.177-3.436-1.728a12.337 12.337 0 0 1-1.672-.946c-.563-.3-1.157-.554-1.734-.823l.36-.715c.586.276 1.17.542 1.744.837s1.082.706 1.67.972c1.135.6 2.26 1.23 3.385 1.857a13.228 13.228 0 0 1 1.7.928l.757.614a1.346 1.346 0 0 0 .416.248l.386.294c.258.194.51.4.774.582.275.168.6.27.857.46.543.353 1.087.71 1.6 1.11zM172.393 143.222a20.194 20.194 0 0 1 3.344-1.94l.44-.2a2.248 2.248 0 0 0 .457-.163l.87-.41c.577-.282 1.21-.44 1.79-.71l3.432-1.73a10.428 10.428 0 0 1 1.785-.708c.594-.242 1.165-.532 1.755-.79l.294.745-1.744.776c-.58.26-1.22.386-1.785.683-1.162.518-2.327 1.034-3.47 1.6a17.39 17.39 0 0 1-1.69.882l-.913.306a1.306 1.306 0 0 0-.418.228l-.444.18c-.3.117-.587.248-.873.39-.275.158-.512.387-.788.542l-1.613 1zM171.718 143.195c-1.033-.735-2.146-1.356-3.162-2.132l-.39-.277a2.225 2.225 0 0 0-.373-.31l-.81-.514c-.545-.332-1.032-.767-1.585-1.09-1.127-.61-2.28-1.177-3.436-1.728a12.334 12.334 0 0 1-1.672-.946c-.564-.3-1.157-.554-1.734-.823l.36-.715c.585.276 1.17.543 1.743.837s1.08.706 1.67.972c1.135.6 2.26 1.228 3.385 1.856a13.228 13.228 0 0 1 1.7.928l.758.614a1.346 1.346 0 0 0 .416.248l.385.294c.258.194.51.4.775.582.275.168.6.27.857.46.542.353 1.086.71 1.6 1.11zM171.343 128.95a15.25 15.25 0 0 1 2.8-1.632l.37-.163a1.377 1.377 0 0 0 .39-.127l.73-.34c.483-.236 1.022-.35 1.508-.577l2.865-1.473a7.42 7.42 0 0 1 1.5-.588c.5-.208.98-.432 1.467-.672l.293.744-1.455.66c-.485.22-1.028.305-1.5.56-.973.436-1.947.87-2.9 1.34a10.127 10.127 0 0 1-1.41.75c-.25.09-.523.14-.774.234a1 1 0 0 0-.347.2l-.375.144a5.1 5.1 0 0 0-.735.316c-.23.136-.417.345-.65.468-.46.268-.89.574-1.346.837zM170.773 129.035c-.868-.61-1.807-1.114-2.647-1.777l-.325-.234a1.36 1.36 0 0 0-.304-.268l-.675-.434c-.456-.278-.853-.66-1.316-.93-.947-.506-1.916-.97-2.89-1.422a8.545 8.545 0 0 1-1.4-.8c-.473-.25-.96-.478-1.456-.68l.36-.714c.492.23.984.447 1.465.693s.9.607 1.394.823c.953.505 1.9 1.026 2.84 1.552a8.39 8.39 0 0 1 1.43.767c.216.167.407.37.623.536a1.032 1.032 0 0 0 .35.2l.32.252a7.67 7.67 0 0 0 .645.5 6.74 6.74 0 0 1 .728.373c.456.293.916.588 1.345.925zM172.385 116.08a13 13 0 0 1 2.54-1.483l.336-.145a1.137 1.137 0 0 0 .355-.11l.663-.306c.438-.214.93-.307 1.37-.512l2.59-1.35a6.138 6.138 0 0 1 1.358-.53c.45-.186.887-.39 1.326-.613l.294.745-1.315.6c-.437.2-.934.267-1.358.5-.88.395-1.762.79-2.626 1.215a8.208 8.208 0 0 1-1.273.684c-.23.08-.478.118-.706.2a.82.82 0 0 0-.314.18l-.34.126a4.248 4.248 0 0 0-.67.28c-.206.124-.372.322-.584.43-.415.244-.8.524-1.215.76zM171.866 116.218c-.787-.547-1.642-1-2.4-1.6l-.293-.214a1.13 1.13 0 0 0-.273-.247l-.61-.394c-.413-.252-.766-.608-1.186-.853-.86-.455-1.74-.87-2.625-1.273a6.938 6.938 0 0 1-1.263-.726 13.532 13.532 0 0 0-1.32-.608l.358-.715c.448.206.895.4 1.33.623s.81.56 1.26.752l2.575 1.4a6.95 6.95 0 0 1 1.3.69c.194.152.364.344.558.5a.85.85 0 0 0 .32.182l.287.232a6.123 6.123 0 0 0 .58.455 5.727 5.727 0 0 1 .664.332c.413.265.832.53 1.22.836z" fill="#fff"/><path d="M193.776 220.108c-.418-3.17-4.833-3.662-7.163-5.85-2.7-2.534-2.167-6.885-3.317-10.4a10.8 10.8 0 0 0-4.67-5.85c-1.387-.83-2.982-1.363-4.144-2.486-2.863-2.766-1.786-7.632.3-11.023l-18.088-1.2 9.352 36.8 27.73.006" fill="#fafbfd"/><path d="M242.743 182.37a13.028 13.028 0 0 1 2.895.154 6.344 6.344 0 0 1 1.573.484 3.53 3.53 0 0 1 .837.545l.2.2a1.373 1.373 0 0 1 .127.14 1.52 1.52 0 0 1 .165.273 1.907 1.907 0 0 1 .074.2 2.232 2.232 0 0 1 .08.74 9.635 9.635 0 0 1-.23 1.523c-.1.456-.208.9-.32 1.336-.228.875-.473 1.734-.725 2.588-1.015 3.412-2.127 6.766-3.255 10.118q-3.38 10.05-7.1 19.964l-.353.942h-1.002c-5.805 0-11.61-.1-17.416-.142-5.805.022-11.61-.343-17.416-.275l-17.416-.092c-5.805-.1-11.61-.232-17.416-.278h-.523l-.133-.492-2.023-7.493-2.117-7.467c-1.4-4.984-2.778-9.97-4.06-15-.317-1.258-.628-2.518-.914-3.793-.142-.64-.28-1.278-.393-1.945a6.338 6.338 0 0 1-.114-1.137 1.523 1.523 0 0 1 .04-.3.975.975 0 0 1 .185-.377.937.937 0 0 1 .4-.29c.15-.048.068-.017.114-.03l.383-.043.533-.02c2.615-.066 5.188-.09 7.78-.12l15.52-.132c5.17-.013 10.344-.117 15.516-.048 5.172.028 10.343.2 15.515.278s10.344.03 15.516.027zm.07 2.4h-31.07c-5.173.027-10.343-.2-15.514-.258-5.172-.106-10.344-.054-15.514-.083h-15.51c-2.578.01-5.183.006-7.727.055l-.417.012a.07.07 0 0 1-.04-.017c.04-.014-.1.026.088-.033a1.207 1.207 0 0 0 .506-.362.993.993 0 0 0 .2-.4.53.53 0 0 0 .022-.127 5.9 5.9 0 0 0 .083.716c.1.595.227 1.22.36 1.84.27 1.242.57 2.493.878 3.742 1.238 5 2.585 9.99 3.945 14.972l2.064 7.47 2.183 7.438-1.3-.987 17.416-.177c5.805-.023 11.61.2 17.416.35 5.805.29 11.61-.042 17.416.178l8.708.143c2.9.032 5.805.116 8.708.056l-.776.537 3.4-10.01q1.776-4.976 3.49-9.97c1.136-3.328 2.256-6.667 3.265-10.014.25-.836.492-1.673.71-2.506.11-.416.213-.83.3-1.237a7.692 7.692 0 0 0 .18-1.1c.01-.04-.02-.123.025.064a.65.65 0 0 0 .043.114.94.94 0 0 0 .117.19c.05.064 0 .01.008.02l-.038-.035a1.184 1.184 0 0 0-.282-.174 4.07 4.07 0 0 0-.958-.287 10.767 10.767 0 0 0-2.383-.125z" fill="#e1e5f1"/><path fill="#ebedf5" stroke="#ebedf5" stroke-miterlimit="10" stroke-width="3" d="M589.998 185.656h142.037v15.666H589.998z"/><path fill="none" stroke="#fff" stroke-linecap="round" stroke-miterlimit="10" stroke-width="2" d="M720.024 182v17.755M714.802 182v17.755"/><path fill="#fff" d="M597.378 198.927h144.125v20.13H597.378z"/><path d="M742.352 219.907l-36.095.307-18.112.118q-9.063.055-18.174.01l-18.184-.07c-3.024.006-6.084-.122-9.116-.17l-9.066-.02-18.12-.035c-6.037.01-12.08-.128-18.106-.187h-.015a.794.794 0 0 1-.787-.8l.177-20.13a.63.63 0 0 1 .624-.625l36.03-.186 36.032-.25c12.01-.072 24.02-.252 36.03-.092l18.016.157c6.005.015 12.01-.06 18.016-.084a1.074 1.074 0 0 1 1.078 1.07v.01c.054 6.96-.047 14.044-.228 20.977zm-1.7-1.7c-.232-6.543-.43-12.88-.45-19.282l1.3 1.3c-12.01.04-24.02.18-36.03-.005s-24.02-.112-36.03-.11l-72.063.1 1.28-1.282.184 20.13-1.466-1.465 8.94-.053 4.466-.025 4.473.06 17.927.308 8.987.17c2.986 0 5.935-.123 8.938-.055l17.99.24c12.11.323 23.75-.257 35.752-.092zM650.214 159.347c.04 1.906 1.288 4.745 3.522 5.466a5.176 5.176 0 0 0 5.07-1.5c4.47-4.76 4.982-12.218 6.425-17.905.68-2.683.92-7.807-4.253-7.5a6.944 6.944 0 0 0-3.02 1.028c-2.436 1.408-4.848 3.5-5.74 5.86l1.913-7.864s3-3.8 6.27-3.935c5.14-.21 5.493.392 7.18 1.44 2.286 1.42 2.957 4.666 2.727 7.035-.758 7.815-3.485 21.6-11.245 27.063-2.425 1.708-6.505 2.09-8.585.09a6.91 6.91 0 0 1-1.682-4.175" fill="#e1e5f1"/><path d="M651.414 159.322c.084 1.713 1.246 3.782 2.624 4.22a3.26 3.26 0 0 0 2.325-.166 4.506 4.506 0 0 0 1.086-.662 3.5 3.5 0 0 0 .447-.452l.483-.58a18.494 18.494 0 0 0 2.81-5.5 64.23 64.23 0 0 0 1.632-6.323l.747-3.3.414-1.645a10.52 10.52 0 0 0 .27-1.467 7.116 7.116 0 0 0-.186-2.75 2.017 2.017 0 0 0-1.53-1.6 4.6 4.6 0 0 0-1.344-.146 4.04 4.04 0 0 0-1.343.233 13.792 13.792 0 0 0-6.8 5.925l-1.7-.527 1.087-3.9c.358-1.3.73-2.6 1.076-3.9l.04-.15.08-.094a15.517 15.517 0 0 1 3.26-2.914 8.265 8.265 0 0 1 2.015-1.008 7.82 7.82 0 0 1 2.24-.326 16.162 16.162 0 0 1 4.377.248 7.247 7.247 0 0 1 2.08.993l.444.275c.166.117.343.223.5.352a5.908 5.908 0 0 1 .863.85 8.486 8.486 0 0 1 1.73 4.25 11.016 11.016 0 0 1 .074 2.28c-.067.705-.114 1.408-.2 2.11a70.616 70.616 0 0 1-1.41 8.368c-.325 1.382-.7 2.755-1.13 4.12l-.7 2.03c-.27.665-.57 1.32-.855 1.98a24.97 24.97 0 0 1-4.936 7.158l-.788.777c-.275.246-.58.466-.868.7-.305.224-.557.47-.9.69a8.255 8.255 0 0 1-1.028.592 9.63 9.63 0 0 1-4.546.95 6.216 6.216 0 0 1-4.505-1.965 8.7 8.7 0 0 1-1.748-4.412l2.37-.37a6.316 6.316 0 0 0 1.17 3.248 3.907 3.907 0 0 0 2.843 1.146 7.307 7.307 0 0 0 3.41-.73 6.657 6.657 0 0 0 1.462-1c.243-.2.5-.385.735-.6l.676-.683a26.337 26.337 0 0 0 4.452-6.5 39.274 39.274 0 0 0 2.665-7.69 68.52 68.52 0 0 0 1.49-8.077c.095-.678.152-1.364.227-2.04a8.71 8.71 0 0 0-.038-1.826 6.457 6.457 0 0 0-1.24-3.228 3.894 3.894 0 0 0-.556-.56c-.1-.083-.21-.145-.31-.223l-.444-.283a5.23 5.23 0 0 0-1.53-.775 14.874 14.874 0 0 0-3.793-.23 5.8 5.8 0 0 0-1.724.214 6.435 6.435 0 0 0-1.57.77 11.957 11.957 0 0 0-2.717 2.566l.25-.517-.854 3.956c-.29 1.317-.545 2.643-.872 3.95l-2.932-.907a12.086 12.086 0 0 1 4.978-5.61c.512-.32 1.032-.615 1.567-.892a10.03 10.03 0 0 1 1.784-.72 6.5 6.5 0 0 1 2.01-.273 6.81 6.81 0 0 1 1.992.278 5.133 5.133 0 0 1 3.12 2.82 7.51 7.51 0 0 1 .36 3.808 12.826 12.826 0 0 1-.348 1.79l-.435 1.608c-.276 1.07-.554 2.153-.786 3.25-.52 2.186-.935 4.412-1.53 6.652a17.78 17.78 0 0 1-3.164 6.3 6.44 6.44 0 0 1-7.156 2.6 5.976 5.976 0 0 1-3.06-2.73 8.225 8.225 0 0 1-1.1-3.767z" fill="#e1e5f1"/><path d="M658.286 124.427c-16.53-3.037-35.267-4.676-51.96-3.263a1.412 1.412 0 0 0-.98.363 1.466 1.466 0 0 0-.228 1.033c1.01 28.57 2.71 29.4 4.117 58.08a2.76 2.76 0 0 0 .37 1.51 2.79 2.79 0 0 0 2.225.8c10.75.524 23.83-.352 34.578.17 0 0 6.832-29.826 11.878-58.693z" fill="#fff"/><path d="M657.3 125.113a12.14 12.14 0 0 1-1.775.044c-.454-.037-1.343-.2-2.1-.308-1.547-.25-3.1-.458-4.65-.678-3.108-.407-6.22-.778-9.337-1.066s-6.24-.53-9.365-.675c-3.123-.168-6.248-.3-9.373-.314s-6.248-.027-9.366.106c-1.56.047-3.116.154-4.673.25-.436 0-.607.12-.382-.022a.458.458 0 0 0 .15-.233 1.233 1.233 0 0 0-.01.278l.066 2.353c.166 3.14-.03 6.3.22 9.43q.238 4.707.612 9.4l.816 9.4c.244 3.14.493 6.288.687 9.438.212 3.15.412 6.3.57 9.448.074 1.575.148 3.15.255 4.724l.147 2.36.073 1.18a8.472 8.472 0 0 0 .1 1.077.92.92 0 0 0 .34.6 1.76 1.76 0 0 0 .784.28c.653.09 1.5.074 2.268.11 1.566.044 3.135.056 4.7.06 3.14 0 6.284-.072 9.432-.146 6.3-.138 12.607-.37 18.96-.146l-1.075.816q1.568-7.3 3.045-14.644c1.035-4.878 2.15-9.74 3.232-14.608 1.1-4.865 2-9.772 2.883-14.68l1.307-7.362.322-1.842c.094-.558.183-1.047.3-1.56.222-1.007.516-2.005.836-3.07zm1.97-1.37c-.1 1.378-.22 2.833-.416 4.29-.1.718-.214 1.467-.332 2.144l-.326 1.845-1.323 7.378c-.9 4.916-1.828 9.824-2.838 14.717s-2.2 9.746-3.278 14.624q-1.557 7.33-3.195 14.645l-.217.962-.995-.044c-6.234-.276-12.52-.123-18.823-.028-3.152.05-6.31.093-9.478.073-1.585-.015-3.17-.04-4.76-.1-.823-.05-1.508-.013-2.517-.155a3.6 3.6 0 0 1-1.652-.67 2.872 2.872 0 0 1-1.03-1.738 9.886 9.886 0 0 1-.125-1.36l-.064-1.177-.127-2.355c-.07-1.57-.213-3.136-.327-4.7-.243-3.133-.526-6.26-.827-9.386-.287-3.126-.626-6.248-.964-9.38-.318-3.133-.58-6.284-.728-9.446s-.3-6.32-.373-9.478c.028-3.164-.49-6.3-.43-9.46l-.044-2.37a3.59 3.59 0 0 1 .067-.83 1.908 1.908 0 0 1 .632-1.07 2.74 2.74 0 0 1 1.693-.507c1.585-.08 3.168-.18 4.753-.222 1.584-.07 3.168-.068 4.75-.093 1.584.03 3.167-.014 4.75-.01 3.164-.064 6.334-.06 9.5.073 3.162.16 6.318.426 9.47.725s6.292.693 9.43 1.12c1.565.228 3.133.446 4.7.7.8.136 1.472.21 2.56.443a24.877 24.877 0 0 1 2.885.842z" fill="#e1e5f1"/><path d="M630.866 120.352a12.12 12.12 0 0 1 1.8-2.228 4.13 4.13 0 0 1 2.776-1.226 3.654 3.654 0 0 1 2.754 1.37 7.266 7.266 0 0 1 1.336 2.616 9.44 9.44 0 0 1 .3 1.413c.027.472.04.943.1 1.408a11.265 11.265 0 0 1 .074 1.4c0 .468.042.937 0 1.4a21.244 21.244 0 0 1-.283 2.783c-.12.924-.32 1.83-.492 2.742-.7 3.643-1.746 7.2-2.61 10.775-.406 1.794-.883 3.564-1.213 5.365a28.75 28.75 0 0 0-.36 5.45l-.8.02a31.447 31.447 0 0 1 .372-5.6c.287-1.847.826-3.634 1.257-5.433.924-3.588 2.035-7.108 2.73-10.7a53.11 53.11 0 0 0 .583-5.423c.052-.452.02-.9.04-1.357a10.8 10.8 0 0 0-.016-1.36 12.34 12.34 0 0 0-.167-1.35 9.907 9.907 0 0 0-.258-1.307 6.218 6.218 0 0 0-1.17-2.354 2.956 2.956 0 0 0-2.19-1.025 3.314 3.314 0 0 0-2.22 1 11.413 11.413 0 0 0-1.685 2.07z" fill="#e1e5f1"/><path d="M632.63 153.657c1.93-.2 3.855-.433 5.787-.593l.52-.043v.52c.01 1.135-.02 2.27-.027 3.4-.11 1.136-.03 2.27-.052 3.4.01.567-.026 1.135-.04 1.7a3.335 3.335 0 0 1-.11.92 1.21 1.21 0 0 1-.69.737 3.8 3.8 0 0 1-.88.22l-.834.163-1.67.325c-1.133.21-2.19.448-3.382.64a1.48 1.48 0 0 1-1.043-.258 1.587 1.587 0 0 1-.547-.93 10.286 10.286 0 0 1-.11-1.774c0-1.135.08-2.27.068-3.4l-.075-3.4h.8c.025 2.27.142 4.538 0 6.807a9.993 9.993 0 0 0 .06 1.618c.112.48.315.65.8.62 1.033-.15 2.21-.383 3.31-.57l1.676-.3a6.93 6.93 0 0 0 1.54-.357.5.5 0 0 0 .293-.346 2.813 2.813 0 0 0 .026-.7c-.008-.567-.06-1.134-.02-1.7l.073-1.7.045-.85c0-.285-.03-.568-.036-.852.024-1.135.107-2.27.05-3.4l.316.285c-.48.057-.96.15-1.442.2l-1.447.14-2.895.282z" fill="#e1e5f1"/><path d="M620.1 121.96a18.717 18.717 0 0 0-3.208 20.694c1.717 3.484 4.52 6.367 6.068 9.93 4.214 9.69-1.517 22.472 5.043 30.757a41.51 41.51 0 0 1-19.194-.462q-2.653-30.77-2.833-61.685l12.267 1.277" fill="#fafbfd"/><path d="M657.3 125.113a12.14 12.14 0 0 1-1.775.044c-.454-.037-1.343-.2-2.1-.308-1.547-.25-3.1-.458-4.65-.678-3.108-.407-6.22-.778-9.337-1.066s-6.24-.53-9.365-.675c-3.123-.168-6.248-.3-9.373-.314s-6.248-.027-9.366.106c-1.56.047-3.116.154-4.673.25-.436 0-.607.12-.382-.022a.458.458 0 0 0 .15-.233 1.233 1.233 0 0 0-.01.278l.066 2.353c.166 3.14-.03 6.3.22 9.43q.238 4.707.612 9.4l.816 9.4c.244 3.14.493 6.288.687 9.438.212 3.15.412 6.3.57 9.448.074 1.575.148 3.15.255 4.724l.147 2.36.073 1.18a8.472 8.472 0 0 0 .1 1.077.92.92 0 0 0 .34.6 1.76 1.76 0 0 0 .784.28c.653.09 1.5.074 2.268.11 1.566.044 3.135.056 4.7.06 3.14 0 6.284-.072 9.432-.146 6.3-.138 12.607-.37 18.96-.146l-1.075.816q1.568-7.3 3.045-14.644c1.035-4.878 2.15-9.74 3.232-14.608 1.1-4.865 2-9.772 2.883-14.68l1.307-7.362.322-1.842c.094-.558.183-1.047.3-1.56.222-1.007.516-2.005.836-3.07zm1.97-1.37c-.1 1.378-.22 2.833-.416 4.29-.1.718-.214 1.467-.332 2.144l-.326 1.845-1.323 7.378c-.9 4.916-1.828 9.824-2.838 14.717s-2.2 9.746-3.278 14.624q-1.557 7.33-3.195 14.645l-.217.962-.995-.044c-6.234-.276-12.52-.123-18.823-.028-3.152.05-6.31.093-9.478.073-1.585-.015-3.17-.04-4.76-.1-.823-.05-1.508-.013-2.517-.155a3.6 3.6 0 0 1-1.652-.67 2.872 2.872 0 0 1-1.03-1.738 9.886 9.886 0 0 1-.125-1.36l-.064-1.177-.127-2.355c-.07-1.57-.213-3.136-.327-4.7-.243-3.133-.526-6.26-.827-9.386-.287-3.126-.626-6.248-.964-9.38-.318-3.133-.58-6.284-.728-9.446s-.3-6.32-.373-9.478c.028-3.164-.49-6.3-.43-9.46l-.044-2.37a3.59 3.59 0 0 1 .067-.83 1.908 1.908 0 0 1 .632-1.07 2.74 2.74 0 0 1 1.693-.507c1.585-.08 3.168-.18 4.753-.222 1.584-.07 3.168-.068 4.75-.093 1.584.03 3.167-.014 4.75-.01 3.164-.064 6.334-.06 9.5.073 3.162.16 6.318.426 9.47.725s6.292.693 9.43 1.12c1.565.228 3.133.446 4.7.7.8.136 1.472.21 2.56.443a24.877 24.877 0 0 1 2.885.842zM764.48 219.425a17.655 17.655 0 0 1 4.7-.14l.588.092a1.465 1.465 0 0 1 .294.15.946.946 0 0 0 .294.047c.392.047.783.016 1.175.038.784 0 1.567.388 2.35.4 1.567-.03 3.134-.374 4.7-.543a5.04 5.04 0 0 1 1.176-.06c.392.07.783.163 1.175.216a12.35 12.35 0 0 0 2.35-.207 1.2 1.2 0 0 1 .426 2.358q-.056.01-.113.015l-.312.026-2.35.192a3.4 3.4 0 0 1-1.174-.174 5.574 5.574 0 0 0-1.175-.064c-1.566-.025-3.132.03-4.7.12a6.61 6.61 0 0 1-2.35.212c-.39-.1-.782-.31-1.174-.41a.733.733 0 0 0-.294-.04c-.1.03-.2.1-.294.1a5.08 5.08 0 0 1-.588-.116 3.8 3.8 0 0 0-1.175-.215c-.392.043-.783.33-1.175.3a17.356 17.356 0 0 1-2.35.1 1.2 1.2 0 0 1-.066-2.394zM79.362 219.425c56.223-.12 112.446-.433 168.67-.12l21.082.075c7.028.083 14.056.212 21.083.188l42.167.056L416.7 220l168.67-.51c28.11-.2 56.222.057 84.333.12q10.542.06 21.083 0l21.084-.063 42.167-.124a1.2 1.2 0 1 1 .007 2.4h-.007L669.7 222l-21.083-.02-21.084-.13c-14.056-.1-28.11-.06-42.167-.057l-168.67.11-42.166.187c-14.056.03-28.112.142-42.167-.02l-42.163-.35c-7.028-.113-14.056-.005-21.083.034l-21.083-.124-42.167-.187-21.083.152c-7.028.067-14.056.134-21.084.122l-84.334.11a1.2 1.2 0 1 1 0-2.4z" fill="#e1e5f1"/><path d="M617.09 48.093L475.626 43.1s-10.854 182.747-9.192 184.174L607.36 232.2z" fill="#fff"/><path d="M616.2 48.9l-70.43-2.04-35.105-1.1q-17.544-.576-35.09-1.27l1.438-1.308L474.14 89.2c-.262 3.834-.554 7.666-.778 11.5l-.664 11.508-1.3 23.017-2.598 46.032c-.428 7.672-.852 15.344-1.2 23.02l-.487 11.51-.177 5.75-.042 2.87.012 1.423.028.695.028.323.02.13V227c-.015-.006.022-.033-.148-.2l-.385-.15 35.24 1.15 35.235 1.124 70.47 2.218-1.085.995 2.27-45.8 2.652-45.838 1.318-22.94 1.2-22.89zm1.77-1.62l-4.45 92.4-2.585 46.332-2.4 46.247a1.185 1.185 0 0 1-1.223 1.12l-140.922-4.826h-.093a1.033 1.033 0 0 1-.7-.307 1.364 1.364 0 0 1-.425-.658 1.974 1.974 0 0 1-.057-.22c-.024-.118-.035-.2-.046-.28l-.043-.43-.038-.772-.026-1.477.017-2.906.128-5.78.386-11.536c.283-7.685.63-15.365.987-23.044l1.127-23.032 1.405-23.016 1.48-23.01.76-11.5c.25-3.835.406-7.675.608-11.512.83-15.35 1.945-30.68 2.886-46.022v-.012a.88.88 0 0 1 .912-.824l17.754.707 17.788.517 17.823.507 17.8.645z" fill="#3e4166"/><path d="M518.4 45.47c-14.33 8.35-15.486 24.342-9.247 37.106s18.25 23.636 27.13 35.59c26.018 35.02 22.58 80.092-8.537 111.947l-61.315-2.84L476.84 43.14z" fill="#f2f3f4"/><path d="M616.2 48.9l-70.43-2.04-35.105-1.1q-17.544-.576-35.09-1.27l1.438-1.308L474.14 89.2c-.262 3.834-.554 7.666-.778 11.5l-.664 11.508-1.3 23.017-2.598 46.032c-.428 7.672-.852 15.344-1.2 23.02l-.487 11.51-.177 5.75-.042 2.87.012 1.423.028.695.028.323.02.13V227c-.015-.006.022-.033-.148-.2l-.385-.15 35.24 1.15 35.235 1.124 70.47 2.218-1.085.995 2.27-45.8 2.652-45.838 1.318-22.94 1.2-22.89zm1.77-1.62l-4.45 92.4-2.585 46.332-2.4 46.247a1.185 1.185 0 0 1-1.223 1.12l-140.922-4.826h-.093a1.033 1.033 0 0 1-.7-.307 1.364 1.364 0 0 1-.425-.658 1.974 1.974 0 0 1-.057-.22c-.024-.118-.035-.2-.046-.28l-.043-.43-.038-.772-.026-1.477.017-2.906.128-5.78.386-11.536c.283-7.685.63-15.365.987-23.044l1.127-23.032 1.405-23.016 1.48-23.01.76-11.5c.25-3.835.406-7.675.608-11.512.83-15.35 1.945-30.68 2.886-46.022v-.012a.88.88 0 0 1 .912-.824l17.754.707 17.788.517 17.823.507 17.8.645z" fill="#3e4166"/><path d="M479.955 148.953c9.964.292 19.936.39 29.88 1.115l3.732.228c.622.048 1.24.15 1.86.226s1.244.088 1.867.12l7.467.364c4.98.208 9.944.8 14.923 1 9.964.293 19.93.512 29.9.716 2.492.056 4.985.076 7.472.245l7.46.507c2.49.156 4.982.163 7.472.25s4.982.14 7.475.168a1.2 1.2 0 1 1-.026 2.4H599.362c-4.982-.15-9.965-.256-14.946-.44-1.244-.06-2.49-.078-3.734-.175l-3.73-.282c-2.485-.2-4.976-.268-7.466-.367l-29.882-1.128c-4.984-.1-9.975-.028-14.947-.417-2.486-.193-4.966-.522-7.453-.708-.62-.052-1.242-.116-1.865-.125s-1.25.048-1.87.017l-3.73-.282c-2.486-.192-4.97-.42-7.46-.5-1.246-.046-2.495-.007-3.743.02s-2.494 0-3.74-.042c-4.98-.17-9.964-.265-14.94-.515a1.2 1.2 0 0 1 .1-2.4zM481.1 177.98c5.615.143 11.24.093 16.834.667l2.1.172c.35.038.7.132 1.045.2s.7.068 1.05.09l4.2.253c2.805.11 5.59.648 8.4.78 5.61.226 11.234.178 16.852.266 1.4.025 2.81-.01 4.21.12s2.8.3 4.2.406 2.808.088 4.21.14 2.81.063 4.215.053a1.2 1.2 0 1 1 .017 2.4h-.134l-8.423-.2c-1.4-.037-2.8-.208-4.2-.37s-2.8-.177-4.2-.245l-16.833-.68a83.55 83.55 0 0 1-8.424-.187c-1.4-.155-2.79-.447-4.188-.6a8.435 8.435 0 0 0-1.05-.1 10.42 10.42 0 0 1-1.056.045c-.7-.062-1.4-.122-2.1-.21-1.4-.184-2.794-.352-4.2-.407a20.25 20.25 0 0 0-2.112.077c-.7.043-1.407.04-2.11.014-2.805-.094-5.615-.115-8.418-.29a1.2 1.2 0 0 1 .1-2.4zM481.81 169.85c4.4.084 8.813-.023 13.195.5l1.645.15c.274.034.545.125.817.187a6.62 6.62 0 0 0 .823.08l3.295.21c2.2.08 4.378.592 6.576.694 4.4.19 8.81.04 13.215.08 1.1.02 2.2-.015 3.3.1s2.19.272 3.287.364 2.2.06 3.3.1 2.2.036 3.3.012a1.2 1.2 0 0 1 .053 2.4H534.45l-6.6-.115a28.557 28.557 0 0 1-3.29-.327c-1.094-.145-2.2-.156-3.293-.218-4.4-.23-8.794-.382-13.195-.495a51.35 51.35 0 0 1-6.6-.1c-1.095-.14-2.183-.418-3.28-.552a5.168 5.168 0 0 0-.82-.086 6.448 6.448 0 0 1-.83.056c-.548-.055-1.1-.108-1.643-.19a28.532 28.532 0 0 0-3.29-.363 12.55 12.55 0 0 0-1.656.1 13.068 13.068 0 0 1-1.654.035c-2.2-.066-4.4-.058-6.6-.2a1.2 1.2 0 0 1 .1-2.4z" fill="#3e4166"/><path d="M499.74 125.088a26.483 26.483 0 0 0 4.775 4.024 22.87 22.87 0 0 0 5.585 2.637 27.5 27.5 0 0 0 6.066 1.24 31.587 31.587 0 0 0 6.283.04c.528-.022 1.05-.13 1.576-.193s1.052-.143 1.574-.25 1.07-.105 1.606-.17c.53-.1 1.043-.255 1.56-.4 2.038-.613 4.11-1.406 6.168-2.224 4.074-1.692 8.32-3.044 12.3-5.033 7.944-4.01 15.5-8.688 23.484-12.84a48.72 48.72 0 0 1 6.208-2.788 54.283 54.283 0 0 1 6.662-1.75 40.686 40.686 0 0 1 6.907-.9 31.435 31.435 0 0 1 7.036.736 1.6 1.6 0 1 1-.682 3.124h-.02l-.154-.036a24.946 24.946 0 0 0-6.17-.675 31.277 31.277 0 0 0-6.22.87c-.51.14-1.03.25-1.546.37-.515.136-1.024.3-1.548.413-1.042.247-2.076.566-3.115.88a48.034 48.034 0 0 0-6.037 2.54c-3.952 1.917-7.876 4.035-11.816 6.105s-7.878 4.162-11.865 6.214c-1.99 1.033-3.944 2.152-5.957 3.17a50.776 50.776 0 0 1-6.21 2.673c-1.065.372-2.15.685-3.234 1-.532.16-1.11.3-1.668.444s-1.107.33-1.676.442a17.194 17.194 0 0 0-1.677.424c-.55.178-1.093.39-1.658.516a32.114 32.114 0 0 1-3.445.437l-1.735.068c-.578 0-1.158-.018-1.735-.027-1.153 0-2.306-.1-3.455-.177a24.243 24.243 0 0 1-6.9-1.064 26.4 26.4 0 0 1-11.666-7.725 1.6 1.6 0 0 1 2.342-2.176z" fill="#46bfbf"/><path d="M494.142 136.81l12.608-4.82-.57.382c.8-.923 1.644-1.814 2.463-2.723s1.635-1.823 2.49-2.7l5.063-5.32a1.357 1.357 0 0 1 .77-.4c1.422-.226 2.89-.1 4.308-.362l4.283-.54 4.282-.54 4.3-.4-.356.138c1.4-.91 2.83-1.785 4.208-2.73 1.39-.928 2.745-1.905 4.09-2.9l8.1-5.905a.773.773 0 0 1 .287-.13l.038-.007 8.794-1.916 4.4-.962c1.468-.31 2.925-.672 4.406-.91l-.358.13c2.995-1.632 6.1-3.064 9.042-4.79s5.922-3.38 8.84-5.148a1.2 1.2 0 0 1 1.244 2.053l-.017.01-.06.034-8.862 5.11c-1.472.862-2.973 1.67-4.458 2.507l-4.557 2.33-.085.043a.887.887 0 0 1-.27.086c-1.486.216-2.95.545-4.422.827l-4.413.874-8.826 1.75.465-.2-8.192 5.777c-1.37.955-2.73 1.925-4.06 2.94l-4.02 3.003a1.272 1.272 0 0 1-.53.233l-.126.023c-1.417.26-2.846.425-4.27.633-1.43.152-2.862.305-4.3.387-1.438.1-2.88.172-4.314.307-1.45.014-2.83.538-4.277.587l.662-.346c-1.708 1.755-3.48 3.452-5.155 5.238a34.055 34.055 0 0 0-2.4 2.78c-.754.968-1.523 1.923-2.346 2.83a1.075 1.075 0 0 1-.414.282l-.02.007-6.316 2.38c-2.1.8-4.215 1.57-6.335 2.325a1.2 1.2 0 0 1-.833-2.25z" fill="#3e4166"/><path d="M488.107 89.12a31.926 31.926 0 0 1 16.2-.112 30.766 30.766 0 0 1 7.606 3.05 28.83 28.83 0 0 1 6.426 5.116 37.58 37.58 0 0 1 2.608 3.11c.4.54.743 1.12 1.093 1.69l1.117 1.654c1.48 2.2 2.833 4.453 4.22 6.66a64.4 64.4 0 0 0 9.35 12.335 59.737 59.737 0 0 0 12.445 9.213 63.8 63.8 0 0 0 14.25 5.877l3.74.9c1.27.185 2.52.46 3.78.693a51.48 51.48 0 0 0 7.642.772l1.925.04 1.915-.177a30.315 30.315 0 0 0 3.81-.47l1.886-.352a14.25 14.25 0 0 0 1.87-.414l3.67-1.1.746 2.28a50.632 50.632 0 0 1-15.833 2.573 41.6 41.6 0 0 1-7.995-.75c-1.312-.26-2.614-.56-3.93-.78l-3.873-1A66.333 66.333 0 0 1 535.4 123.98a38.316 38.316 0 0 1-2.847-2.822l-1.386-1.454c-.446-.5-.858-1.03-1.288-1.543a44.363 44.363 0 0 1-4.6-6.538c-1.34-2.268-2.5-4.608-3.893-6.786a19.23 19.23 0 0 0-1.074-1.6c-.4-.5-.84-.974-1.234-1.474q-1.138-1.542-2.406-2.96a28.014 28.014 0 0 0-2.736-2.624 22.318 22.318 0 0 0-3.138-2.15 20.638 20.638 0 0 0-3.506-1.488c-.608-.185-1.2-.418-1.81-.575-.6-.185-1.208-.368-1.823-.514a30.385 30.385 0 0 0-14.936 0z" fill="#b9e2e4"/><circle cx="506.885" cy="133.032" r="3.107" transform="matrix(.033 -1 1 .033 357.36 635.3)" fill="#fff"/><path d="M511.19 133.173a4.42 4.42 0 0 1-1.208 3.166 3.8 3.8 0 0 1-3.243 1.136 4.423 4.423 0 0 1-.843-.2 1.856 1.856 0 0 1-.364-.26 2.36 2.36 0 0 0-.365-.193 4.668 4.668 0 0 1-1.29-.97 2.873 2.873 0 0 1-.668-1.434 7.933 7.933 0 0 1-.04-1.5 4.277 4.277 0 0 1 1.026-2.748 3.925 3.925 0 0 1 2.826-1.386 3.062 3.062 0 0 1 1.642.324 4.47 4.47 0 0 1 1.21 1.128 4.71 4.71 0 0 1 1.315 2.935zm-2.4-.078a1.85 1.85 0 0 0-.656-1.234 4.65 4.65 0 0 1-.472-.547 1.07 1.07 0 0 0-.715-.23 1.787 1.787 0 0 0-1.893 1.89 1.213 1.213 0 0 0 .317.628 1.51 1.51 0 0 1 .332.54 1.7 1.7 0 0 0 .344.74c.054.04.1.11.172.112s.156-.06.217-.04c.12.06.245.1.38.167a1.1 1.1 0 0 0 .88.067c.28-.153.36-.546.56-.69a2.142 2.142 0 0 0 .536-1.403z" fill="#3e4166"/><circle cx="517.125" cy="122.877" r="3.107" transform="rotate(-88.13 517.126 122.876)" fill="#fff"/><path d="M521.43 123.017a4.424 4.424 0 0 1-1.208 3.166 3.8 3.8 0 0 1-3.243 1.137 4.428 4.428 0 0 1-.843-.2 1.86 1.86 0 0 1-.364-.26 2.37 2.37 0 0 0-.365-.194 4.67 4.67 0 0 1-1.29-.97 2.873 2.873 0 0 1-.668-1.434 7.932 7.932 0 0 1-.04-1.5 4.277 4.277 0 0 1 1.026-2.747 3.925 3.925 0 0 1 2.826-1.386 3.062 3.062 0 0 1 1.642.323 4.46 4.46 0 0 1 1.21 1.128 4.712 4.712 0 0 1 1.315 2.937zm-2.4-.078a1.85 1.85 0 0 0-.656-1.235 4.617 4.617 0 0 1-.472-.548 1.068 1.068 0 0 0-.715-.23 1.787 1.787 0 0 0-1.893 1.89 1.21 1.21 0 0 0 .317.628 1.51 1.51 0 0 1 .33.538 1.7 1.7 0 0 0 .345.742c.054.038.1.11.172.11s.156-.06.217-.038c.12.06.245.1.38.166a1.105 1.105 0 0 0 .88.068c.28-.152.36-.545.56-.69a2.142 2.142 0 0 0 .536-1.4z" fill="#3e4166"/><circle cx="534.685" cy="120.537" r="3.107" transform="rotate(-88.13 534.686 120.536)" fill="#fff"/><path d="M538.99 120.678a4.422 4.422 0 0 1-1.208 3.166 3.8 3.8 0 0 1-3.243 1.137 4.414 4.414 0 0 1-.843-.2 1.856 1.856 0 0 1-.364-.258 2.36 2.36 0 0 0-.365-.194 4.672 4.672 0 0 1-1.29-.97 2.873 2.873 0 0 1-.668-1.434 7.933 7.933 0 0 1-.04-1.5 4.277 4.277 0 0 1 1.03-2.756 3.925 3.925 0 0 1 2.826-1.386 3.062 3.062 0 0 1 1.642.324 4.467 4.467 0 0 1 1.21 1.128 4.713 4.713 0 0 1 1.31 2.944zm-2.4-.078a1.85 1.85 0 0 0-.656-1.234 4.65 4.65 0 0 1-.472-.548 1.07 1.07 0 0 0-.715-.23 1.787 1.787 0 0 0-1.893 1.89 1.213 1.213 0 0 0 .317.628 1.505 1.505 0 0 1 .332.538 1.7 1.7 0 0 0 .344.742c.054.038.1.11.172.11s.156-.06.217-.038c.12.06.245.1.38.166a1.1 1.1 0 0 0 .88.068c.28-.153.36-.546.56-.69a2.142 2.142 0 0 0 .535-1.402z" fill="#3e4166"/><circle cx="550.816" cy="108.437" r="3.107" transform="rotate(-88.13 550.817 108.436)" fill="#fff"/><path d="M555.12 108.578a4.422 4.422 0 0 1-1.207 3.166 3.8 3.8 0 0 1-3.243 1.137 4.414 4.414 0 0 1-.842-.2 1.86 1.86 0 0 1-.364-.258 2.36 2.36 0 0 0-.365-.195 4.666 4.666 0 0 1-1.292-.97 2.873 2.873 0 0 1-.667-1.434 7.913 7.913 0 0 1-.038-1.5 4.277 4.277 0 0 1 1.025-2.747 3.926 3.926 0 0 1 2.826-1.386 3.065 3.065 0 0 1 1.642.324 4.47 4.47 0 0 1 1.21 1.128 4.71 4.71 0 0 1 1.315 2.936zm-2.4-.078a1.85 1.85 0 0 0-.655-1.234 4.65 4.65 0 0 1-.472-.548 1.07 1.07 0 0 0-.715-.23 1.787 1.787 0 0 0-1.893 1.89 1.213 1.213 0 0 0 .317.628 1.51 1.51 0 0 1 .33.538 1.7 1.7 0 0 0 .345.742c.054.038.1.11.172.11s.155-.06.216-.038c.12.06.245.1.38.166a1.105 1.105 0 0 0 .88.068c.28-.153.36-.546.56-.69a2.142 2.142 0 0 0 .535-1.402z" fill="#3e4166"/><circle cx="553.306" cy="67.929" r="1.347" transform="rotate(-88.13 553.307 67.928)" fill="#3e4166"/><path d="M555.852 68.012a2.557 2.557 0 0 1-.65 1.94 2.12 2.12 0 0 1-1.984.662 2.57 2.57 0 0 1-.5-.157.878.878 0 0 1-.2-.213.774.774 0 0 0-.2-.13 2.954 2.954 0 0 1-.732-.572 1.288 1.288 0 0 1-.3-.85c0-.307.066-.576.073-.827a2.69 2.69 0 0 1 .47-1.52 2.16 2.16 0 0 1 1.565-.913 1.484 1.484 0 0 1 .974.168 2.82 2.82 0 0 1 .652.728 3.06 3.06 0 0 1 .83 1.684zm-2.4-.078a.135.135 0 0 0-.18.026c-.02.032.057-.04.086-.148s-.026-.057-.046-.075c-.048 0-.11 0-.128.062a.11.11 0 0 0 .047.127.273.273 0 0 0 .21-.05c.072-.047.047-.093-.03-.044a.55.55 0 0 0-.215.342c0 .017-.006.065.01.048s.047-.094.052-.086l.04.12c.036.11.137.228.2.18.063-.07-.057-.34-.023-.328-.004-.098.008-.126-.02-.176z" fill="#3e4166"/><circle cx="553.052" cy="75.691" r="1.347" transform="rotate(-88.13 553.054 75.69)" fill="#46bfbf"/><path d="M556 75.788a2.958 2.958 0 0 1-.724 2.275 2.415 2.415 0 0 1-2.9.563c-.09-.05-.154-.184-.22-.272a.775.775 0 0 0-.232-.16 3.513 3.513 0 0 1-.834-.658 1.377 1.377 0 0 1-.314-.984c.025-.355.122-.654.126-.93a3.17 3.17 0 0 1 .484-1.715 2.52 2.52 0 0 1 1.767-1.11 1.686 1.686 0 0 1 1.127.2 3.278 3.278 0 0 1 .728.868 3.654 3.654 0 0 1 .992 1.923zm-3.2-.1a.336.336 0 0 0-.12.357c.01.088.164.03.258-.1s.08-.043.11-.07c.07-.04.222.022.353-.17a.828.828 0 0 0 .26-.242c.06-.114.006-.23-.142-.206a.78.78 0 0 0-.427.354c-.012.02-.034.077-.025.048a.422.422 0 0 0 .025-.127.278.278 0 0 0-.036.15c-.01.146.067.31.1.27a.446.446 0 0 0-.08-.23c-.062-.1-.083-.107-.1-.116-.107-.05-.11.033-.174.08z" fill="#46bfbf"/><circle cx="569.197" cy="104.764" r="3.107" transform="rotate(-88.13 569.198 104.763)" fill="#fff"/><path d="M573.5 104.9a4.424 4.424 0 0 1-1.207 3.166 3.8 3.8 0 0 1-3.243 1.137 4.428 4.428 0 0 1-.842-.2 1.86 1.86 0 0 1-.364-.26 2.37 2.37 0 0 0-.365-.194 4.67 4.67 0 0 1-1.292-.97 2.874 2.874 0 0 1-.667-1.434 7.932 7.932 0 0 1-.038-1.5 4.277 4.277 0 0 1 1.025-2.747 3.925 3.925 0 0 1 2.826-1.387 3.062 3.062 0 0 1 1.642.324 4.46 4.46 0 0 1 1.21 1.128 4.712 4.712 0 0 1 1.315 2.935zm-2.4-.078a1.85 1.85 0 0 0-.655-1.234 4.62 4.62 0 0 1-.472-.548 1.07 1.07 0 0 0-.715-.23 1.787 1.787 0 0 0-1.893 1.89 1.21 1.21 0 0 0 .317.628 1.51 1.51 0 0 1 .33.538 1.7 1.7 0 0 0 .344.742c.054.038.1.11.172.11s.156-.06.217-.038c.12.06.245.1.38.167a1.106 1.106 0 0 0 .88.068c.28-.153.36-.546.56-.69a2.143 2.143 0 0 0 .535-1.398zM482.314 158.612c.42-8.635.65-17.28 1.5-25.89l.276-3.23c.056-.538.167-1.072.25-1.608s.1-1.076.143-1.615l.462-6.468c.273-4.313.926-8.6 1.2-12.916.423-8.635.77-17.274 1.1-25.914.088-2.16.14-4.322.342-6.474l.6-6.458c.188-2.153.228-4.316.348-6.474s.2-4.318.264-6.48a1.2 1.2 0 1 1 2.4.067v.084c-.215 4.317-.386 8.637-.635 12.952-.077 1.077-.11 2.157-.224 3.233l-.33 3.227c-.234 2.15-.332 4.31-.463 6.467l-1.512 25.888c-.165 4.32-.157 8.65-.61 12.953-.226 2.15-.587 4.294-.8 6.445-.06.538-.133 1.074-.15 1.615s.032 1.085-.007 1.624l-.33 3.227c-.224 2.15-.483 4.3-.6 6.457-.062 1.08-.04 2.163-.027 3.246s-.03 2.163-.09 3.242c-.234 4.316-.395 8.636-.708 12.947a1.2 1.2 0 0 1-2.4-.15zM602.152 85.322l-14.064-.182-7.07-.09-7.12-.16c-4.757-.13-9.537-.358-14.284-.55-2.37-.03-4.77-.438-7.122-.44l-7.08-.267h-.012a1.008 1.008 0 0 1-.97-1.046l.21-5.478.323-5.476c.238-3.65.39-7.3.575-10.952v-.012a.624.624 0 0 1 .644-.59c4.657.156 9.318.2 13.977.31l13.977.264 13.98.24c4.66.02 9.312.35 13.967.6h.05a1.014 1.014 0 0 1 .957 1.065v.006c-.223 3.766-.3 7.55-.433 11.362s-.313 7.61-.505 11.394zm-1.64-1.752c-.007-7.18-.1-14.122.158-21.087l1.33 1.424c-4.657-.172-9.305-.6-13.965-.672l-13.973-.424-13.973-.423-13.975-.4 1.323-1.24c-.048 3.655-.07 7.31-.157 10.965l-.118 5.48c-.1 1.826-.176 3.652-.332 5.475l-1.345-1.436 6.875.516c2.315.3 4.57.01 6.882.258 4.6.275 9.255.62 13.85.757 2.273.012 4.522-.01 6.793.035l6.87.25zM564.752 215.162l-14.064-.182-7.07-.09-7.12-.16c-4.757-.13-9.537-.358-14.284-.55-2.37-.03-4.77-.438-7.122-.44l-7.08-.267H508a1.01 1.01 0 0 1-.97-1.046l.21-5.478.323-5.476c.238-3.65.39-7.3.574-10.952v-.012a.624.624 0 0 1 .643-.59c4.657.156 9.318.2 13.977.31l13.98.265 13.978.24c4.662.02 9.313.35 13.968.6h.05a1.014 1.014 0 0 1 .958 1.065v.007c-.223 3.766-.3 7.55-.433 11.362s-.314 7.61-.505 11.392zm-1.64-1.752c-.007-7.18-.1-14.122.157-21.087l1.332 1.423c-4.657-.172-9.305-.6-13.965-.672l-13.973-.424-13.973-.424-13.973-.4 1.324-1.24c-.047 3.655-.07 7.31-.156 10.965l-.12 5.482c-.1 1.825-.175 3.65-.33 5.474l-1.346-1.436 6.875.515c2.315.3 4.57.01 6.882.258 4.6.275 9.255.62 13.85.757 2.273.01 4.522-.01 6.792.034l6.87.25z" fill="#3e4166"/><path d="M559.536 67.5a45.672 45.672 0 0 1 7.573.108l.942.123a3.2 3.2 0 0 1 .468.166 2.53 2.53 0 0 0 .472.063c.63.063 1.26.06 1.89.11 1.262.022 2.51.464 3.77.517 2.525.053 5.06-.21 7.587-.295a13.06 13.06 0 0 1 1.893 0c.628.088 1.256.2 1.885.277s1.263-.006 1.894 0 1.263-.027 1.9-.082a1.2 1.2 0 0 1 .208 2.39h-.286l-3.79.07a8.593 8.593 0 0 1-1.887-.236 14.426 14.426 0 0 0-1.89-.125c-2.522-.108-5.046-.136-7.572-.126a16.944 16.944 0 0 1-3.79.09c-.63-.12-1.252-.36-1.88-.466a1.646 1.646 0 0 0-.47-.063 2.227 2.227 0 0 1-.477.083c-.314-.044-.63-.078-.942-.146a10.178 10.178 0 0 0-1.885-.277 15.662 15.662 0 0 1-1.9.23c-1.262 0-2.527.065-3.787-.02a1.2 1.2 0 0 1 .042-2.4zM559.283 75.265a21.942 21.942 0 0 1 5.244.032l.652.114a1.71 1.71 0 0 1 .322.16 1.168 1.168 0 0 0 .326.058c.435.06.873.044 1.31.08.872.034 1.733.445 2.606.49 1.747.03 3.505-.26 5.257-.37a6.278 6.278 0 0 1 1.313-.016c.435.082.868.19 1.3.258a15.316 15.316 0 0 0 2.626-.12 1.2 1.2 0 0 1 .304 2.378c-.034 0-.068.007-.1.01l-.282.01-2.626.107a4.19 4.19 0 0 1-1.3-.217 6.924 6.924 0 0 0-1.308-.106c-1.746-.082-3.494-.086-5.244-.05a8.185 8.185 0 0 1-2.626.125c-.433-.116-.863-.34-1.3-.453a.9.9 0 0 0-.326-.05 1.14 1.14 0 0 1-.33.085 6.252 6.252 0 0 1-.652-.138 4.674 4.674 0 0 0-1.3-.258c-.438.03-.884.3-1.32.255a21.6 21.6 0 0 1-2.623.012 1.2 1.2 0 0 1 .02-2.4z" fill="#3e4166"/><path fill="#3e4166" stroke="#3e4166" stroke-linecap="round" stroke-linejoin="round" d="M513.28 206.794l6.803-10.01 4.84 10.39-11.643-.38z"/><circle cx="535.955" cy="202.493" r="4.919" transform="rotate(-88.13 535.956 202.492)" fill="#3e4166" stroke="#3e4166" stroke-linecap="round" stroke-linejoin="round"/><path fill="#3e4166" stroke="#3e4166" stroke-linecap="round" stroke-linejoin="round" d="M547.716 197.532l10.086.333-.333 10.086-10.087-.332z" stroke-width=".99954"/><path d="M216.882 60.736l143.7-14.188s22.81 185.358 21.21 186.917l-143.16 14.083z" fill="#fff"/><path d="M215.947 59.983l72.122-7.568 36.176-3.708q18.1-1.83 36.2-3.545h.013a1.387 1.387 0 0 1 1.505 1.217c1.838 15.572 3.75 31.135 5.48 46.72.427 3.9.822 7.8 1.283 11.692l1.384 11.68 2.746 23.36 2.71 23.364 2.54 23.385 2.448 23.4 1.148 11.71.508 5.868.207 2.945.07 1.486.01.76-.013.4c0 .07-.01.142-.023.232a1.32 1.32 0 0 1-.03.156.763.763 0 0 1-.205.376.5.5 0 0 1-.327.17h-.05l-35.782 3.6-35.78 3.628-71.555 7.285a1.048 1.048 0 0 1-1.146-.917v-.008l-5.615-46.916-5.23-46.9-2.622-23.43-2.74-23.477zm1.87 1.506l11.266 93.035 5.268 46.406 5.46 46.48-1.292-1.04 143.15-14.182-.77.36c-.347.392-.276.473-.312.517-.01.037-.01.055-.01.044l.006-.08.006-.295-.016-.684-.08-1.43-.23-2.906-.556-5.835-1.248-11.68-2.658-23.36-2.736-23.355-2.572-23.376-2.57-23.38-1.29-11.688c-.434-3.9-.965-7.78-1.452-11.67-1.926-15.56-3.593-31.15-5.47-46.717l.96.77-17.9 1.688-17.85 1.874-17.815 1.882-17.85 1.745z" fill="#3e4166"/><path d="M215.947 59.983l72.122-7.568 36.176-3.708q18.1-1.83 36.2-3.545h.013a1.387 1.387 0 0 1 1.505 1.217c1.838 15.572 3.75 31.135 5.48 46.72.427 3.9.822 7.8 1.283 11.692l1.384 11.68 2.746 23.36 2.71 23.364 2.54 23.385 2.448 23.4 1.148 11.71.508 5.868.207 2.945.07 1.486.01.76-.013.4c0 .07-.01.142-.023.232a1.32 1.32 0 0 1-.03.156.763.763 0 0 1-.205.376.5.5 0 0 1-.327.17h-.05l-35.782 3.6-35.78 3.628-71.555 7.285a1.048 1.048 0 0 1-1.146-.917v-.008l-5.615-46.916-5.23-46.9-2.622-23.43-2.74-23.477zm1.87 1.506l11.266 93.035 5.268 46.406 5.46 46.48-1.292-1.04 143.15-14.182-.77.36c-.347.392-.276.473-.312.517-.01.037-.01.055-.01.044l.006-.08.006-.295-.016-.684-.08-1.43-.23-2.906-.556-5.835-1.248-11.68-2.658-23.36-2.736-23.355-2.572-23.376-2.57-23.38-1.29-11.688c-.434-3.9-.965-7.78-1.452-11.67-1.926-15.56-3.593-31.15-5.47-46.717l.96.77-17.9 1.688-17.85 1.874-17.815 1.882-17.85 1.745z" fill="#3e4166"/><path d="M239.038 245.954c16.136.3 28.055-15.748 31.864-31.43s2.524-32.373 7.31-47.786c4.07-13.112 12.264-24.465 19.132-36.353s12.625-25.3 11.02-38.935c-.8-6.827-3.42-13.306-4.767-20.046s-1.244-14.288 2.842-19.817l54.145-5.04 20.373 186.59z" fill="#f2f3f4"/><path d="M215.947 59.983l72.122-7.568 36.176-3.708q18.1-1.83 36.2-3.545h.013a1.387 1.387 0 0 1 1.505 1.217c1.838 15.572 3.75 31.135 5.48 46.72.427 3.9.822 7.8 1.283 11.692l1.384 11.68 2.746 23.36 2.71 23.364 2.54 23.385 2.448 23.4 1.148 11.71.508 5.868.207 2.945.07 1.486.01.76-.013.4c0 .07-.01.142-.023.232a1.32 1.32 0 0 1-.03.156.763.763 0 0 1-.205.376.5.5 0 0 1-.327.17h-.05l-35.782 3.6-35.78 3.628-71.555 7.285a1.048 1.048 0 0 1-1.146-.917v-.008l-5.615-46.916-5.23-46.9-2.622-23.43-2.74-23.477zm1.87 1.506l11.266 93.035 5.268 46.406 5.46 46.48-1.292-1.04 143.15-14.182-.77.36c-.347.392-.276.473-.312.517-.01.037-.01.055-.01.044l.006-.08.006-.295-.016-.684-.08-1.43-.23-2.906-.556-5.835-1.248-11.68-2.658-23.36-2.736-23.355-2.572-23.376-2.57-23.38-1.29-11.688c-.434-3.9-.965-7.78-1.452-11.67-1.926-15.56-3.593-31.15-5.47-46.717l.96.77-17.9 1.688-17.85 1.874-17.815 1.882-17.85 1.745z" fill="#3e4166"/><path d="M248.592 214.7c5.77-.463 7.248-12.49 9.294-18.06 1.563-4.255 5.443-6.634 9.155-3.346 3.558 3.154 1.994 2.52 4.452 6.376 4.83 7.574 10.32.57 11.508-5.8 2.26-12.117 5.28-31.605 14.01-32.166s8.593 17.573 10.375 28.744c.554 3.47 2.59 8.025 5.978 7.093a5.328 5.328 0 0 0 2.24-1.484c6.143-6.1 8-12.257 14.565-12.783s2.792 19.793 12.936 19.675c7.913-.092 7.637-9.57 11.585-9.887l.86 10.725-107.245 10.583z" fill="#b9e2e4"/><path d="M248.453 212.906a3.076 3.076 0 0 0 1.832-.94 8.884 8.884 0 0 0 1.527-2.19 31.562 31.562 0 0 0 2.094-5.677l1.666-6.187a19.98 19.98 0 0 1 1.192-3.314 9.723 9.723 0 0 1 2.374-3.108 6.742 6.742 0 0 1 3.993-1.663 6.907 6.907 0 0 1 4.153 1.2 11.893 11.893 0 0 1 1.486 1.188 14.89 14.89 0 0 1 1.275 1.285 8.535 8.535 0 0 1 1.164 1.71 17.23 17.23 0 0 1 .68 1.656 13.55 13.55 0 0 0 1.284 2.5 7.365 7.365 0 0 0 1.632 1.9 2.018 2.018 0 0 0 1.533.55 3.363 3.363 0 0 0 1.757-.98 12.007 12.007 0 0 0 2.8-4.714 19.68 19.68 0 0 0 .713-2.888c.186-1.047.48-2.078.73-3.12.554-2.07.868-4.193 1.34-6.292.443-2.1.925-4.206 1.476-6.3 1.12-4.17 2.4-8.4 4.952-12.178a13.84 13.84 0 0 1 2.274-2.62 7.865 7.865 0 0 1 3.18-1.753 6.46 6.46 0 0 1 3.68.115 6.565 6.565 0 0 1 2.963 2.092 12.61 12.61 0 0 1 1.75 2.945 23.856 23.856 0 0 1 1.138 3.114 53.952 53.952 0 0 1 1.39 6.36c.7 4.254 1.115 8.52 1.73 12.7.166 1.045.3 2.1.548 3.032a12.254 12.254 0 0 0 1.038 2.723 5.3 5.3 0 0 0 1.625 1.965 1.82 1.82 0 0 0 1.826.146 7.064 7.064 0 0 0 1.99-1.72c.7-.756 1.367-1.543 2.017-2.355 1.307-1.62 2.515-3.35 3.9-5.083a22.154 22.154 0 0 1 2.34-2.53 10.435 10.435 0 0 1 3.1-2 10.083 10.083 0 0 1 1.8-.565c.306-.076.614-.112.92-.164l.46-.048a5.073 5.073 0 0 1 .522-.034 4.046 4.046 0 0 1 2.42.736 5.273 5.273 0 0 1 1.486 1.668 13.464 13.464 0 0 1 1.28 3.364c.28 1.09.5 2.154.712 3.205a45.31 45.31 0 0 0 1.5 6.046c.67 1.87 1.672 3.59 3.085 4.34a4.587 4.587 0 0 0 2.387.507 6.62 6.62 0 0 0 2.548-.572A8.834 8.834 0 0 0 349.4 197c.5-.89.956-1.85 1.583-2.868a7.663 7.663 0 0 1 1.238-1.568 4.013 4.013 0 0 1 2.35-1.105 1.594 1.594 0 0 1 .453 3.148l-.2.04a.9.9 0 0 0-.46.272 4.87 4.87 0 0 0-.718.934c-.5.79-.973 1.753-1.527 2.724a16.854 16.854 0 0 1-2.018 2.915 9.54 9.54 0 0 1-3.083 2.34 9.787 9.787 0 0 1-3.783.853 7.72 7.72 0 0 1-3.985-.9 8.422 8.422 0 0 1-2.92-2.77 15.17 15.17 0 0 1-1.6-3.252 53.336 53.336 0 0 1-1.682-6.414c-.223-1.037-.473-2.046-.714-3.01a11.025 11.025 0 0 0-.912-2.55 2.315 2.315 0 0 0-.537-.68.754.754 0 0 0-.512-.18 1.84 1.84 0 0 0-.27.013l-.336.027c-.218.035-.442.053-.655.1a6.87 6.87 0 0 0-1.257.366 11.164 11.164 0 0 0-4.322 3.575c-1.305 1.58-2.573 3.33-3.975 5.016-.7.844-1.43 1.676-2.2 2.48a9.337 9.337 0 0 1-3.01 2.36 4.9 4.9 0 0 1-2.335.36 4.8 4.8 0 0 1-2.22-.825 8.08 8.08 0 0 1-2.525-3.05 15.3 15.3 0 0 1-1.213-3.35c-.287-1.18-.407-2.252-.565-3.32-.58-4.287-.945-8.53-1.583-12.677a51.417 51.417 0 0 0-1.252-6.064 13.01 13.01 0 0 0-2.42-5.085 3.818 3.818 0 0 0-1.8-1.2 3.745 3.745 0 0 0-2.09.065 7.27 7.27 0 0 0-3.562 3.37 29.21 29.21 0 0 0-2.53 5.365c-.743 1.9-1.35 3.89-1.99 5.884a92.737 92.737 0 0 0-3.016 12.323 27.992 27.992 0 0 1-.515 3.16 23.562 23.562 0 0 1-.858 3.276 14.943 14.943 0 0 1-3.66 5.92 6.6 6.6 0 0 1-3.42 1.774 4.985 4.985 0 0 1-3.8-1.123 10.76 10.76 0 0 1-2.4-2.644 17.208 17.208 0 0 1-1.705-2.986 6.79 6.79 0 0 0-1.375-2.338 15.57 15.57 0 0 0-2.1-1.864 3.183 3.183 0 0 0-4.135.228 6.45 6.45 0 0 0-1.546 2.053 17.3 17.3 0 0 0-.977 2.748l-1.68 6.175a32.37 32.37 0 0 1-2.384 6.28 11.97 11.97 0 0 1-2.174 2.988 7.438 7.438 0 0 1-1.695 1.2 6.225 6.225 0 0 1-2.117.59 1.6 1.6 0 0 1-.32-3.184z" fill="#46bfbf"/><circle cx="297.08" cy="161.839" r="3.735" transform="rotate(-4.6 297.076 161.842)" fill="#fff"/><path d="M302 161.445a5.053 5.053 0 0 1-.99 3.74 4.416 4.416 0 0 1-3.523 1.713 5.165 5.165 0 0 1-.983-.11 2.33 2.33 0 0 1-.45-.227 3.2 3.2 0 0 0-.445-.167 5.29 5.29 0 0 1-1.606-.94 3.45 3.45 0 0 1-.976-1.54 8.06 8.06 0 0 1-.275-1.726 4.9 4.9 0 0 1 .858-3.3 4.556 4.556 0 0 1 3.08-1.914 3.644 3.644 0 0 1 1.913.166 5.1 5.1 0 0 1 1.544 1.1 5.335 5.335 0 0 1 1.853 3.205zm-2.392.192a2.484 2.484 0 0 0-1.008-1.58c-.247-.18-.47-.4-.745-.61a1.59 1.59 0 0 0-.98-.178 2.413 2.413 0 0 0-2.244 2.767 1.783 1.783 0 0 0 .454.824 4.5 4.5 0 0 1 .54.69 2.32 2.32 0 0 0 .64.82c.08.036.152.108.243.106s.19-.07.272-.053c.165.05.336.076.52.125a1.57 1.57 0 0 0 1.116-.1c.334-.22.434-.672.67-.9a2.77 2.77 0 0 0 .52-1.91z" fill="#46bfbf"/><circle cx="329.346" cy="184.251" r="3.735" transform="rotate(-4.6 329.335 184.245)" fill="#fff"/><path d="M334.265 183.856a5.053 5.053 0 0 1-.99 3.74 4.416 4.416 0 0 1-3.523 1.713 5.16 5.16 0 0 1-.983-.11 2.34 2.34 0 0 1-.452-.228 3.177 3.177 0 0 0-.444-.168 5.294 5.294 0 0 1-1.605-.94 3.45 3.45 0 0 1-.977-1.54 8.077 8.077 0 0 1-.275-1.726 4.9 4.9 0 0 1 .858-3.3 4.556 4.556 0 0 1 3.08-1.914 3.645 3.645 0 0 1 1.913.166 5.1 5.1 0 0 1 1.543 1.1 5.336 5.336 0 0 1 1.852 3.206zm-2.392.192a2.485 2.485 0 0 0-1.008-1.58c-.248-.18-.47-.4-.745-.61a1.59 1.59 0 0 0-.98-.178 2.414 2.414 0 0 0-2.244 2.768 1.783 1.783 0 0 0 .453.824 4.5 4.5 0 0 1 .54.69 2.32 2.32 0 0 0 .64.818c.078.037.15.11.242.107s.19-.07.27-.053c.167.05.338.076.52.125a1.57 1.57 0 0 0 1.118-.1c.334-.222.434-.673.672-.9a2.772 2.772 0 0 0 .52-1.912z" fill="#46bfbf"/><path fill="#fff" d="M302.822 149.19l-2.896.234-3.9 5.876-5.972-5.084-45.673 3.663-2.702-33.697 58.44-4.687 2.704 33.695"/><path d="M303.735 149.97a20.815 20.815 0 0 1-3.71.678l.924-.545-3.863 5.9a1.267 1.267 0 0 1-1.753.366 1.31 1.31 0 0 1-.116-.086l-.018-.015-6-5.047.964.312-11.41 1.027-11.417.926-11.43.78c-1.905.113-3.806.3-5.717.35l-2.865.1-2.856.21h-.014a1.045 1.045 0 0 1-1.12-.967l-.635-8.426c-.2-2.81-.458-5.615-.593-8.43l-.486-8.44-.56-8.432v-.01a.623.623 0 0 1 .574-.662c4.87-.38 9.733-.868 14.6-1.3l14.6-1.333 14.595-1.364c4.865-.445 9.726-.952 14.6-1.258h.044a1.166 1.166 0 0 1 1.237 1.09l.513 8.63c.167 2.87.375 5.738.62 8.627.457 5.773.888 11.555 1.292 17.317zm-1.827-1.557l-1.72-16.484c-.285-2.73-.53-5.443-.764-8.16-.27-2.718-.373-5.433-.545-8.175l1.34 1.14c-4.88.265-9.747.713-14.617 1.1l-14.608 1.2-14.608 1.2-14.606 1.222 1.177-1.38q.84 8.41 1.594 16.827c.138 1.4.255 2.806.33 4.213s.186 2.81.237 4.22l.385 8.447-1.21-1.03 2.862-.14c.953-.062 1.9-.208 2.85-.3 1.9-.217 3.81-.246 5.714-.38l11.436-.7c1.9-.143 3.8-.354 5.7-.586 1.9-.2 3.794-.46 5.7-.61l11.414-.97a1.124 1.124 0 0 1 .82.26l.01.01 5.988 5.065-1.725.243 3.883-5.89a1.175 1.175 0 0 1 .855-.522h.04a7.04 7.04 0 0 1 2.07.18z" fill="#3e4166"/><path fill="#fff" d="M322.658 173.53l2.223-.178 3.678 3.978 3.905-4.586 35.078-2.813-2.074-25.878-44.884 3.6 2.076 25.88"/><path d="M323.436 172.617a3.756 3.756 0 0 1 1.348-.49 1.26 1.26 0 0 1 1 .392l3.71 3.946-1.905.04 3.865-4.62a1.293 1.293 0 0 1 .87-.46h.032l8.76-.813 8.77-.713 8.78-.568c1.465-.083 2.926-.215 4.393-.258a42.08 42.08 0 0 0 4.4-.19l-.965 1.133-.478-6.473c-.145-2.16-.354-4.312-.438-6.476l-.326-6.485-.164-3.243-.234-3.237.66.563c-3.74.31-7.472.693-11.21 1.035l-11.206 1.06-11.205 1.092c-3.736.355-7.467.77-11.214.986l1.093-1.282.324 6.292c.106 2.1.253 4.2.427 6.282zm-1.556 1.827l-1.46-13.24c-.244-2.225-.452-4.472-.65-6.717-.23-2.24-.3-4.506-.43-6.736v-.067a1.2 1.2 0 0 1 1.13-1.27h.016c3.75-.174 7.486-.532 11.226-.833l11.22-.93 11.218-.928c3.74-.32 7.48-.6 11.217-.95a1.265 1.265 0 0 1 1.376 1.13v.047l.667 6.457c.227 2.152.467 4.3.63 6.46.1 1.078.182 2.157.234 3.238s.134 2.16.158 3.243c.088 2.163.1 4.333.213 6.494v.07a1.07 1.07 0 0 1-1.015 1.123h-.005l-2.2.1c-.732.047-1.458.166-2.186.264-1.46.147-2.93.166-4.393.256-2.93.153-5.863.26-8.787.48-2.926.2-5.823.762-8.747.988l-8.763.782.8-.407-3.878 4.608a1.2 1.2 0 0 1-1.686.145 1.22 1.22 0 0 1-.1-.1l-.01-.01L324 174.17l.98.383a13.94 13.94 0 0 1-3.1-.11zM244.244 214.028c9.78-1.116 19.54-2.422 29.364-3.108l3.68-.3c.613-.04 1.233-.025 1.85-.038s1.228-.09 1.84-.145l7.35-.69c4.9-.5 9.83-.614 14.727-1.11 9.78-1.114 19.552-2.3 29.323-3.5 2.443-.3 4.883-.627 7.337-.81l7.364-.55c2.452-.2 4.89-.542 7.337-.8s4.89-.565 7.33-.89a1.2 1.2 0 0 1 .316 2.38h-.017l-.057.005c-4.89.554-9.777 1.15-14.67 1.67-1.226.116-2.447.275-3.675.354l-3.685.246c-2.458.15-4.9.436-7.35.69l-29.365 3.1c-4.885.6-9.753 1.377-14.668 1.693-2.457.16-4.928.183-7.385.35-.615.036-1.23.06-1.84.14s-1.215.224-1.828.28l-3.685.248c-2.458.16-4.918.286-7.365.552-1.223.13-2.438.345-3.654.548s-2.436.354-3.66.485c-4.892.535-9.777 1.142-14.677 1.6a1.2 1.2 0 0 1-.243-2.388zM246.7 125.163a98.216 98.216 0 0 1 10.842-1.087l1.365-.026a6.132 6.132 0 0 1 .69.09 4.52 4.52 0 0 0 .683-.02l2.72-.18c1.807-.18 3.652.07 5.46-.09 3.616-.332 7.2-1 10.807-1.48a26.976 26.976 0 0 1 2.708-.3c.91-.016 1.824.01 2.732-.03s1.805-.2 2.708-.294 1.8-.224 2.7-.38a1.2 1.2 0 0 1 .407 2.366l-.052.008-.146.018-5.41.666a17.654 17.654 0 0 1-2.73.063c-.912-.014-1.812.105-2.718.174-3.62.292-7.233.66-10.843 1.07a35.016 35.016 0 0 1-5.41.68c-.91-.01-1.835-.157-2.747-.16a3.536 3.536 0 0 0-.682.01 4.442 4.442 0 0 1-.67.154c-.455.01-.91.023-1.367.006a19.472 19.472 0 0 0-2.732.028 8.592 8.592 0 0 0-1.34.294 8.953 8.953 0 0 1-1.348.23c-1.806.195-3.605.462-5.418.577a1.2 1.2 0 0 1-.227-2.39zM234.75 95.124c9.16-.963 18.304-2.117 27.506-2.65l3.446-.242c.575-.03 1.156-.006 1.734-.01s1.15-.07 1.724-.117l6.885-.576c4.586-.42 9.208-.46 13.794-.88 9.16-.962 18.315-2 27.47-3.048 2.288-.258 4.573-.55 6.873-.7l6.9-.435c2.3-.158 4.582-.464 6.874-.69s4.58-.488 6.866-.774a1.2 1.2 0 1 1 .3 2.38h-.02l-.06.007c-4.58.478-9.157 1-13.742 1.442-1.146.1-2.29.236-3.44.3l-3.452.19c-2.3.11-4.592.36-6.885.574l-27.507 2.64c-4.577.527-9.137 1.226-13.74 1.465-2.3.122-4.615.108-6.916.236-.576.026-1.152.04-1.724.11s-1.137.2-1.71.253l-3.452.188c-2.3.122-4.606.21-6.9.438-1.146.11-2.284.307-3.424.49s-2.283.317-3.43.43c-4.582.457-9.158.988-13.748 1.367a1.2 1.2 0 0 1-.22-2.39zM247.267 132.27a40.52 40.52 0 0 1 7.09-.785l.9.01a2.886 2.886 0 0 1 .458.11 2.248 2.248 0 0 0 .448.006c.6-.01 1.185-.09 1.78-.11 1.182-.13 2.4.163 3.587.067 2.365-.245 4.7-.8 7.053-1.187a11.574 11.574 0 0 1 1.77-.22c.6.013 1.2.054 1.8.053s1.18-.154 1.77-.225 1.178-.174 1.763-.3a1.2 1.2 0 1 1 .518 2.343l-.083.016-.217.032-3.534.515a7.64 7.64 0 0 1-1.793-.012 12.794 12.794 0 0 0-1.78.1c-2.37.19-4.733.46-7.092.77a15.048 15.048 0 0 1-3.532.533c-.6-.044-1.213-.21-1.812-.24a1.463 1.463 0 0 0-.447-.007 1.984 1.984 0 0 1-.435.137c-.3-.006-.6 0-.9-.034a9.037 9.037 0 0 0-1.8-.053 13.926 13.926 0 0 1-1.75.454c-1.18.145-2.353.363-3.54.428a1.2 1.2 0 0 1-.257-2.384zM247.842 139.378a98.22 98.22 0 0 1 10.842-1.087l1.365-.026a6.16 6.16 0 0 1 .69.09 4.52 4.52 0 0 0 .682-.02l2.72-.18c1.806-.18 3.65.07 5.46-.09 3.615-.332 7.2-1 10.806-1.48a26.953 26.953 0 0 1 2.708-.3c.91-.016 1.823.01 2.73-.03s1.806-.2 2.71-.294 1.8-.224 2.7-.38a1.2 1.2 0 1 1 .406 2.366l-.052.008-.146.018-5.41.666a17.667 17.667 0 0 1-2.73.063c-.912-.013-1.813.106-2.718.175-3.62.29-7.233.66-10.843 1.07a35.028 35.028 0 0 1-5.41.68c-.91-.012-1.835-.158-2.747-.162a3.537 3.537 0 0 0-.682.012 4.435 4.435 0 0 1-.67.153c-.455.01-.91.023-1.366.006a19.49 19.49 0 0 0-2.732.028 8.616 8.616 0 0 0-1.342.294 8.938 8.938 0 0 1-1.347.23c-1.806.195-3.605.462-5.418.577a1.2 1.2 0 0 1-.227-2.39z" fill="#3e4166"/><path d="M325.1 151.462a64.663 64.663 0 0 1 8.782-.986l1.108-.014a4.2 4.2 0 0 1 .564.1 2.982 2.982 0 0 0 .554-.012l2.2-.156c1.464-.163 2.97.1 4.435-.038 2.93-.3 5.828-.933 8.744-1.38a17.736 17.736 0 0 1 2.193-.27c.74-.007 1.482.026 2.22 0s1.46-.185 2.192-.27 1.46-.208 2.185-.354a1.2 1.2 0 0 1 .473 2.353l-.066.01-.177.026-4.38.616a11.665 11.665 0 0 1-2.214.038 19.608 19.608 0 0 0-2.205.148c-2.934.257-5.86.593-8.783.967a23.075 23.075 0 0 1-4.378.628c-.74-.02-1.5-.174-2.237-.186a2.336 2.336 0 0 0-.554.006 2.96 2.96 0 0 1-.54.147c-.37.006-.74.014-1.11-.007a12.876 12.876 0 0 0-2.22 0 5.746 5.746 0 0 0-1.083.28 5.917 5.917 0 0 1-1.09.218c-1.46.178-2.917.428-4.387.526a1.2 1.2 0 0 1-.25-2.386zM325.627 158.573a26.69 26.69 0 0 1 5.74-.72l.73.02a1.992 1.992 0 0 1 .375.112 1.413 1.413 0 0 0 .365.01c.484 0 .96-.08 1.443-.107.96-.092 1.957.192 2.918.112 1.916-.223 3.8-.76 5.7-1.12a7.623 7.623 0 0 1 1.433-.2c.488.018.977.064 1.46.068a18.618 18.618 0 0 0 2.858-.5 1.2 1.2 0 0 1 .584 2.326l-.09.02-.253.042-2.86.482a5.08 5.08 0 0 1-1.455-.028 8.42 8.42 0 0 0-1.445.082c-1.92.168-3.834.416-5.743.7a9.94 9.94 0 0 1-2.856.5c-.49-.053-.99-.213-1.48-.264a1.094 1.094 0 0 0-.363 0 1.358 1.358 0 0 1-.35.133c-.243-.008-.486-.008-.73-.04a5.65 5.65 0 0 0-1.46-.07 9.982 9.982 0 0 1-1.41.442 26.254 26.254 0 0 1-2.868.39 1.2 1.2 0 0 1-.295-2.38zM235.96 87.252a23.917 23.917 0 0 0 7.113-4.5 26.43 26.43 0 0 0 5.182-6.6 26.06 26.06 0 0 0 1.735-3.82 6.365 6.365 0 0 0 .472-1.72.787.787 0 0 0-.393-.78 2.634 2.634 0 0 0-1.42-.4 3.094 3.094 0 0 0-1.72.22 6.624 6.624 0 0 0-2.776 2.58 9.82 9.82 0 0 0-1.388 3.764 11.792 11.792 0 0 0 0 4.11 7.557 7.557 0 0 0 1.71 3.662 7.312 7.312 0 0 0 3.487 2.12 8.97 8.97 0 0 0 4.1.19 8.76 8.76 0 0 0 3.69-1.7 10.91 10.91 0 0 0 4.014-6.965L261 78.568a1.26 1.26 0 0 0-.767.757 2.2 2.2 0 0 0-.11 1.322 2.3 2.3 0 0 0 2.014 1.582 5.268 5.268 0 0 0 3.172-.514 17.1 17.1 0 0 0 3.208-2.056l.105-.08a1 1 0 0 1 1.588 1.006.81.81 0 0 0 .238.69 1.816 1.816 0 0 0 .868.538 5.54 5.54 0 0 0 2.667-.343c2.058-.626 4.136-1.22 6.19-1.88a1.12 1.12 0 0 1 1.41.725 1.107 1.107 0 0 1 .043.2l.01.08.187 1.512a1.2 1.2 0 1 1-2.382.3v-.01l-.006-.062-.165-1.514 1.55 1.065-6.2 1.863a7.506 7.506 0 0 1-3.876.36 4.167 4.167 0 0 1-2.056-1.226 3.283 3.283 0 0 1-.884-2.55l2.237 1.22a16.907 16.907 0 0 1-3.65 2.355 8.365 8.365 0 0 1-2.273.7 7.636 7.636 0 0 1-2.453-.055 5.29 5.29 0 0 1-2.342-1.085 4.08 4.08 0 0 1-1.437-2.374 4.44 4.44 0 0 1 .32-2.715 3.47 3.47 0 0 1 2.273-1.94 1.19 1.19 0 0 1 1.438.874 1.216 1.216 0 0 1 .016.487 13.11 13.11 0 0 1-4.97 8.222 10.756 10.756 0 0 1-4.573 2 10.9 10.9 0 0 1-4.985-.317 10.585 10.585 0 0 1-4.375-2.573 9.94 9.94 0 0 1-2.506-4.488 12.422 12.422 0 0 1-.258-4.984 10.927 10.927 0 0 1 1.89-4.654 9.376 9.376 0 0 1 3.9-3.266 7.92 7.92 0 0 1 2.588-.655 4.532 4.532 0 0 1 2.708.783 3.322 3.322 0 0 1 1.075 1.184 3.092 3.092 0 0 1 .348 1.562 7.42 7.42 0 0 1-.64 2.438 40.09 40.09 0 0 1-1.857 4.217 21.9 21.9 0 0 1-5.543 7.37 27.52 27.52 0 0 1-3.718 2.808 25.715 25.715 0 0 1-4.2 2.06 1.2 1.2 0 0 1-.89-2.228z" fill="#3e4166"/><path d="M333.2 37.23l159.69-2.9s8.71 206.382 6.81 207.96l-159.084 2.83z" fill="#fff"/><path d="M332.327 36.405l80.154-1.9 40.187-.865q20.1-.41 40.2-.7h.012a1.388 1.388 0 0 1 1.404 1.334c.653 17.332 1.38 34.66 1.92 52l.39 13 .493 13 .96 26 .918 26 .743 26.006.637 26.012.232 13.012.042 6.512-.033 3.264-.054 1.643-.055.836-.05.438c-.01.077-.023.155-.045.25a1.444 1.444 0 0 1-.045.16.782.782 0 0 1-.24.368.5.5 0 0 1-.337.143h-.05l-79.538 1.6-79.537 1.66a1.048 1.048 0 0 1-1.07-1.006v-.007l-2.012-52.2-1.633-52.167-.824-26.057-.937-26.112zm1.742 1.65l4.13 103.61 1.708 51.662 1.893 51.752-1.2-1.142 159.083-2.93-.8.3c-.374.36-.31.444-.347.482-.012.034-.014.048-.01.034l.014-.1.034-.332.043-.76.04-1.59.005-3.226-.093-6.485-.335-12.988-.852-25.99-.94-25.992-.78-26-.782-26-.4-13c-.135-4.333-.37-8.663-.56-12.995-.738-17.326-1.217-34.663-1.91-51.99l.9.844-19.89.28-19.857.472-19.823.483-19.846.344z" fill="#3e4166"/><path d="M370.862 35.85c-14.534 8.1-20.656 26.52-19.262 43.1s8.822 31.95 15.625 47.137 13.213 31.242 12.373 47.86c-.638 12.606-5.43 24.655-6.864 37.2s1.6 27.058 12.39 33.608l-44.508.37L333.2 37.232z" fill="#f4f6f8"/><path d="M371.172 130.412c7.06-3.356 15.25-24.15 18.9-31.062s9.293-14.177 17.108-14.318c9.9-.18 15.694 10.545 21.358 18.665a63.182 63.182 0 0 0 31.41 23.542" fill="#b9e2e4"/><path d="M350.27 141.12a48.61 48.61 0 0 0 10.3-15.533c1.775-4.292 2.977-8.924 5.8-12.614s7.964-6.194 12.167-4.22c5.28 2.48 5.81 9.9 9.854 14.1 5.136 5.336 14.483 3.7 20.11-1.11s8.728-11.847 12.583-18.17c3.31-5.43 7.39-10.556 12.77-13.952s12.224-4.87 18.236-2.79c10.45 3.612 14.747 15.777 17.693 26.435 1.59 5.747 5.97 18.9 11.228 23.868z" fill="#46bfbf"/><path d="M345.423 140.9c11.436-.534 22.866-1.26 34.318-1.362l4.294-.082c.716 0 1.434.048 2.15.072s1.432-.016 2.148-.036l8.583-.254c5.72-.2 11.455-.03 17.175-.234 11.437-.532 22.87-1.14 34.3-1.76 2.858-.152 5.716-.338 8.578-.375l8.588-.114c2.862-.05 5.72-.25 8.578-.368s5.718-.274 8.576-.453a1.2 1.2 0 0 1 .15 2.4h-.063l-17.156.8c-1.43.042-2.858.13-4.29.134l-4.295.027c-2.864 0-5.723.145-8.583.253l-34.314 1.35c-5.717.313-11.427.8-17.154.822-2.864.014-5.732-.11-8.595-.088-.717 0-1.433-.013-2.148.03s-1.427.15-2.142.172l-4.295.028c-2.864.014-5.728-.006-8.588.115-1.43.057-2.857.2-4.284.33s-2.856.21-4.286.267c-5.72.244-11.436.56-17.157.724a1.2 1.2 0 0 1-.087-2.4zM345.386 65.1c6.328-.352 12.648-.9 18.992-.817l2.377-.014c.4.007.8.07 1.193.105s.793.007 1.19 0l4.75-.118c3.166-.114 6.346.153 9.512.038 6.33-.267 12.65-.81 18.977-1.216 1.582-.1 3.16-.256 4.746-.25s3.172.053 4.757.035 3.165-.16 4.747-.23 3.164-.184 4.744-.317a1.2 1.2 0 1 1 .2 2.392h-.113c-3.164.173-6.326.388-9.49.526-.793.02-1.583.083-2.376.066l-2.38-.05c-1.586-.04-3.167.07-4.75.126l-18.992.8c-3.163.2-6.317.643-9.49.555-1.586-.032-3.177-.2-4.763-.225a10.677 10.677 0 0 0-1.19 0c-.394.045-.787.128-1.183.138l-2.38-.04c-1.585-.03-3.173-.1-4.755-.02-.79.034-1.58.153-2.368.262s-1.58.164-2.37.2c-3.166.153-6.328.38-9.495.452a1.2 1.2 0 0 1-.1-2.4zM345.422 55.895c4.958-.3 9.91-.8 14.884-.666l1.864.004c.31.01.624.077.936.115a8.448 8.448 0 0 0 .932.006l3.724-.08c2.48-.113 4.977.2 7.458.114 4.96-.217 9.913-.71 14.87-1.065 1.238-.085 2.475-.23 3.718-.21s2.488.077 3.73.07 2.48-.133 3.72-.193 2.48-.158 3.717-.28a1.2 1.2 0 0 1 .234 2.39h-.038l-.11.007-7.436.464a36.265 36.265 0 0 1-3.73-.038c-1.243-.052-2.482.046-3.723.09l-14.884.65a65.334 65.334 0 0 1-7.437.48c-1.244-.045-2.493-.226-3.737-.263a6.586 6.586 0 0 0-.932-.013 8.153 8.153 0 0 1-.927.128c-.622-.007-1.243-.01-1.865-.045a36.25 36.25 0 0 0-3.73-.073 15.865 15.865 0 0 0-1.854.244 16.65 16.65 0 0 1-1.857.18c-2.48.128-4.957.33-7.44.376a1.2 1.2 0 0 1-.1-2.4z" fill="#3e4166"/><path d="M332.327 36.405l80.154-1.9 40.187-.865q20.1-.41 40.2-.7h.012a1.388 1.388 0 0 1 1.404 1.334c.653 17.332 1.38 34.66 1.92 52l.39 13 .493 13 .96 26 .918 26 .743 26.006.637 26.012.232 13.012.042 6.512-.033 3.264-.054 1.643-.055.836-.05.438c-.01.077-.023.155-.045.25a1.444 1.444 0 0 1-.045.16.782.782 0 0 1-.24.368.5.5 0 0 1-.337.143h-.05l-79.538 1.6-79.537 1.66a1.048 1.048 0 0 1-1.07-1.006v-.007l-2.012-52.2-1.633-52.167-.824-26.057-.937-26.112zm1.742 1.65l4.13 103.61 1.708 51.662 1.893 51.752-1.2-1.142 159.083-2.93-.8.3c-.374.36-.31.444-.347.482-.012.034-.014.048-.01.034l.014-.1.034-.332.043-.76.04-1.59.005-3.226-.093-6.485-.335-12.988-.852-25.99-.94-25.992-.78-26-.782-26-.4-13c-.135-4.333-.37-8.663-.56-12.995-.738-17.326-1.217-34.663-1.91-51.99l.9.844-19.89.28-19.857.472-19.823.483-19.846.344z" fill="#3e4166"/><path d="M465.192 229.058c-.88-5.484-.218-11.054-.2-16.57.015-5.648.17-11.322-.25-16.96-.32-3.97 1.7-3.14 4.77-3.08 4.296.09 2.5 1.77 2.273 5.34a74.81 74.81 0 0 0 .408 12.154c.246 2.472.675 4.924.874 7.4.312 3.872-.48 7.79.127 11.635" fill="#b2e0e1" stroke="#b2e0e1" stroke-miterlimit="10" stroke-width="3"/><path d="M453.016 229.808c-.022-.19-.044-.38-.065-.58-.514-3.953 0-7.954-.37-11.916q-.423-4.446-.733-8.9-.534-7.667-.738-15.352c-.077-2.857 1.692-6.5-2.386-6.62-2.963-.08-4.924-1.04-4.554 3.54a96.127 96.127 0 0 1 .153 13.24 81.533 81.533 0 0 0 .722 11.158c.457 4.97-.483 9.977.237 14.932" fill="#46bfbf" stroke="#46bfbf" stroke-miterlimit="10" stroke-width="3"/><path d="M425.76 229.54c-1.638-5.234-.254-10.71-.754-16.058-.53-5.67-1.32-11.414-1.236-17.124a144.33 144.33 0 0 0-.518-16.43c-.5-5.7 1.53-4.5 4.613-4.37 1.68.07 2.74.537 2.875 2.29a19.55 19.55 0 0 1-.233 2.853 33.877 33.877 0 0 0 .116 4.337l.938 16.683c.24 4.25 1.353 8.47 1.238 12.723-.127 4.737-.624 10.43.9 14.965" fill="#b2e0e1" stroke="#b2e0e1" stroke-miterlimit="10" stroke-width="3"/><path d="M413.346 230.138a2.708 2.708 0 0 0-.07-.41c-.36-2.824.043-5.665.093-8.494.05-2.91-.71-5.624-.98-8.5-.18-1.885.12-3.742.11-5.616-.02-3.018-.446-5.836.05-8.792.35-2.088-.7-2.37-2.727-2.4-3.15-.06-5.226-.8-4.946 2.81a77.626 77.626 0 0 1-.115 10.394 89.343 89.343 0 0 0 .472 10.448c.2 3.41-.737 6.843-.147 10.228" fill="#46bfbf" stroke="#46bfbf" stroke-miterlimit="10" stroke-width="3"/><path d="M384.82 229.683c-.324-1.818.527-3.564.63-5.36.108-1.842-.27-3.7-.275-5.547-.01-3.5.82-6.864.64-10.343-.138-2.51.98-2.48 4.076-2.053.45.062 3.01-.577 3.126.75a8.738 8.738 0 0 1 .044 1.99c-.426 1.67.153 3.346.1 5.026a40.6 40.6 0 0 0-.152 5.632c.36 3.328-.577 6.53-.015 9.825" fill="#b2e0e1" stroke="#b2e0e1" stroke-miterlimit="10" stroke-width="3"/><path d="M366.14 230.13a30.81 30.81 0 0 1 .126-5.75c.342-4.623.627-6.206.807-7.972.172-1.677 2.08-1.37 5.345-1.394a5.98 5.98 0 0 1 1.744.073c1.043.334.8.3.813 1.184.023 1.314-.576 2.874-.7 4.222-.144 1.623.05 4.26-.013 5.887a9.8 9.8 0 0 1 0 2.5c-.324.944-1.173.343-.9 1.334" fill="#46bfbf" stroke="#46bfbf" stroke-miterlimit="10" stroke-width="3"/><path d="M350.91 229.342c11.444-.358 22.884-.91 34.336-.834l4.294-.016c.716.007 1.433.07 2.15.1s1.43.006 2.146 0l8.585-.122c5.724-.117 11.455.147 17.178.03 11.443-.357 22.885-.788 34.326-1.234 2.86-.107 5.72-.25 8.583-.243l8.588.02c2.863-.008 5.722-.163 8.583-.237s5.72-.186 8.58-.32a1.2 1.2 0 1 1 .114 2.4h-.065l-17.165.534c-1.43.02-2.86.085-4.292.068l-4.294-.038c-2.864-.04-5.724.057-8.585.12l-34.334.826c-5.72.224-11.438.622-17.165.558-2.862-.03-5.728-.2-8.592-.22-.716-.012-1.432-.035-2.147 0s-1.428.13-2.143.14l-4.295-.04c-2.863-.03-5.727-.093-8.588-.016-1.43.036-2.86.156-4.29.265s-2.858.165-4.29.2c-5.72.156-11.442.385-17.166.46a1.2 1.2 0 0 1-.05-2.4z" fill="#3e4166"/><path d="M633.2 42.822a17.026 17.026 0 0 1 4.115-3.385l.6-.31a1.65 1.65 0 0 1 .387-.04.923.923 0 0 0 .3-.154c.39-.22.718-.523 1.088-.77.7-.547 1.73-.66 2.442-1.19a49.623 49.623 0 0 0 3.788-3.81 4.648 4.648 0 0 1 1.01-.872c.416-.186.833-.37 1.23-.58a11.954 11.954 0 0 0 1.948-1.837 1.59 1.59 0 1 1 2.413 2.067q-.038.046-.08.088l-.387.386c-.633.633-1.3 1.223-1.958 1.823a3.188 3.188 0 0 1-1.2.625 5.1 5.1 0 0 0-1.108.742c-1.432 1.05-2.792 2.193-4.134 3.36-.64.625-1.062 1.533-1.94 1.848-.434.162-.956.21-1.39.374-.1.05-.227.068-.3.16s-.092.244-.185.305a3.215 3.215 0 0 1-.622.284 3.733 3.733 0 0 0-1.23.582 1.948 1.948 0 0 0-.383.6 1.67 1.67 0 0 1-.434.528 16.747 16.747 0 0 1-2.035 1.723 1.6 1.6 0 0 1-2.02-2.468zM703.774 43.9a5.187 5.187 0 0 1 2.8-.69 3.77 3.77 0 0 1 .377.063c.065.018.143.114.213.167s.126.025.188.03a5.413 5.413 0 0 0 .72-.075c.47-.1 1.04.366 1.512.28a13.84 13.84 0 0 0 2.71-1.228c.23-.066.445-.235.7-.186a7.73 7.73 0 0 0 .758.16 3.66 3.66 0 0 0 1.37-.522 1.56 1.56 0 1 1 1.628 2.665 1.585 1.585 0 0 1-.177.093l-.9.394c-.45.2-.913.345-1.373.5a1.027 1.027 0 0 1-.75-.1c-.26-.095-.484.018-.726.032a19.54 19.54 0 0 0-2.808.663 3.59 3.59 0 0 0-.657.42.837.837 0 0 1-.712.114c-.26-.093-.545-.326-.8-.415-.063-.013-.133-.062-.187-.022s-.094.156-.155.16a1.126 1.126 0 0 1-.38-.09 1.29 1.29 0 0 0-.76-.157c-.115.03-.21.18-.312.3a.594.594 0 0 1-.328.216 4.934 4.934 0 0 1-1.4.38 1.6 1.6 0 0 1-.733-3.08zM637.046 55.656a117.512 117.512 0 0 1 13.566-2.58l1.72-.178a7.5 7.5 0 0 1 .886.046 5.452 5.452 0 0 0 .86-.1l3.412-.525c2.26-.43 4.622-.292 6.89-.692 4.528-.82 8.98-2.084 13.473-3.1a32.485 32.485 0 0 1 3.386-.676c1.147-.115 2.304-.178 3.447-.325 1.146-.13 2.257-.456 3.386-.675 1.127-.235 2.25-.487 3.366-.786a1.6 1.6 0 1 1 .828 3.09l-.073.02-.2.042-6.755 1.45a21.3 21.3 0 0 1-3.44.37c-1.155.078-2.28.33-3.414.517-4.54.766-9.06 1.635-13.57 2.556-1.127.238-2.233.593-3.35.882-.556.166-1.124.26-1.688.37a11.742 11.742 0 0 1-1.713.225c-1.156.07-2.34-.02-3.493.07a4.06 4.06 0 0 0-.86.087 5.374 5.374 0 0 1-.828.277c-.574.057-1.146.125-1.726.15a25.11 25.11 0 0 0-3.45.316 11.15 11.15 0 0 0-1.657.537 10.784 10.784 0 0 1-1.673.447c-2.258.448-4.5.992-6.775 1.334a1.6 1.6 0 0 1-.578-3.147z" fill="#46bfbf"/><path d="M622.9 212.035a11.754 11.754 0 0 0 7.377-1.646 13.872 13.872 0 0 0 2.978-2.383 12.37 12.37 0 0 0 2.142-3.106l.976 1.854a1.155 1.155 0 0 0-.8.08 2.93 2.93 0 0 0-1.412 3.052 3.8 3.8 0 0 0 1.7 2.02 7.976 7.976 0 0 0 2.863.99 9.395 9.395 0 0 0 6.293-1.156 52.6 52.6 0 0 0 5.438-4.18 12.477 12.477 0 0 1 3.2-1.87 8.156 8.156 0 0 1 3.87-.492 11.382 11.382 0 0 1 3.645 1.144 18.1 18.1 0 0 1 3.085 1.908c1.817 1.43 3.517 2.957 5.535 3.46 1.934.5 4.228.116 5.188-1.3a1.2 1.2 0 1 1 1.987 1.35l-.045.06-.08.1a6.217 6.217 0 0 1-3.644 2.167 8.954 8.954 0 0 1-4.038-.114 12.232 12.232 0 0 1-3.5-1.585 32.1 32.1 0 0 1-2.816-2.18 16.464 16.464 0 0 0-2.757-1.812 9.07 9.07 0 0 0-2.887-1 7.556 7.556 0 0 0-5.57 1.807 62.008 62.008 0 0 1-5.7 4.178 15.9 15.9 0 0 1-3.54 1.433 12.027 12.027 0 0 1-3.878.47 8.245 8.245 0 0 1-3.908-1.237 5.87 5.87 0 0 1-2.576-3.53 4.907 4.907 0 0 1 .024-2.24 8.863 8.863 0 0 1 .727-2.032 4.264 4.264 0 0 1 1.687-1.5 3.466 3.466 0 0 1 2.366-.242l1.166.307-.485.984a19.608 19.608 0 0 1-2.58 3.764l-.734.878c-.265.273-.526.558-.81.816-.3.24-.592.49-.9.714l-.975.617a14.843 14.843 0 0 1-4.3 1.675 12.493 12.493 0 0 1-4.662.147 1.2 1.2 0 0 1 .33-2.377z" fill="#e1e5f1"/><path fill="#f4f5f9" d="M697.64 206.003h36.814v8.355H697.64z"/><path d="M734.737 214.64c-6.143.054-12.294.162-18.51.156-3.11-.03-6.2.018-9.318-.09l-9.27-.037h-.316v-.31l.1-8.356v-.207h.206l18.407-.132c3.068-.016 6.136-.08 9.2-.056s6.136.082 9.2.057h.336v.342c.044 2.857.02 5.767-.036 8.63zm-.566-.565c-.08-2.734-.153-5.394-.166-8.072l.45.45q-4.6.036-9.2-.045c-3.07-.04-6.137 0-9.2-.01l-18.408.032.427-.427.082 8.355-.51-.51c3.037 0 6.08.1 9.14.166.762.01 1.518-.015 2.276-.023l2.294.04 4.592.07c3.063.026 6.043-.088 9.1-.048z" fill="#ebedf5"/><path fill="#f4f5f9" d="M627.143 187.98h65.837v5.76h-65.837z"/><path d="M693.263 194.023c-10.974.055-21.96.18-33.027.138l-16.57-.083c-5.508.01-11.022-.04-16.522-.095h-.243v-.24l.035-5.76v-.207h.207l32.918-.158 8.23-.042 8.23.046c5.485.054 10.972.017 16.458-.01h.37v.375c.018 2.002-.02 4.047-.085 6.038zm-.566-.566c-.075-1.862-.136-3.657-.14-5.478l.422.42-16.46.033-8.23-.07-8.23.008-32.917.036.427-.427.044 5.76-.47-.472 8.182-.04 8.2.086c5.486.12 10.926.042 16.422.14 5.514.1 10.907-.04 16.37-.02z" fill="#ebedf5"/><path d="M654.92 40.657a15.986 15.986 0 0 0 3.88-.583c1.46-.058 2.54-1.193 3.933-1.854 1.37-.64 2.715-1.046 3.9-1.587a11.293 11.293 0 0 0 3.246-2.17c.514-.463 1-.95 1.464-1.445a16.16 16.16 0 0 0 1.323-1.493 4.538 4.538 0 0 0 1.162-3.01c-.04-.1-.022-.235-.093-.337s-.138-.2-.2-.3a2.745 2.745 0 0 0-.59-.51.937.937 0 0 0-1.037-.095 3.618 3.618 0 0 0-1.36 1.12 6.764 6.764 0 0 0-.957 1.79 5.49 5.49 0 0 0-.486 3.66 2.447 2.447 0 0 0 1.1 1.442c.26.172.53.317.792.474a5.46 5.46 0 0 0 .8.445 7.9 7.9 0 0 0 3.665.654 10.864 10.864 0 0 0 3.72-1.13 25.655 25.655 0 0 0 4.067-1.458 40.625 40.625 0 0 0 3.528-2.15c2.61-1.246 4.213-4.032 7.624-5.385a1.574 1.574 0 0 1 1.16 2.927l-.046.018-.144.05a12.3 12.3 0 0 0-3.246 2.056c-.55.433-1.077.935-1.633 1.428s-1.024 1.122-1.615 1.677a10.006 10.006 0 0 1-2.07 1.355c-.725.356-1.448.66-2.17.942-1.45.54-2.833 1.155-4.27 1.63a19.263 19.263 0 0 1-2.324.536 21.332 21.332 0 0 1-2.532.366 10.078 10.078 0 0 1-5.123-.852 4.273 4.273 0 0 1-2.11-1.8c-.262-.4-.41-.873-.676-1.258a11.69 11.69 0 0 1-.672-1.258 6.883 6.883 0 0 1-.022-5.592c.434-.76 1.015-1.39 1.51-2.12a6.82 6.82 0 0 1 2.163-2.1 3.986 3.986 0 0 1 1.982-.468 3.554 3.554 0 0 1 1.922.677 5.886 5.886 0 0 1 1.15 1.155 7.644 7.644 0 0 1 .89 1.484 4.185 4.185 0 0 1 .212 3.288 7.3 7.3 0 0 1-1.486 2.3c-.277.316-.557.626-.806.94a7.257 7.257 0 0 1-.737.95 13.532 13.532 0 0 1-1.87 1.45c-1.264.862-2.5 1.93-3.848 2.75a28.49 28.49 0 0 1-4.09 2.06c-1.34.5-2.913.654-4.265 1.49a13.824 13.824 0 0 1-2.29.7 10.62 10.62 0 0 1-2.494.29 1.574 1.574 0 0 1 .006-3.15z" fill="#46bfbf"/></svg>